<svg width="129" height="36" viewBox="0 0 129 36" fill="none" xmlns="http://www.w3.org/2000/svg">
<rect width="129" height="36" rx="18" fill="#FEC880"/>
<path d="M40.2937 23.112C39.547 23.112 38.875 22.984 38.2777 22.728C37.6804 22.4613 37.211 22.088 36.8697 21.608C36.5284 21.128 36.3577 20.568 36.3577 19.928H38.3097C38.3524 20.408 38.539 20.8027 38.8697 21.112C39.211 21.4213 39.6857 21.576 40.2937 21.576C40.923 21.576 41.4137 21.4267 41.7657 21.128C42.1177 20.8187 42.2937 20.424 42.2937 19.944C42.2937 19.5707 42.1817 19.2667 41.9577 19.032C41.7444 18.7973 41.4724 18.616 41.1417 18.488C40.8217 18.36 40.3737 18.2213 39.7977 18.072C39.0724 17.88 38.4804 17.688 38.0217 17.496C37.5737 17.2933 37.1897 16.984 36.8697 16.568C36.5497 16.152 36.3897 15.5973 36.3897 14.904C36.3897 14.264 36.5497 13.704 36.8697 13.224C37.1897 12.744 37.6377 12.376 38.2137 12.12C38.7897 11.864 39.4564 11.736 40.2137 11.736C41.291 11.736 42.171 12.008 42.8537 12.552C43.547 13.0853 43.931 13.8213 44.0057 14.76H41.9897C41.9577 14.3547 41.7657 14.008 41.4137 13.72C41.0617 13.432 40.5977 13.288 40.0217 13.288C39.499 13.288 39.0724 13.4213 38.7417 13.688C38.411 13.9547 38.2457 14.3387 38.2457 14.84C38.2457 15.1813 38.347 15.464 38.5497 15.688C38.763 15.9013 39.0297 16.072 39.3497 16.2C39.6697 16.328 40.107 16.4667 40.6617 16.616C41.3977 16.8187 41.995 17.0213 42.4537 17.224C42.923 17.4267 43.3177 17.7413 43.6377 18.168C43.9684 18.584 44.1337 19.144 44.1337 19.848C44.1337 20.4133 43.979 20.9467 43.6697 21.448C43.371 21.9493 42.9284 22.3547 42.3417 22.664C41.7657 22.9627 41.083 23.112 40.2937 23.112ZM48.0939 11.88V18.968C48.0939 19.8107 48.3126 20.4453 48.7499 20.872C49.1979 21.2987 49.8166 21.512 50.6059 21.512C51.4059 21.512 52.0246 21.2987 52.4619 20.872C52.9099 20.4453 53.1339 19.8107 53.1339 18.968V11.88H54.9579V18.936C54.9579 19.8427 54.7606 20.6107 54.3659 21.24C53.9713 21.8693 53.4433 22.3387 52.7819 22.648C52.1206 22.9573 51.3899 23.112 50.5899 23.112C49.7899 23.112 49.0593 22.9573 48.3979 22.648C47.7473 22.3387 47.2299 21.8693 46.8459 21.24C46.4619 20.6107 46.2699 19.8427 46.2699 18.936V11.88H48.0939ZM63.2848 17.288C63.8821 17.3947 64.3888 17.7093 64.8048 18.232C65.2208 18.7547 65.4288 19.3467 65.4288 20.008C65.4288 20.5733 65.2795 21.0853 64.9808 21.544C64.6928 21.992 64.2715 22.3493 63.7168 22.616C63.1621 22.872 62.5168 23 61.7808 23H57.3328V11.88H61.5728C62.3301 11.88 62.9808 12.008 63.5248 12.264C64.0688 12.52 64.4795 12.8667 64.7568 13.304C65.0341 13.7307 65.1728 14.2107 65.1728 14.744C65.1728 15.384 65.0021 15.9173 64.6608 16.344C64.3195 16.7707 63.8608 17.0853 63.2848 17.288ZM59.1568 16.552H61.4128C62.0101 16.552 62.4741 16.4187 62.8048 16.152C63.1461 15.8747 63.3168 15.48 63.3168 14.968C63.3168 14.4667 63.1461 14.0773 62.8048 13.8C62.4741 13.512 62.0101 13.368 61.4128 13.368H59.1568V16.552ZM61.6208 21.512C62.2395 21.512 62.7248 21.3627 63.0768 21.064C63.4288 20.7653 63.6048 20.3493 63.6048 19.816C63.6048 19.272 63.4181 18.84 63.0448 18.52C62.6715 18.2 62.1755 18.04 61.5568 18.04H59.1568V21.512H61.6208ZM79.1229 11.88V23H77.2989V15.384L73.9069 23H72.6429L69.2349 15.384V23H67.4109V11.88H69.3789L73.2829 20.6L77.1709 11.88H79.1229ZM83.3443 11.88V23H81.5203V11.88H83.3443ZM92.9231 11.88V13.368H89.9631V23H88.1391V13.368H85.1631V11.88H92.9231Z" fill="black"/>
</svg>
