<svg width="860" height="878" viewBox="0 0 860 878" fill="none" xmlns="http://www.w3.org/2000/svg">
<path d="M414.996 435.954L859.962 384.323V487.585L414.996 435.954Z" fill="url(#paint0_linear_3959_1266)"/>
<path d="M416.724 442.862L787.081 190.878L834.941 282.379L416.724 442.862Z" fill="url(#paint1_linear_3959_1266)"/>
<path d="M421.036 447.983L632.424 53.0455L717.242 111.944L421.036 447.983Z" fill="url(#paint2_linear_3959_1266)"/>
<path d="M427.669 450.78L431.163 2.84244L533.641 15.5441L427.669 450.78Z" fill="url(#paint3_linear_3959_1266)"/>
<path d="M427.389 433.919L219.746 37.0005L316.151 -0.000452828L427.389 433.919Z" fill="url(#paint4_linear_3959_1266)"/>
<path d="M440.612 446.548L72.9626 190.629L141.332 113.243L440.612 446.548Z" fill="url(#paint5_linear_3959_1266)"/>
<path d="M444.593 439.375L5.44777e-06 384.625L24.3497 284.275L444.593 439.375Z" fill="url(#paint6_linear_3959_1266)"/>
<path d="M444.539 432.311L25.4872 590.602L0.375015 490.44L444.539 432.311Z" fill="url(#paint7_linear_3959_1266)"/>
<path d="M444.539 432.311L25.4872 590.602L0.375015 490.44L444.539 432.311Z" fill="url(#paint8_linear_3959_1266)"/>
<path d="M440.94 425.64L144.092 761.112L75.1612 684.225L440.94 425.64Z" fill="url(#paint9_linear_3959_1266)"/>
<path d="M440.94 425.64L144.092 761.112L75.1612 684.225L440.94 425.64Z" fill="url(#paint10_linear_3959_1266)"/>
<path d="M419.154 441.9L312.807 877.044L215.991 841.131L419.154 441.9Z" fill="url(#paint11_linear_3959_1266)"/>
<path d="M419.154 441.9L312.807 877.044L215.991 841.131L419.154 441.9Z" fill="url(#paint12_linear_3959_1266)"/>
<path d="M428.232 421.064L537.544 855.473L435.166 868.962L428.232 421.064Z" fill="url(#paint13_linear_3959_1266)"/>
<path d="M428.232 421.064L537.544 855.473L435.166 868.962L428.232 421.064Z" fill="url(#paint14_linear_3959_1266)"/>
<path d="M420.872 424.046L719.528 757.91L635.143 817.427L420.872 424.046Z" fill="url(#paint15_linear_3959_1266)"/>
<path d="M420.872 424.046L719.528 757.91L635.143 817.427L420.872 424.046Z" fill="url(#paint16_linear_3959_1266)"/>
<path d="M416.677 429.149L836.07 586.531L788.889 678.384L416.677 429.149Z" fill="url(#paint17_linear_3959_1266)"/>
<defs>
<linearGradient id="paint0_linear_3959_1266" x1="414.996" y1="435.954" x2="859.962" y2="435.954" gradientUnits="userSpaceOnUse">
<stop offset="0.519258" stop-color="#FEC880"/>
<stop offset="0.711498" stop-color="#F54160" stop-opacity="0.34"/>
<stop offset="1" stop-color="#401F40" stop-opacity="0.61"/>
</linearGradient>
<linearGradient id="paint1_linear_3959_1266" x1="416.724" y1="442.862" x2="811.011" y2="236.628" gradientUnits="userSpaceOnUse">
<stop offset="0.519258" stop-color="#FEC880" stop-opacity="0.61"/>
<stop offset="0.711498" stop-color="#F54160" stop-opacity="0.34"/>
<stop offset="1" stop-color="#401F40" stop-opacity="0.61"/>
</linearGradient>
<linearGradient id="paint2_linear_3959_1266" x1="421.036" y1="447.983" x2="674.833" y2="82.4945" gradientUnits="userSpaceOnUse">
<stop offset="0.519258" stop-color="#FEC880"/>
<stop offset="0.711498" stop-color="#F54160" stop-opacity="0.34"/>
<stop offset="1" stop-color="#401F40" stop-opacity="0.61"/>
</linearGradient>
<linearGradient id="paint3_linear_3959_1266" x1="427.669" y1="450.78" x2="482.402" y2="9.19328" gradientUnits="userSpaceOnUse">
<stop offset="0.519258" stop-color="#FEC880"/>
<stop offset="0.711498" stop-color="#F54160" stop-opacity="0.34"/>
<stop offset="1" stop-color="#401F40" stop-opacity="0.61"/>
</linearGradient>
<linearGradient id="paint4_linear_3959_1266" x1="427.389" y1="433.919" x2="267.949" y2="18.5" gradientUnits="userSpaceOnUse">
<stop offset="0.519258" stop-color="#FEC880"/>
<stop offset="0.711498" stop-color="#F54160" stop-opacity="0.34"/>
<stop offset="1" stop-color="#401F40" stop-opacity="0.61"/>
</linearGradient>
<linearGradient id="paint5_linear_3959_1266" x1="440.612" y1="446.548" x2="107.147" y2="151.936" gradientUnits="userSpaceOnUse">
<stop offset="0.519258" stop-color="#FEC880"/>
<stop offset="0.711498" stop-color="#F54160" stop-opacity="0.34"/>
<stop offset="1" stop-color="#401F40" stop-opacity="0.61"/>
</linearGradient>
<linearGradient id="paint6_linear_3959_1266" x1="444.593" y1="439.375" x2="12.1749" y2="334.45" gradientUnits="userSpaceOnUse">
<stop offset="0.519258" stop-color="#FEC880" stop-opacity="0.6"/>
<stop offset="0.711498" stop-color="#F54160" stop-opacity="0.34"/>
<stop offset="1" stop-color="#401F40" stop-opacity="0.61"/>
</linearGradient>
<linearGradient id="paint7_linear_3959_1266" x1="444.539" y1="432.311" x2="12.9311" y2="540.521" gradientUnits="userSpaceOnUse">
<stop stop-color="white"/>
<stop offset="0.932292" stop-color="white" stop-opacity="0"/>
</linearGradient>
<linearGradient id="paint8_linear_3959_1266" x1="444.539" y1="432.311" x2="12.9311" y2="540.521" gradientUnits="userSpaceOnUse">
<stop offset="0.519258" stop-color="#FEC880" stop-opacity="0.6"/>
<stop offset="0.711498" stop-color="#F54160" stop-opacity="0.34"/>
<stop offset="1" stop-color="#401F40" stop-opacity="0.61"/>
</linearGradient>
<linearGradient id="paint9_linear_3959_1266" x1="440.94" y1="425.64" x2="109.627" y2="722.668" gradientUnits="userSpaceOnUse">
<stop stop-color="white"/>
<stop offset="0.932292" stop-color="white" stop-opacity="0"/>
</linearGradient>
<linearGradient id="paint10_linear_3959_1266" x1="440.94" y1="425.64" x2="109.627" y2="722.668" gradientUnits="userSpaceOnUse">
<stop offset="0.519258" stop-color="#FEC880" stop-opacity="0.6"/>
<stop offset="0.711498" stop-color="#F54160" stop-opacity="0.34"/>
<stop offset="1" stop-color="#401F40" stop-opacity="0.61"/>
</linearGradient>
<linearGradient id="paint11_linear_3959_1266" x1="419.154" y1="441.9" x2="264.399" y2="859.088" gradientUnits="userSpaceOnUse">
<stop stop-color="white"/>
<stop offset="0.932292" stop-color="white" stop-opacity="0"/>
</linearGradient>
<linearGradient id="paint12_linear_3959_1266" x1="419.154" y1="441.9" x2="264.399" y2="859.088" gradientUnits="userSpaceOnUse">
<stop offset="0.519258" stop-color="#FEC880"/>
<stop offset="0.711498" stop-color="#F54160" stop-opacity="0.34"/>
<stop offset="1" stop-color="#401F40" stop-opacity="0.61"/>
</linearGradient>
<linearGradient id="paint13_linear_3959_1266" x1="428.232" y1="421.064" x2="486.355" y2="862.218" gradientUnits="userSpaceOnUse">
<stop stop-color="white"/>
<stop offset="0.932292" stop-color="white" stop-opacity="0"/>
</linearGradient>
<linearGradient id="paint14_linear_3959_1266" x1="428.232" y1="421.064" x2="486.355" y2="862.218" gradientUnits="userSpaceOnUse">
<stop offset="0.519258" stop-color="#FEC880"/>
<stop offset="0.711498" stop-color="#F54160" stop-opacity="0.34"/>
<stop offset="1" stop-color="#401F40" stop-opacity="0.61"/>
</linearGradient>
<linearGradient id="paint15_linear_3959_1266" x1="420.872" y1="424.046" x2="677.336" y2="787.668" gradientUnits="userSpaceOnUse">
<stop stop-color="white"/>
<stop offset="0.932292" stop-color="white" stop-opacity="0"/>
</linearGradient>
<linearGradient id="paint16_linear_3959_1266" x1="420.872" y1="424.046" x2="677.336" y2="787.668" gradientUnits="userSpaceOnUse">
<stop offset="0.519258" stop-color="#FEC880"/>
<stop offset="0.711498" stop-color="#F54160" stop-opacity="0.34"/>
<stop offset="1" stop-color="#401F40" stop-opacity="0.61"/>
</linearGradient>
<linearGradient id="paint17_linear_3959_1266" x1="416.677" y1="429.149" x2="812.48" y2="632.457" gradientUnits="userSpaceOnUse">
<stop offset="0.519258" stop-color="#FEC880" stop-opacity="0.6"/>
<stop offset="0.711498" stop-color="#F54160" stop-opacity="0.34"/>
<stop offset="1" stop-color="#401F40" stop-opacity="0.61"/>
</linearGradient>
</defs>
</svg>
