<svg width="375" height="52" viewBox="0 0 375 52" fill="none" xmlns="http://www.w3.org/2000/svg">
<rect x="138" y="12" width="99" height="30" rx="15" fill="#F0EBDE"/>
<path d="M170.508 29.668H173.268V31H168.828V22.624H170.508V29.668ZM180.516 27.532C180.516 27.772 180.5 27.988 180.468 28.18H175.608C175.648 28.66 175.816 29.036 176.112 29.308C176.408 29.58 176.772 29.716 177.204 29.716C177.828 29.716 178.272 29.448 178.536 28.912H180.348C180.156 29.552 179.788 30.08 179.244 30.496C178.7 30.904 178.032 31.108 177.24 31.108C176.6 31.108 176.024 30.968 175.512 30.688C175.008 30.4 174.612 29.996 174.324 29.476C174.044 28.956 173.904 28.356 173.904 27.676C173.904 26.988 174.044 26.384 174.324 25.864C174.604 25.344 174.996 24.944 175.5 24.664C176.004 24.384 176.584 24.244 177.24 24.244C177.872 24.244 178.436 24.38 178.932 24.652C179.436 24.924 179.824 25.312 180.096 25.816C180.376 26.312 180.516 26.884 180.516 27.532ZM178.776 27.052C178.768 26.62 178.612 26.276 178.308 26.02C178.004 25.756 177.632 25.624 177.192 25.624C176.776 25.624 176.424 25.752 176.136 26.008C175.856 26.256 175.684 26.604 175.62 27.052H178.776ZM184.514 29.452L186.194 24.352H187.982L185.522 31H183.482L181.034 24.352H182.834L184.514 29.452ZM195.106 27.532C195.106 27.772 195.09 27.988 195.058 28.18H190.198C190.238 28.66 190.406 29.036 190.702 29.308C190.998 29.58 191.362 29.716 191.794 29.716C192.418 29.716 192.862 29.448 193.126 28.912H194.938C194.746 29.552 194.378 30.08 193.834 30.496C193.29 30.904 192.622 31.108 191.83 31.108C191.19 31.108 190.614 30.968 190.102 30.688C189.598 30.4 189.202 29.996 188.914 29.476C188.634 28.956 188.494 28.356 188.494 27.676C188.494 26.988 188.634 26.384 188.914 25.864C189.194 25.344 189.586 24.944 190.09 24.664C190.594 24.384 191.174 24.244 191.83 24.244C192.462 24.244 193.026 24.38 193.522 24.652C194.026 24.924 194.414 25.312 194.686 25.816C194.966 26.312 195.106 26.884 195.106 27.532ZM193.366 27.052C193.358 26.62 193.202 26.276 192.898 26.02C192.594 25.756 192.222 25.624 191.782 25.624C191.366 25.624 191.014 25.752 190.726 26.008C190.446 26.256 190.274 26.604 190.21 27.052H193.366ZM198.012 22.12V31H196.332V22.12H198.012ZM202.135 23.8V22.252H205.027V31H203.299V23.8H202.135Z" fill="#121127"/>
<path d="M311.516 23.704H307.628V25.756C307.796 25.548 308.036 25.38 308.348 25.252C308.66 25.116 308.992 25.048 309.344 25.048C309.984 25.048 310.508 25.188 310.916 25.468C311.324 25.748 311.62 26.108 311.804 26.548C311.988 26.98 312.08 27.444 312.08 27.94C312.08 28.86 311.816 29.6 311.288 30.16C310.768 30.72 310.024 31 309.056 31C308.144 31 307.416 30.772 306.872 30.316C306.328 29.86 306.02 29.264 305.948 28.528H307.58C307.652 28.848 307.812 29.104 308.06 29.296C308.316 29.488 308.64 29.584 309.032 29.584C309.504 29.584 309.86 29.436 310.1 29.14C310.34 28.844 310.46 28.452 310.46 27.964C310.46 27.468 310.336 27.092 310.088 26.836C309.848 26.572 309.492 26.44 309.02 26.44C308.684 26.44 308.404 26.524 308.18 26.692C307.956 26.86 307.796 27.084 307.7 27.364H306.092V22.228H311.516V23.704ZM313.359 26.512C313.359 25.128 313.607 24.044 314.103 23.26C314.607 22.476 315.439 22.084 316.599 22.084C317.759 22.084 318.587 22.476 319.083 23.26C319.587 24.044 319.839 25.128 319.839 26.512C319.839 27.904 319.587 28.996 319.083 29.788C318.587 30.58 317.759 30.976 316.599 30.976C315.439 30.976 314.607 30.58 314.103 29.788C313.607 28.996 313.359 27.904 313.359 26.512ZM318.183 26.512C318.183 25.92 318.143 25.424 318.063 25.024C317.991 24.616 317.839 24.284 317.607 24.028C317.383 23.772 317.047 23.644 316.599 23.644C316.151 23.644 315.811 23.772 315.579 24.028C315.355 24.284 315.203 24.616 315.123 25.024C315.051 25.424 315.015 25.92 315.015 26.512C315.015 27.12 315.051 27.632 315.123 28.048C315.195 28.456 315.347 28.788 315.579 29.044C315.811 29.292 316.151 29.416 316.599 29.416C317.047 29.416 317.387 29.292 317.619 29.044C317.851 28.788 318.003 28.456 318.075 28.048C318.147 27.632 318.183 27.12 318.183 26.512Z" fill="black"/>
<path d="M337 37.6875C342.903 37.6875 347.688 32.9025 347.688 27C347.688 21.0975 342.903 16.3125 337 16.3125C331.097 16.3125 326.312 21.0975 326.312 27C326.312 32.9025 331.097 37.6875 337 37.6875Z" fill="#FEDA2C"/>
<path d="M337 35.2392C341.551 35.2392 345.239 31.5506 345.239 27.0005C345.239 22.4503 341.551 18.7617 337 18.7617C332.45 18.7617 328.762 22.4503 328.762 27.0005C328.762 31.5506 332.45 35.2392 337 35.2392Z" fill="#FCAA17"/>
<path d="M337 20.6689L338.874 24.4654L343.063 25.0743L340.032 28.0294L340.747 32.2021L337 30.232L333.253 32.2021L333.968 28.0294L330.937 25.0743L335.126 24.4654L337 20.6689Z" fill="#FEDA2C"/>
<path d="M56.4473 39.6943C57.5154 40.4099 58.2817 40.9293 58.7461 41.2524C59.582 41.8757 60 42.4758 60 43.0529C60 43.6069 59.6517 44.3917 58.9551 45.4073C58.2585 46.4229 57.5503 46.9308 56.8304 46.9308C56.3892 46.9308 55.7158 46.6191 54.8102 45.9959C54.6941 45.9267 54.3691 45.7074 53.835 45.3381C53.3009 44.9687 52.883 44.6917 52.5811 44.5071C50.4216 46.169 47.9951 47 45.3015 47C41.7023 47 38.6605 45.7305 36.1759 43.1914C33.7145 40.6523 32.4839 37.6285 32.4839 34.1199C32.4839 32.204 32.8322 30.4151 33.5288 28.7532C34.2254 27.0681 35.1542 25.6601 36.3152 24.5291C37.4762 23.398 38.8114 22.5093 40.3207 21.863C41.8301 21.2167 43.3858 20.8935 44.988 20.8935C48.4246 20.8935 51.4085 22.1285 53.9395 24.5983C56.4705 27.0681 57.736 30.1958 57.736 33.9814C57.736 35.8973 57.3064 37.8016 56.4473 39.6943ZM38.6489 33.9468C38.6489 36.0011 39.3106 37.6746 40.6342 38.9672C41.981 40.2368 43.4787 40.8716 45.1274 40.8716C46.776 40.8716 48.2621 40.2483 49.5857 39.0019C50.9092 37.7554 51.571 36.0819 51.571 33.9814C51.571 31.8809 50.8976 30.1958 49.5508 28.9263C48.2273 27.6568 46.7412 27.022 45.0925 27.022C43.4439 27.022 41.9578 27.6683 40.6342 28.9609C39.3106 30.2305 38.6489 31.8924 38.6489 33.9468Z" fill="#FEC880"/>
<path d="M53.6707 37.3943C54.7389 38.1099 55.5052 38.6292 55.9696 38.9524C56.8055 39.5756 57.2235 40.1757 57.2235 40.7528C57.2235 41.3068 56.8752 42.0916 56.1786 43.1072C55.4819 44.1229 54.7737 44.6307 54.0539 44.6307C53.6127 44.6307 52.9393 44.3191 52.0337 43.6959C51.9176 43.6266 51.5925 43.4073 51.0585 43.038C50.5244 42.6687 50.1064 42.3917 49.8046 42.207C47.6451 43.869 45.2185 44.6999 42.525 44.6999C38.9258 44.6999 35.8839 43.4304 33.3994 40.8913C30.938 38.3522 29.7073 35.3284 29.7073 31.8198C29.7073 29.904 30.0556 28.1151 30.7522 26.4531C31.4489 24.7681 32.3777 23.3601 33.5387 22.229C34.6997 21.098 36.0349 20.2093 37.5442 19.563C39.0535 18.9166 40.6093 18.5935 42.2115 18.5935C45.6481 18.5935 48.6319 19.8284 51.1629 22.2983C53.694 24.7681 54.9595 27.8958 54.9595 31.6813C54.9595 33.5972 54.5299 35.5015 53.6707 37.3943ZM35.8723 31.6467C35.8723 33.7011 36.5341 35.3746 37.8577 36.6672C39.2045 37.9367 40.7022 38.5715 42.3508 38.5715C43.9995 38.5715 45.4856 37.9483 46.8091 36.7018C48.1327 35.4554 48.7945 33.7819 48.7945 31.6813C48.7945 29.5808 48.1211 27.8958 46.7743 26.6262C45.4507 25.3567 43.9646 24.7219 42.316 24.7219C40.6673 24.7219 39.1812 25.3682 37.8577 26.6609C36.5341 27.9304 35.8723 29.5924 35.8723 31.6467Z" fill="#F54160"/>
<path d="M50.8942 34.0209C51.9624 34.7364 52.7286 35.2558 53.193 35.579C54.029 36.2022 54.4469 36.8023 54.4469 37.3794C54.4469 37.9334 54.0986 38.7182 53.402 39.7338C52.7054 40.7495 51.9972 41.2573 51.2773 41.2573C50.8362 41.2573 50.1628 40.9457 49.2572 40.3224C49.1411 40.2532 48.816 40.0339 48.2819 39.6646C47.7479 39.2953 47.3299 39.0183 47.028 38.8336C44.8685 40.4956 42.442 41.3265 39.7484 41.3265C36.1493 41.3265 33.1074 40.057 30.6228 37.5179C28.1615 34.9788 26.9308 31.955 26.9308 28.4464C26.9308 26.5306 27.2791 24.7417 27.9757 23.0797C28.6723 21.3947 29.6011 19.9866 30.7621 18.8556C31.9232 17.7245 33.2583 16.8359 34.7677 16.1895C36.277 15.5432 37.8328 15.2201 39.435 15.2201C42.8716 15.2201 45.8554 16.455 48.3864 18.9248C50.9174 21.3947 52.1829 24.5224 52.1829 28.3079C52.1829 30.2238 51.7534 32.1281 50.8942 34.0209ZM33.0958 28.2733C33.0958 30.3277 33.7576 32.0011 35.0811 33.2938C36.4279 34.5633 37.9256 35.1981 39.5743 35.1981C41.2229 35.1981 42.709 34.5749 44.0326 33.3284C45.3562 32.0819 46.0179 30.4084 46.0179 28.3079C46.0179 26.2074 45.3445 24.5224 43.9978 23.2528C42.6742 21.9833 41.1881 21.3485 39.5395 21.3485C37.8908 21.3485 36.4047 21.9948 35.0811 23.2875C33.7576 24.557 33.0958 26.2189 33.0958 28.2733Z" fill="#401F40"/>
<path d="M47.9634 30.8008C49.0316 31.5164 49.7978 32.0357 50.2622 32.3589C51.0982 32.9821 51.5161 33.5823 51.5161 34.1593C51.5161 34.7133 51.1678 35.4981 50.4712 36.5138C49.7746 37.5294 49.0664 38.0372 48.3466 38.0372C47.9054 38.0372 47.232 37.7256 46.3264 37.1024C46.2103 37.0331 45.8852 36.8138 45.3511 36.4445C44.8171 36.0752 44.3991 35.7982 44.0972 35.6135C41.9377 37.2755 39.5112 38.1065 36.8176 38.1065C33.2185 38.1065 30.1766 36.8369 27.692 34.2978C25.2307 31.7587 24 28.7349 24 25.2263C24 23.3105 24.3483 21.5216 25.0449 19.8596C25.7415 18.1746 26.6703 16.7666 27.8314 15.6355C28.9924 14.5045 30.3276 13.6158 31.8369 12.9695C33.3462 12.3232 34.902 12 36.5042 12C39.9408 12 42.9246 13.2349 45.4556 15.7048C47.9866 18.1746 49.2522 21.3023 49.2522 25.0879C49.2522 27.0037 48.8226 28.908 47.9634 30.8008ZM30.165 25.0532C30.165 27.1076 30.8268 28.7811 32.1504 30.0737C33.4971 31.3432 34.9948 31.978 36.6435 31.978C38.2921 31.978 39.7782 31.3548 41.1018 30.1083C42.4254 28.8619 43.0871 27.1884 43.0871 25.0879C43.0871 22.9873 42.4138 21.3023 41.067 20.0328C39.7434 18.7632 38.2573 18.1284 36.6087 18.1284C34.96 18.1284 33.4739 18.7748 32.1504 20.0674C30.8268 21.3369 30.165 22.9989 30.165 25.0532Z" fill="#FCFAF4"/>
</svg>
