<svg width="375" height="281" viewBox="0 0 375 281" fill="none" xmlns="http://www.w3.org/2000/svg">
<path d="M18 38.4643C18 23.2183 29.4115 10.4153 44.5822 8.90199C79.3064 5.4381 140.92 0 185.5 0C230.08 0 291.694 5.43809 326.418 8.90199C341.589 10.4153 353 23.2183 353 38.4643V242.562C353 257.797 341.608 270.593 326.449 272.113C291.896 275.578 230.611 281 185.5 281C140.389 281 79.1043 275.578 44.551 272.113C29.3922 270.593 18 257.797 18 242.562V38.4643Z" fill="#FEC880"/>
<g opacity="0.2">
<mask id="mask0_5634_1126" style="mask-type:alpha" maskUnits="userSpaceOnUse" x="18" y="0" width="335" height="281">
<path d="M18 38.4643C18 23.2183 29.4115 10.4153 44.5822 8.90199C79.3064 5.4381 140.92 0 185.5 0C230.08 0 291.694 5.43809 326.418 8.90199C341.589 10.4153 353 23.2183 353 38.4643V242.562C353 257.797 341.608 270.593 326.449 272.113C291.896 275.578 230.611 281 185.5 281C140.389 281 79.1043 275.578 44.551 272.113C29.3922 270.593 18 257.797 18 242.562V38.4643Z" fill="#401F40"/>
</mask>
<g mask="url(#mask0_5634_1126)">
<rect width="35.7116" height="544.913" transform="matrix(0.962407 -0.27161 0.713796 0.700354 -206 -4.50879)" fill="#5D3D13"/>
<rect width="35.7116" height="544.913" transform="matrix(0.962407 -0.27161 0.713796 0.700354 -131 -4.50879)" fill="#5D3D13"/>
<rect width="35.7116" height="544.913" transform="matrix(0.962407 -0.27161 0.713796 0.700354 -56 -4.50879)" fill="#5D3D13"/>
<rect width="35.7116" height="544.913" transform="matrix(0.962407 -0.27161 0.713796 0.700354 19 -4.50879)" fill="#5D3D13"/>
<rect width="35.7116" height="544.913" transform="matrix(0.962407 -0.27161 0.713796 0.700354 94 -4.50879)" fill="#5D3D13"/>
<rect width="35.7116" height="544.913" transform="matrix(0.962407 -0.27161 0.713796 0.700354 169 -4.50879)" fill="#5D3D13"/>
<rect width="35.7116" height="544.913" transform="matrix(0.962407 -0.27161 0.713796 0.700354 244 -4.50879)" fill="#5D3D13"/>
</g>
</g>
<path d="M22 41.4091C22 26.1644 33.3998 13.3631 48.5694 11.8521C82.5741 8.46496 142.25 3.21582 185.5 3.21582C228.75 3.21582 288.426 8.46496 322.431 11.8521C337.6 13.3631 349 26.1644 349 41.4091V239.619C349 254.852 337.618 267.647 322.46 269.164C288.623 272.552 229.264 277.786 185.5 277.786C141.736 277.786 82.3774 272.552 48.5397 269.164C33.382 267.647 22 254.852 22 239.619V41.4091Z" fill="#FCFAF4"/>
<path d="M83.3697 159.87C84.8914 160.895 85.9831 161.639 86.6447 162.103C87.8356 162.996 88.4311 163.856 88.4311 164.683C88.4311 165.477 87.9349 166.601 86.9424 168.057C85.95 169.513 84.9411 170.24 83.9156 170.24C83.287 170.24 82.3277 169.794 81.0376 168.901C80.8721 168.801 80.409 168.487 79.6482 167.958C78.8873 167.428 78.2919 167.032 77.8618 166.767C74.7853 169.149 71.3284 170.34 67.491 170.34C62.3635 170.34 58.03 168.52 54.4904 164.881C50.9838 161.242 49.2305 156.909 49.2305 151.881C49.2305 149.135 49.7268 146.571 50.7192 144.189C51.7116 141.774 53.0348 139.757 54.6888 138.136C56.3429 136.515 58.245 135.241 60.3952 134.315C62.5455 133.389 64.7619 132.925 67.0445 132.925C71.9404 132.925 76.1912 134.695 79.797 138.235C83.4028 141.774 85.2057 146.257 85.2057 151.682C85.2057 154.428 84.5937 157.157 83.3697 159.87ZM58.0134 151.633C58.0134 154.577 58.9562 156.975 60.8418 158.828C62.7605 160.647 64.8942 161.557 67.2429 161.557C69.5917 161.557 71.7088 160.664 73.5944 158.877C75.48 157.091 76.4228 154.692 76.4228 151.682C76.4228 148.672 75.4635 146.257 73.5448 144.437C71.6592 142.618 69.542 141.708 67.1933 141.708C64.8446 141.708 62.7274 142.635 60.8418 144.487C58.9562 146.307 58.0134 148.688 58.0134 151.633ZM133.999 133.57C136.216 134.364 137.324 135.423 137.324 136.746C137.324 137.176 137.125 137.987 136.728 139.178L127.201 166.717C127.135 166.949 127.019 167.23 126.854 167.561C126.689 167.892 126.242 168.338 125.514 168.901C124.819 169.43 123.976 169.695 122.984 169.695C122.024 169.695 121.181 169.43 120.453 168.901C119.758 168.338 119.295 167.792 119.063 167.263L113.258 150.144C109.586 160.994 107.717 166.519 107.651 166.717C107.584 166.916 107.436 167.197 107.204 167.561C106.972 167.925 106.708 168.256 106.41 168.553C105.649 169.314 104.74 169.695 103.681 169.695C102.622 169.695 101.746 169.446 101.051 168.95C100.389 168.454 99.9429 167.958 99.7113 167.462L99.3639 166.717L89.7871 139.178C89.4232 138.086 89.2413 137.276 89.2413 136.746C89.2413 135.423 90.3495 134.381 92.5659 133.62C93.5252 133.289 94.3853 133.124 95.1462 133.124C95.9401 133.124 96.5356 133.389 96.9325 133.918C97.3626 134.447 97.743 135.258 98.0738 136.349L103.532 152.923L108.941 136.597C109.404 135.208 110.247 134.249 111.471 133.719C112.001 133.488 112.679 133.372 113.506 133.372C114.366 133.372 115.16 133.653 115.888 134.216C116.615 134.745 117.079 135.274 117.277 135.803L122.984 153.022L128.442 136.349C128.706 135.588 128.921 135.026 129.087 134.662C129.252 134.298 129.55 133.951 129.98 133.62C130.443 133.256 131.006 133.074 131.667 133.074C132.329 133.074 133.106 133.24 133.999 133.57ZM221.422 163.591C221.918 164.782 222.166 165.642 222.166 166.171C222.166 167.428 221.141 168.487 219.09 169.347C218.031 169.81 217.171 170.042 216.51 170.042C215.881 170.042 215.352 169.893 214.922 169.595C214.525 169.264 214.227 168.934 214.029 168.603C213.698 167.974 212.408 164.981 210.158 159.621L208.62 159.721H202.368V165.328C202.368 166.089 202.335 166.668 202.268 167.065C202.235 167.428 202.086 167.859 201.822 168.355C201.359 169.248 200.069 169.695 197.951 169.695C195.636 169.695 194.279 169.083 193.882 167.859C193.684 167.296 193.585 166.436 193.585 165.278V137.739C193.585 136.978 193.601 136.415 193.634 136.052C193.701 135.655 193.866 135.208 194.131 134.712C194.594 133.819 195.884 133.372 198.001 133.372H208.719C211.63 133.372 214.459 134.431 217.204 136.548C218.528 137.573 219.619 138.963 220.479 140.716C221.339 142.469 221.769 144.421 221.769 146.571C221.769 150.309 220.529 153.386 218.048 155.801C218.776 157.554 219.9 160.151 221.422 163.591ZM202.368 150.938H208.719C209.678 150.938 210.638 150.574 211.597 149.846C212.556 149.118 213.036 148.027 213.036 146.571C213.036 145.116 212.556 144.024 211.597 143.296C210.638 142.535 209.645 142.155 208.62 142.155H202.368V150.938ZM233.275 133.322L242.454 133.372C247.251 133.372 251.469 135.109 255.108 138.582C258.747 142.023 260.566 146.273 260.566 151.335C260.566 156.363 258.78 160.68 255.207 164.286C251.667 167.892 247.367 169.695 242.306 169.695H233.225C231.207 169.695 229.95 169.281 229.454 168.454C229.057 167.759 228.858 166.701 228.858 165.278V137.689C228.858 136.895 228.875 136.316 228.908 135.952C228.974 135.588 229.139 135.158 229.404 134.662C229.867 133.769 231.157 133.322 233.275 133.322ZM242.454 160.912C244.836 160.912 246.986 160.035 248.905 158.282C250.824 156.495 251.783 154.262 251.783 151.583C251.783 148.903 250.84 146.67 248.955 144.884C247.102 143.065 244.919 142.155 242.405 142.155H237.641V160.912H242.454ZM276.549 162.4H290.046C291.138 162.4 291.931 162.533 292.428 162.797C292.924 163.029 293.255 163.409 293.42 163.938C293.586 164.468 293.668 165.179 293.668 166.072C293.668 166.932 293.586 167.627 293.42 168.156C293.255 168.686 292.974 169.049 292.577 169.248C291.948 169.579 291.088 169.744 289.996 169.744H272.133C269.817 169.744 268.461 169.116 268.064 167.859C267.865 167.329 267.766 166.486 267.766 165.328V137.739C267.766 136.978 267.783 136.415 267.816 136.052C267.882 135.655 268.047 135.208 268.312 134.712C268.775 133.819 270.065 133.372 272.182 133.372C274.498 133.372 275.871 133.984 276.301 135.208C276.466 135.77 276.549 136.63 276.549 137.788V162.4ZM323.536 134.067C325.157 135.191 325.967 136.283 325.967 137.342C325.967 137.97 325.587 138.847 324.826 139.972L314.108 155.999V165.477C314.108 166.238 314.075 166.817 314.009 167.213C313.975 167.577 313.827 168.007 313.562 168.504C313.297 169 312.851 169.347 312.222 169.546C311.594 169.744 310.75 169.843 309.691 169.843C308.633 169.843 307.789 169.744 307.161 169.546C306.532 169.347 306.086 169 305.821 168.504C305.556 167.974 305.391 167.528 305.325 167.164C305.292 166.767 305.275 166.171 305.275 165.377V155.999L294.557 139.972C293.796 138.847 293.416 137.97 293.416 137.342C293.416 136.283 294.144 135.274 295.599 134.315C297.055 133.322 298.097 132.826 298.725 132.826C299.354 132.826 299.85 132.959 300.214 133.223C300.776 133.587 301.372 134.265 302 135.258L309.691 147.564L317.383 135.258C318.011 134.265 318.557 133.62 319.02 133.322C319.483 132.992 320.013 132.826 320.608 132.826C321.237 132.826 322.212 133.24 323.536 134.067Z" fill="#FEC880"/>
<path d="M79.4814 156.576C81.0031 157.601 82.0948 158.345 82.7564 158.809C83.9473 159.702 84.5427 160.562 84.5427 161.389C84.5427 162.183 84.0465 163.308 83.0541 164.763C82.0617 166.219 81.0527 166.946 80.0272 166.946C79.3987 166.946 78.4394 166.5 77.1492 165.607C76.9838 165.507 76.5207 165.193 75.7598 164.664C74.999 164.135 74.4035 163.738 73.9735 163.473C70.897 165.855 67.4401 167.046 63.6027 167.046C58.4752 167.046 54.1416 165.226 50.602 161.587C47.0955 157.948 45.3422 153.615 45.3422 148.587C45.3422 145.841 45.8384 143.277 46.8308 140.895C47.8233 138.481 49.1465 136.463 50.8005 134.842C52.4545 133.221 54.3567 131.947 56.5069 131.021C58.6572 130.095 60.8736 129.631 63.1561 129.631C68.052 129.631 72.3029 131.401 75.9087 134.941C79.5145 138.481 81.3174 142.963 81.3174 148.388C81.3174 151.134 80.7054 153.863 79.4814 156.576ZM54.1251 148.339C54.1251 151.283 55.0679 153.681 56.9535 155.534C58.8722 157.353 61.0059 158.263 63.3546 158.263C65.7033 158.263 67.8205 157.37 69.7061 155.583C71.5917 153.797 72.5345 151.399 72.5345 148.388C72.5345 145.378 71.5751 142.963 69.6565 141.144C67.7709 139.324 65.6537 138.414 63.305 138.414C60.9563 138.414 58.8391 139.341 56.9535 141.193C55.0679 143.013 54.1251 145.394 54.1251 148.339ZM130.111 130.277C132.327 131.07 133.436 132.129 133.436 133.452C133.436 133.882 133.237 134.693 132.84 135.884L123.313 163.423C123.247 163.655 123.131 163.936 122.966 164.267C122.8 164.598 122.354 165.044 121.626 165.607C120.931 166.136 120.088 166.401 119.095 166.401C118.136 166.401 117.292 166.136 116.565 165.607C115.87 165.044 115.407 164.498 115.175 163.969L109.369 146.85C105.698 157.7 103.828 163.225 103.762 163.423C103.696 163.622 103.547 163.903 103.316 164.267C103.084 164.631 102.82 164.962 102.522 165.259C101.761 166.02 100.851 166.401 99.7926 166.401C98.7341 166.401 97.8574 166.152 97.1627 165.656C96.5011 165.16 96.0545 164.664 95.823 164.168L95.4756 163.423L85.8988 135.884C85.5349 134.792 85.3529 133.982 85.3529 133.452C85.3529 132.129 86.4611 131.087 88.6775 130.326C89.6369 129.995 90.497 129.83 91.2578 129.83C92.0518 129.83 92.6472 130.095 93.0442 130.624C93.4742 131.153 93.8547 131.964 94.1855 133.055L99.6438 149.629L105.052 133.303C105.516 131.914 106.359 130.955 107.583 130.425C108.112 130.194 108.791 130.078 109.618 130.078C110.478 130.078 111.272 130.359 111.999 130.922C112.727 131.451 113.19 131.98 113.389 132.509L119.095 149.728L124.553 133.055C124.818 132.294 125.033 131.732 125.199 131.368C125.364 131.004 125.662 130.657 126.092 130.326C126.555 129.962 127.117 129.78 127.779 129.78C128.44 129.78 129.218 129.946 130.111 130.277ZM217.534 160.297C218.03 161.488 218.278 162.348 218.278 162.877C218.278 164.135 217.253 165.193 215.202 166.053C214.143 166.516 213.283 166.748 212.621 166.748C211.993 166.748 211.463 166.599 211.033 166.301C210.636 165.971 210.339 165.64 210.14 165.309C209.809 164.68 208.519 161.687 206.27 156.328L204.732 156.427H198.479V162.034C198.479 162.795 198.446 163.374 198.38 163.771C198.347 164.135 198.198 164.565 197.933 165.061C197.47 165.954 196.18 166.401 194.063 166.401C191.747 166.401 190.391 165.789 189.994 164.565C189.796 164.002 189.696 163.142 189.696 161.984V134.445C189.696 133.684 189.713 133.121 189.746 132.758C189.812 132.361 189.978 131.914 190.242 131.418C190.705 130.525 191.996 130.078 194.113 130.078H204.831C207.742 130.078 210.57 131.137 213.316 133.254C214.639 134.279 215.731 135.669 216.591 137.422C217.451 139.175 217.881 141.127 217.881 143.277C217.881 147.015 216.641 150.092 214.16 152.507C214.887 154.26 216.012 156.857 217.534 160.297ZM198.479 147.644H204.831C205.79 147.644 206.749 147.28 207.709 146.552C208.668 145.824 209.148 144.733 209.148 143.277C209.148 141.822 208.668 140.73 207.709 140.002C206.749 139.241 205.757 138.861 204.732 138.861H198.479V147.644ZM229.386 130.028L238.566 130.078C243.363 130.078 247.581 131.815 251.219 135.288C254.858 138.729 256.678 142.98 256.678 148.041C256.678 153.069 254.891 157.386 251.319 160.992C247.779 164.598 243.479 166.401 238.417 166.401H229.337C227.319 166.401 226.062 165.987 225.565 165.16C225.168 164.465 224.97 163.407 224.97 161.984V134.395C224.97 133.601 224.986 133.022 225.02 132.658C225.086 132.294 225.251 131.864 225.516 131.368C225.979 130.475 227.269 130.028 229.386 130.028ZM238.566 157.618C240.948 157.618 243.098 156.741 245.017 154.988C246.935 153.201 247.895 150.968 247.895 148.289C247.895 145.609 246.952 143.376 245.066 141.59C243.214 139.771 241.031 138.861 238.516 138.861H233.753V157.618H238.566ZM272.661 159.106H286.158C287.249 159.106 288.043 159.239 288.539 159.503C289.036 159.735 289.366 160.115 289.532 160.645C289.697 161.174 289.78 161.885 289.78 162.778C289.78 163.638 289.697 164.333 289.532 164.862C289.366 165.392 289.085 165.756 288.688 165.954C288.06 166.285 287.2 166.45 286.108 166.45H268.244C265.929 166.45 264.572 165.822 264.175 164.565C263.977 164.035 263.878 163.192 263.878 162.034V134.445C263.878 133.684 263.894 133.121 263.927 132.758C263.994 132.361 264.159 131.914 264.424 131.418C264.887 130.525 266.177 130.078 268.294 130.078C270.61 130.078 271.983 130.69 272.413 131.914C272.578 132.476 272.661 133.337 272.661 134.494V159.106ZM319.647 130.773C321.268 131.897 322.079 132.989 322.079 134.048C322.079 134.676 321.698 135.553 320.938 136.678L310.219 152.705V162.183C310.219 162.944 310.186 163.523 310.12 163.92C310.087 164.283 309.938 164.713 309.674 165.21C309.409 165.706 308.962 166.053 308.334 166.252C307.705 166.45 306.862 166.549 305.803 166.549C304.745 166.549 303.901 166.45 303.272 166.252C302.644 166.053 302.197 165.706 301.933 165.21C301.668 164.68 301.503 164.234 301.437 163.87C301.403 163.473 301.387 162.877 301.387 162.084V152.705L290.669 136.678C289.908 135.553 289.528 134.676 289.528 134.048C289.528 132.989 290.255 131.98 291.711 131.021C293.166 130.028 294.208 129.532 294.837 129.532C295.465 129.532 295.962 129.665 296.326 129.929C296.888 130.293 297.483 130.971 298.112 131.964L305.803 144.27L313.494 131.964C314.123 130.971 314.669 130.326 315.132 130.028C315.595 129.698 316.124 129.532 316.72 129.532C317.348 129.532 318.324 129.946 319.647 130.773Z" fill="#F54160"/>
<path d="M75.5244 151.741C77.0461 152.766 78.1377 153.51 78.7993 153.974C79.9903 154.867 80.5857 155.727 80.5857 156.554C80.5857 157.348 80.0895 158.473 79.0971 159.928C78.1047 161.384 77.0957 162.111 76.0702 162.111C75.4417 162.111 74.4823 161.665 73.1922 160.772C73.0268 160.672 72.5637 160.358 71.8028 159.829C71.0419 159.3 70.4465 158.903 70.0164 158.638C66.9399 161.02 63.483 162.211 59.6457 162.211C54.5182 162.211 50.1846 160.391 46.645 156.752C43.1384 153.114 41.3852 148.78 41.3852 143.752C41.3852 141.006 41.8814 138.442 42.8738 136.06C43.8662 133.646 45.1894 131.628 46.8435 130.007C48.4975 128.386 50.3996 127.112 52.5499 126.186C54.7001 125.26 56.9165 124.797 59.1991 124.797C64.095 124.797 68.3459 126.566 71.9517 130.106C75.5574 133.646 77.3603 138.128 77.3603 143.553C77.3603 146.299 76.7484 149.028 75.5244 151.741ZM50.1681 143.504C50.1681 146.448 51.1109 148.846 52.9965 150.699C54.9151 152.518 57.0488 153.428 59.3976 153.428C61.7463 153.428 63.8635 152.535 65.749 150.748C67.6346 148.962 68.5774 146.564 68.5774 143.553C68.5774 140.543 67.6181 138.128 65.6994 136.309C63.8138 134.489 61.6967 133.579 59.3479 133.579C56.9992 133.579 54.8821 134.506 52.9965 136.358C51.1109 138.178 50.1681 140.559 50.1681 143.504ZM126.154 125.442C128.37 126.236 129.479 127.294 129.479 128.617C129.479 129.047 129.28 129.858 128.883 131.049L119.356 158.588C119.29 158.82 119.174 159.101 119.009 159.432C118.843 159.763 118.397 160.209 117.669 160.772C116.974 161.301 116.131 161.566 115.138 161.566C114.179 161.566 113.335 161.301 112.607 160.772C111.913 160.209 111.45 159.663 111.218 159.134L105.412 142.015C101.74 152.865 99.8714 158.39 99.8053 158.588C99.7391 158.787 99.5902 159.068 99.3587 159.432C99.1271 159.796 98.8625 160.127 98.5648 160.424C97.8039 161.185 96.8942 161.566 95.8356 161.566C94.777 161.566 93.9004 161.318 93.2057 160.821C92.5441 160.325 92.0975 159.829 91.8659 159.333L91.5186 158.588L81.9417 131.049C81.5779 129.957 81.3959 129.147 81.3959 128.617C81.3959 127.294 82.5041 126.252 84.7205 125.491C85.6799 125.16 86.5399 124.995 87.3008 124.995C88.0947 124.995 88.6902 125.26 89.0872 125.789C89.5172 126.318 89.8976 127.129 90.2284 128.22L95.6867 144.794L101.095 128.468C101.559 127.079 102.402 126.12 103.626 125.59C104.155 125.359 104.834 125.243 105.661 125.243C106.521 125.243 107.315 125.524 108.042 126.087C108.77 126.616 109.233 127.145 109.432 127.675L115.138 144.893L120.596 128.22C120.861 127.46 121.076 126.897 121.242 126.533C121.407 126.169 121.705 125.822 122.135 125.491C122.598 125.127 123.16 124.945 123.822 124.945C124.483 124.945 125.261 125.111 126.154 125.442ZM213.577 155.462C214.073 156.653 214.321 157.513 214.321 158.043C214.321 159.3 213.296 160.358 211.245 161.218C210.186 161.681 209.326 161.913 208.664 161.913C208.036 161.913 207.506 161.764 207.076 161.466C206.679 161.136 206.382 160.805 206.183 160.474C205.852 159.845 204.562 156.852 202.313 151.493L200.775 151.592H194.522V157.199C194.522 157.96 194.489 158.539 194.423 158.936C194.39 159.3 194.241 159.73 193.976 160.226C193.513 161.119 192.223 161.566 190.106 161.566C187.79 161.566 186.434 160.954 186.037 159.73C185.839 159.167 185.739 158.307 185.739 157.149V129.61C185.739 128.849 185.756 128.287 185.789 127.923C185.855 127.526 186.021 127.079 186.285 126.583C186.748 125.69 188.038 125.243 190.156 125.243H200.874C203.785 125.243 206.613 126.302 209.359 128.419C210.682 129.444 211.774 130.834 212.634 132.587C213.494 134.34 213.924 136.292 213.924 138.442C213.924 142.18 212.684 145.257 210.202 147.672C210.93 149.425 212.055 152.022 213.577 155.462ZM194.522 142.809H200.874C201.833 142.809 202.792 142.445 203.752 141.717C204.711 140.989 205.191 139.898 205.191 138.442C205.191 136.987 204.711 135.895 203.752 135.167C202.792 134.406 201.8 134.026 200.775 134.026H194.522V142.809ZM225.429 125.193L234.609 125.243C239.406 125.243 243.623 126.98 247.262 130.453C250.901 133.894 252.721 138.145 252.721 143.206C252.721 148.234 250.934 152.551 247.362 156.157C243.822 159.763 239.521 161.566 234.46 161.566H225.38C223.362 161.566 222.105 161.152 221.608 160.325C221.211 159.63 221.013 158.572 221.013 157.149V129.56C221.013 128.766 221.029 128.187 221.063 127.823C221.129 127.46 221.294 127.029 221.559 126.533C222.022 125.64 223.312 125.193 225.429 125.193ZM234.609 152.783C236.991 152.783 239.141 151.906 241.06 150.153C242.978 148.366 243.938 146.134 243.938 143.454C243.938 140.774 242.995 138.542 241.109 136.755C239.257 134.936 237.074 134.026 234.559 134.026H229.796V152.783H234.609ZM268.704 154.271H282.201C283.292 154.271 284.086 154.404 284.582 154.668C285.079 154.9 285.409 155.28 285.575 155.81C285.74 156.339 285.823 157.05 285.823 157.943C285.823 158.803 285.74 159.498 285.575 160.027C285.409 160.557 285.128 160.921 284.731 161.119C284.103 161.45 283.243 161.615 282.151 161.615H264.287C261.972 161.615 260.615 160.987 260.218 159.73C260.02 159.2 259.921 158.357 259.921 157.199V129.61C259.921 128.849 259.937 128.287 259.97 127.923C260.037 127.526 260.202 127.079 260.467 126.583C260.93 125.69 262.22 125.243 264.337 125.243C266.653 125.243 268.025 125.855 268.456 127.079C268.621 127.641 268.704 128.502 268.704 129.659V154.271ZM315.69 125.938C317.311 127.063 318.122 128.154 318.122 129.213C318.122 129.841 317.741 130.718 316.981 131.843L306.262 147.87V157.348C306.262 158.109 306.229 158.688 306.163 159.085C306.13 159.448 305.981 159.879 305.717 160.375C305.452 160.871 305.005 161.218 304.377 161.417C303.748 161.615 302.905 161.714 301.846 161.714C300.788 161.714 299.944 161.615 299.315 161.417C298.687 161.218 298.24 160.871 297.976 160.375C297.711 159.845 297.546 159.399 297.479 159.035C297.446 158.638 297.43 158.043 297.43 157.249V147.87L286.712 131.843C285.951 130.718 285.57 129.841 285.57 129.213C285.57 128.154 286.298 127.145 287.754 126.186C289.209 125.193 290.251 124.697 290.88 124.697C291.508 124.697 292.005 124.83 292.369 125.094C292.931 125.458 293.526 126.136 294.155 127.129L301.846 139.435L309.537 127.129C310.166 126.136 310.712 125.491 311.175 125.193C311.638 124.863 312.167 124.697 312.763 124.697C313.391 124.697 314.367 125.111 315.69 125.938Z" fill="#401F40"/>
<path d="M71.3505 147.125C72.8722 148.151 73.9639 148.895 74.6255 149.358C75.8164 150.252 76.4119 151.112 76.4119 151.939C76.4119 152.733 75.9157 153.857 74.9232 155.313C73.9308 156.768 72.9219 157.496 71.8964 157.496C71.2678 157.496 70.3085 157.05 69.0184 156.156C68.853 156.057 68.3898 155.743 67.629 155.214C66.8681 154.684 66.2727 154.287 65.8426 154.023C62.7661 156.405 59.3092 157.595 55.4718 157.595C50.3444 157.595 46.0108 155.776 42.4712 152.137C38.9646 148.498 37.2113 144.165 37.2113 139.136C37.2113 136.391 37.7076 133.827 38.7 131.445C39.6924 129.03 41.0156 127.012 42.6696 125.391C44.3237 123.771 46.2258 122.497 48.3761 121.571C50.5263 120.644 52.7427 120.181 55.0253 120.181C59.9212 120.181 64.172 121.951 67.7778 125.491C71.3836 129.03 73.1865 133.513 73.1865 138.938C73.1865 141.684 72.5745 144.413 71.3505 147.125ZM45.9943 138.888C45.9943 141.833 46.937 144.231 48.8226 146.083C50.7413 147.903 52.875 148.813 55.2237 148.813C57.5725 148.813 59.6896 147.919 61.5752 146.133C63.4608 144.347 64.4036 141.948 64.4036 138.938C64.4036 135.928 63.4443 133.513 61.5256 131.693C59.64 129.874 57.5228 128.964 55.1741 128.964C52.8254 128.964 50.7082 129.89 48.8226 131.743C46.937 133.562 45.9943 135.944 45.9943 138.888ZM121.98 120.826C124.197 121.62 125.305 122.679 125.305 124.002C125.305 124.432 125.106 125.243 124.709 126.434L115.182 153.973C115.116 154.205 115 154.486 114.835 154.817C114.669 155.147 114.223 155.594 113.495 156.156C112.8 156.686 111.957 156.95 110.964 156.95C110.005 156.95 109.161 156.686 108.434 156.156C107.739 155.594 107.276 155.048 107.044 154.519L101.239 137.4C97.5667 148.25 95.6976 153.775 95.6314 153.973C95.5653 154.172 95.4164 154.453 95.1849 154.817C94.9533 155.181 94.6886 155.511 94.3909 155.809C93.6301 156.57 92.7204 156.95 91.6618 156.95C90.6032 156.95 89.7266 156.702 89.0319 156.206C88.3703 155.71 87.9237 155.214 87.6921 154.717L87.3448 153.973L77.7679 126.434C77.404 125.342 77.2221 124.531 77.2221 124.002C77.2221 122.679 78.3303 121.637 80.5467 120.876C81.506 120.545 82.3661 120.38 83.127 120.38C83.9209 120.38 84.5164 120.644 84.9133 121.174C85.3434 121.703 85.7238 122.513 86.0546 123.605L91.5129 140.179L96.9216 123.853C97.3847 122.464 98.2283 121.505 99.4523 120.975C99.9815 120.744 100.66 120.628 101.487 120.628C102.347 120.628 103.141 120.909 103.869 121.471C104.596 122.001 105.059 122.53 105.258 123.059L110.964 140.278L116.423 123.605C116.687 122.844 116.902 122.282 117.068 121.918C117.233 121.554 117.531 121.207 117.961 120.876C118.424 120.512 118.986 120.33 119.648 120.33C120.31 120.33 121.087 120.496 121.98 120.826ZM209.403 150.847C209.899 152.038 210.147 152.898 210.147 153.427C210.147 154.684 209.122 155.743 207.071 156.603C206.012 157.066 205.152 157.298 204.49 157.298C203.862 157.298 203.333 157.149 202.903 156.851C202.506 156.52 202.208 156.19 202.009 155.859C201.679 155.23 200.388 152.236 198.139 146.877L196.601 146.977H190.348V152.584C190.348 153.345 190.315 153.924 190.249 154.32C190.216 154.684 190.067 155.114 189.803 155.611C189.339 156.504 188.049 156.95 185.932 156.95C183.617 156.95 182.26 156.338 181.863 155.114C181.665 154.552 181.566 153.692 181.566 152.534V124.995C181.566 124.234 181.582 123.671 181.615 123.307C181.681 122.91 181.847 122.464 182.111 121.968C182.575 121.074 183.865 120.628 185.982 120.628H196.7C199.611 120.628 202.439 121.686 205.185 123.804C206.508 124.829 207.6 126.218 208.46 127.972C209.32 129.725 209.75 131.677 209.75 133.827C209.75 137.565 208.51 140.642 206.029 143.057C206.756 144.81 207.881 147.407 209.403 150.847ZM190.348 138.194H196.7C197.659 138.194 198.619 137.83 199.578 137.102C200.537 136.374 201.017 135.283 201.017 133.827C201.017 132.371 200.537 131.28 199.578 130.552C198.619 129.791 197.626 129.411 196.601 129.411H190.348V138.194ZM221.255 120.578L230.435 120.628C235.232 120.628 239.45 122.365 243.089 125.838C246.727 129.278 248.547 133.529 248.547 138.591C248.547 143.619 246.76 147.936 243.188 151.542C239.648 155.147 235.348 156.95 230.286 156.95H221.206C219.188 156.95 217.931 156.537 217.435 155.71C217.038 155.015 216.839 153.957 216.839 152.534V124.945C216.839 124.151 216.856 123.572 216.889 123.208C216.955 122.844 217.12 122.414 217.385 121.918C217.848 121.025 219.138 120.578 221.255 120.578ZM230.435 148.167C232.817 148.167 234.967 147.291 236.886 145.538C238.805 143.751 239.764 141.518 239.764 138.839C239.764 136.159 238.821 133.926 236.936 132.14C235.083 130.32 232.9 129.411 230.386 129.411H225.622V148.167H230.435ZM264.53 149.656H278.027C279.118 149.656 279.912 149.788 280.408 150.053C280.905 150.285 281.236 150.665 281.401 151.194C281.566 151.724 281.649 152.435 281.649 153.328C281.649 154.188 281.566 154.883 281.401 155.412C281.236 155.941 280.954 156.305 280.557 156.504C279.929 156.835 279.069 157 277.977 157H260.114C257.798 157 256.442 156.371 256.045 155.114C255.846 154.585 255.747 153.742 255.747 152.584V124.995C255.747 124.234 255.763 123.671 255.797 123.307C255.863 122.91 256.028 122.464 256.293 121.968C256.756 121.074 258.046 120.628 260.163 120.628C262.479 120.628 263.852 121.24 264.282 122.464C264.447 123.026 264.53 123.886 264.53 125.044V149.656ZM311.517 121.323C313.137 122.447 313.948 123.539 313.948 124.598C313.948 125.226 313.568 126.103 312.807 127.227L302.089 143.255V152.733C302.089 153.493 302.055 154.072 301.989 154.469C301.956 154.833 301.807 155.263 301.543 155.759C301.278 156.256 300.832 156.603 300.203 156.802C299.574 157 298.731 157.099 297.672 157.099C296.614 157.099 295.77 157 295.142 156.802C294.513 156.603 294.067 156.256 293.802 155.759C293.537 155.23 293.372 154.784 293.306 154.42C293.273 154.023 293.256 153.427 293.256 152.633V143.255L282.538 127.227C281.777 126.103 281.397 125.226 281.397 124.598C281.397 123.539 282.124 122.53 283.58 121.571C285.036 120.578 286.078 120.082 286.706 120.082C287.335 120.082 287.831 120.214 288.195 120.479C288.757 120.843 289.353 121.521 289.981 122.513L297.672 134.819L305.364 122.513C305.992 121.521 306.538 120.876 307.001 120.578C307.464 120.247 307.993 120.082 308.589 120.082C309.217 120.082 310.193 120.496 311.517 121.323Z" fill="#FCFAF4"/>
<rect x="144.158" y="132.294" width="38.7315" height="38.7315" rx="19.3657" fill="#FEC880"/>
<rect x="140.422" y="128.999" width="38.7315" height="38.7315" rx="19.3657" fill="#F54160"/>
<rect x="136.689" y="125.701" width="38.7315" height="38.7315" rx="19.3657" fill="#401F40"/>
<rect x="132.951" y="122.405" width="38.7315" height="38.7315" rx="19.3657" fill="#FCFAF4"/>
<path d="M149.714 142L149.745 141.751C149.745 140.861 149.993 140.157 150.49 139.639C151.008 139.121 151.567 138.779 152.167 138.614C152.768 138.448 153.317 138.169 153.814 137.775C154.331 137.382 154.59 136.854 154.59 136.191C154.59 135.508 154.394 134.98 154 134.607C153.627 134.234 153.058 134.048 152.292 134.048C151.525 134.048 150.956 134.172 150.583 134.42C150.231 134.648 150.014 134.886 149.931 135.135L149.838 135.508C149.651 136.046 149.434 136.46 149.185 136.75C148.937 137.019 148.616 137.154 148.223 137.154C147.829 137.154 147.311 137.03 146.669 136.781C145.427 136.305 144.806 135.715 144.806 135.011C144.806 134.7 144.868 134.389 144.992 134.079C145.116 133.747 145.22 133.478 145.303 133.271C145.386 133.043 145.603 132.66 145.955 132.122C146.328 131.583 146.742 131.118 147.198 130.724C147.674 130.31 148.336 129.937 149.185 129.606C150.035 129.254 150.977 129.078 152.012 129.078C154.207 129.078 155.998 129.782 157.386 131.19C158.773 132.598 159.467 134.234 159.467 136.098C159.467 136.988 159.301 137.817 158.97 138.583C158.659 139.328 158.276 139.918 157.821 140.353C156.91 141.223 156.061 141.803 155.274 142.093L154.777 142.248C154.777 142.6 154.756 142.869 154.715 143.056C154.694 143.242 154.601 143.449 154.435 143.677C154.29 143.884 154.031 144.039 153.658 144.143C153.306 144.226 152.83 144.267 152.23 144.267C151.629 144.267 151.142 144.215 150.77 144.112C150.418 144.008 150.169 143.832 150.024 143.584C149.879 143.335 149.786 143.118 149.745 142.931C149.724 142.724 149.714 142.414 149.714 142ZM149.589 147.56C149.755 147.228 150.045 146.99 150.459 146.845C150.894 146.7 151.567 146.628 152.478 146.628C153.389 146.628 154.041 146.835 154.435 147.249C154.849 147.642 155.056 148.419 155.056 149.579C155.056 150.407 154.953 151.028 154.746 151.442C154.538 151.836 154.218 152.105 153.783 152.25C153.368 152.374 152.716 152.436 151.826 152.436C150.935 152.436 150.252 152.219 149.776 151.784C149.424 151.432 149.248 150.831 149.248 149.982V149.485C149.248 149.009 149.258 148.647 149.279 148.398C149.32 148.15 149.424 147.87 149.589 147.56Z" fill="#401F40"/>
</svg>
