<svg width="335" height="423" viewBox="0 0 335 423" fill="none" xmlns="http://www.w3.org/2000/svg">
<path d="M0 42.8894C0 28.2902 10.4899 15.8319 24.9252 13.6501C59.317 8.45203 122.202 0 167.5 0C212.798 0 275.683 8.45203 310.075 13.6501C324.51 15.8319 335 28.2901 335 42.8894V380.148C335 394.731 324.529 407.18 310.112 409.37C275.891 414.57 213.344 423 167.5 423C121.656 423 59.1085 414.57 24.8881 409.37C10.4707 407.18 0 394.731 0 380.148V42.8894Z" fill="#FEC880"/>
<g opacity="0.2">
<mask id="mask0_5638_1138" style="mask-type:alpha" maskUnits="userSpaceOnUse" x="0" y="0" width="335" height="423">
<path d="M0 42.8894C0 28.2902 10.4899 15.8319 24.9252 13.6501C59.317 8.45203 122.202 0 167.5 0C212.798 0 275.683 8.45203 310.075 13.6501C324.51 15.8319 335 28.2901 335 42.8894V380.148C335 394.731 324.529 407.18 310.112 409.37C275.891 414.57 213.344 423 167.5 423C121.656 423 59.1085 414.57 24.8881 409.37C10.4707 407.18 0 394.731 0 380.148V42.8894Z" fill="#401F40"/>
</mask>
<g mask="url(#mask0_5638_1138)">
<rect width="37.3421" height="693.773" transform="matrix(0.920385 -0.391012 0.56064 0.82806 -224 -6.78711)" fill="#5D3D13"/>
<rect width="37.3421" height="693.773" transform="matrix(0.920385 -0.391012 0.56064 0.82806 -149 -6.78711)" fill="#5D3D13"/>
<rect width="37.3421" height="693.773" transform="matrix(0.920385 -0.391012 0.56064 0.82806 -74 -6.78711)" fill="#5D3D13"/>
<rect width="37.3421" height="693.773" transform="matrix(0.920385 -0.391012 0.56064 0.82806 1 -6.78711)" fill="#5D3D13"/>
<rect width="37.3421" height="693.773" transform="matrix(0.920385 -0.391012 0.56064 0.82806 76 -6.78711)" fill="#5D3D13"/>
<rect width="37.3421" height="693.773" transform="matrix(0.920385 -0.391012 0.56064 0.82806 151 -6.78711)" fill="#5D3D13"/>
<rect width="37.3421" height="693.773" transform="matrix(0.920385 -0.391012 0.56064 0.82806 226 -6.78711)" fill="#5D3D13"/>
</g>
</g>
<path d="M4 47.3216C4 32.7242 14.5064 20.2639 28.9403 18.0854C62.6401 12.9992 123.55 4.83984 167.5 4.83984C211.45 4.83984 272.36 12.9992 306.06 18.0854C320.494 20.2639 331 32.7242 331 47.3216V375.716C331 390.297 320.513 402.748 306.097 404.935C272.565 410.023 211.978 418.16 167.5 418.16C123.022 418.16 62.4355 410.023 28.9033 404.935C14.4874 402.748 4 390.297 4 375.716V47.3216Z" fill="#FCFAF4"/>
<path fill-rule="evenodd" clip-rule="evenodd" d="M178.553 184.487C186.27 184.487 193.544 185.162 199.925 186.362V187.446C199.925 196.486 179.371 203.808 154.024 203.808C146.348 203.808 139.115 203.14 132.755 201.953C132.686 201.585 132.652 201.217 132.652 200.849C132.652 191.809 153.199 184.487 178.553 184.487Z" fill="#CEA732"/>
<path fill-rule="evenodd" clip-rule="evenodd" d="M178.553 192.13C185.234 192.13 191.499 192.559 196.892 193.309C190.272 199.452 173.577 203.808 154.025 203.808C150.439 203.808 146.955 203.665 143.608 203.385C142.585 202.581 142.033 201.729 142.033 200.849C142.033 196.036 158.388 192.13 178.553 192.13Z" fill="#CE8829"/>
<path fill-rule="evenodd" clip-rule="evenodd" d="M132.652 200.849C132.652 191.809 153.2 184.487 178.553 184.487C203.907 184.487 224.461 191.809 224.461 200.849V215.881C224.461 224.921 203.907 232.242 178.553 232.242C153.2 232.242 132.652 224.921 132.652 215.881C132.652 210.87 132.652 205.859 132.652 200.849Z" fill="#FE9923"/>
<path fill-rule="evenodd" clip-rule="evenodd" d="M178.553 184.487C203.906 184.487 224.461 191.809 224.461 200.849C224.461 209.882 203.907 217.21 178.553 217.21C153.2 217.21 132.652 209.882 132.652 200.849C132.652 191.809 153.2 184.487 178.553 184.487Z" fill="#FECD3D"/>
<path fill-rule="evenodd" clip-rule="evenodd" d="M178.553 192.13C198.725 192.13 215.073 196.036 215.073 200.849C215.073 205.662 198.725 209.562 178.553 209.562C158.388 209.562 142.033 205.662 142.033 200.849C142.033 196.036 158.388 192.13 178.553 192.13Z" fill="#FEA832"/>
<path d="M212.046 219.064V227.068C213.457 226.529 214.773 225.963 215.973 225.357V219.058L212.046 219.064ZM201.786 229.993C200.518 230.258 199.209 230.504 197.866 230.729V223.101L201.786 223.107V229.993ZM187.606 231.922C186.318 232.017 185.009 232.085 183.686 232.14V224.859L187.606 224.873V231.922ZM173.426 232.14C172.097 232.085 170.788 232.017 169.499 231.922V224.866H173.426V232.14ZM159.239 230.729C157.896 230.504 156.587 230.258 155.32 229.992V223.1L159.239 223.107V230.729ZM145.06 227.068C143.648 226.529 142.333 225.964 141.133 225.357V219.065L145.06 219.058V227.068Z" fill="#C85929"/>
<path fill-rule="evenodd" clip-rule="evenodd" d="M154.025 152.119C179.371 152.119 199.926 159.448 199.926 168.487C199.926 169.374 199.728 170.246 199.339 171.098C194.492 171.651 189.325 171.944 183.96 171.944C155.975 171.944 133.287 163.859 133.287 153.885C139.511 152.76 146.56 152.119 154.025 152.119Z" fill="#CEA732"/>
<path fill-rule="evenodd" clip-rule="evenodd" d="M154.024 159.769C174.189 159.769 190.544 163.675 190.544 168.488C190.544 169.694 189.508 170.853 187.633 171.896C186.42 171.931 185.192 171.944 183.959 171.944C162.805 171.944 144.684 167.329 137.09 160.764C142.155 160.13 147.909 159.769 154.024 159.769Z" fill="#CE8829"/>
<path fill-rule="evenodd" clip-rule="evenodd" d="M108.117 168.487C108.117 159.448 128.671 152.119 154.025 152.119C179.371 152.119 199.925 159.448 199.925 168.487V183.52C199.925 192.552 179.371 199.881 154.025 199.881C128.671 199.881 108.117 192.552 108.117 183.52C108.117 178.509 108.117 173.498 108.117 168.487Z" fill="#FE9923"/>
<path fill-rule="evenodd" clip-rule="evenodd" d="M154.025 152.119C179.371 152.119 199.925 159.448 199.925 168.487C199.925 177.52 179.371 184.849 154.025 184.849C128.671 184.849 108.117 177.52 108.117 168.487C108.117 159.448 128.671 152.119 154.025 152.119Z" fill="#FECD3D"/>
<path fill-rule="evenodd" clip-rule="evenodd" d="M154.024 159.769C174.189 159.769 190.544 163.675 190.544 168.488C190.544 173.301 174.189 177.2 154.024 177.2C133.852 177.2 117.504 173.301 117.504 168.488C117.504 163.675 133.852 159.769 154.024 159.769Z" fill="#FEA832"/>
<path d="M187.518 186.703V194.707C188.929 194.168 190.245 193.595 191.444 192.995V186.696L187.518 186.703ZM177.258 197.631C175.99 197.897 174.681 198.142 173.338 198.367V190.739L177.258 190.746V197.631ZM163.071 199.56C161.783 199.656 160.48 199.724 159.151 199.779V192.498L163.071 192.505V199.56ZM148.891 199.778C147.568 199.724 146.259 199.656 144.964 199.56V192.505L148.891 192.498V199.778ZM134.704 198.367C133.361 198.142 132.059 197.897 130.784 197.631V190.739L134.704 190.746V198.367ZM120.531 194.707C119.113 194.168 117.804 193.595 116.598 192.995V186.703L120.531 186.696V194.707Z" fill="#C85929"/>
<path d="M224.366 171.058V174.582H227.884V177.95H224.366V181.468H220.998V177.95H217.48V174.582H220.998V171.058H224.366Z" fill="#FEA832"/>
<path d="M118.8 206.808V210.325H122.318V213.693H118.8V217.211H115.433V213.693H111.908V210.325H115.433V206.808H118.8Z" fill="#FEA832"/>
<path d="M118.8 133.215V136.733H122.318V140.1H118.8V143.625H115.433V140.1H111.908V136.733H115.433V133.215H118.8Z" fill="#FEA832"/>
<path fill-rule="evenodd" clip-rule="evenodd" d="M132.652 136.119C132.652 127.086 153.2 119.758 178.553 119.758C203.907 119.758 224.461 127.086 224.461 136.119V151.158C224.461 160.191 203.907 167.52 178.553 167.52C153.2 167.52 132.652 160.191 132.652 151.158C132.652 146.148 132.652 141.13 132.652 136.119Z" fill="#FE9923"/>
<path fill-rule="evenodd" clip-rule="evenodd" d="M178.553 119.758C203.906 119.758 224.461 127.086 224.461 136.119C224.461 145.159 203.907 152.488 178.553 152.488C153.2 152.488 132.652 145.159 132.652 136.119C132.652 127.086 153.2 119.758 178.553 119.758Z" fill="#FECD3D"/>
<path fill-rule="evenodd" clip-rule="evenodd" d="M178.553 127.407C198.725 127.407 215.073 131.307 215.073 136.12C215.073 140.94 198.725 144.839 178.553 144.839C158.388 144.839 142.033 140.939 142.033 136.12C142.033 131.307 158.388 127.407 178.553 127.407Z" fill="#FEA832"/>
<path d="M212.046 154.342V162.345C213.457 161.807 214.773 161.234 215.973 160.634V154.335L212.046 154.342ZM201.786 165.27C200.518 165.536 199.209 165.781 197.866 165.999V158.377L201.786 158.384V165.27ZM187.606 167.199C186.318 167.288 185.009 167.363 183.686 167.417V160.136L187.606 160.143V167.199ZM173.426 167.417C172.097 167.363 170.788 167.288 169.499 167.199V160.143L173.426 160.136V167.417ZM159.239 165.999C157.896 165.781 156.587 165.536 155.32 165.27V158.377L159.239 158.384V165.999ZM145.06 162.345C143.648 161.807 142.333 161.234 141.133 160.634V154.342L145.06 154.335V162.345Z" fill="#C85929"/>
<path fill-rule="evenodd" clip-rule="evenodd" d="M154.625 254.696H161.696V247.625C161.696 246.98 162.223 246.453 162.868 246.453H165.132C165.777 246.453 166.304 246.98 166.304 247.625V254.696H173.375C174.02 254.696 174.547 255.223 174.547 255.868V258.132C174.547 258.777 174.02 259.304 173.375 259.304H166.304V266.375C166.304 267.02 165.777 267.547 165.132 267.547H162.868C162.223 267.547 161.696 267.02 161.696 266.375V259.304H154.625C153.98 259.304 153.453 258.777 153.453 258.132V255.868C153.453 255.222 153.98 254.696 154.625 254.696V254.696Z" fill="url(#paint0_linear_5638_1138)"/>
<path d="M187.637 252.102C187.256 252.102 186.849 252.189 186.415 252.362C185.999 252.518 185.696 252.83 185.505 253.298C185.453 253.437 185.41 253.523 185.375 253.558C185.341 253.593 185.228 253.61 185.037 253.61C184.032 253.61 183.304 253.428 182.853 253.064C182.403 252.7 182.177 252.215 182.177 251.608C182.177 251.105 182.325 250.646 182.619 250.23C182.931 249.814 183.347 249.459 183.867 249.164C184.405 248.869 185.029 248.644 185.739 248.488C186.467 248.332 187.256 248.254 188.105 248.254C189.215 248.254 190.133 248.393 190.861 248.67C191.589 248.93 192.161 249.277 192.577 249.71C193.011 250.126 193.305 250.611 193.461 251.166C193.635 251.721 193.721 252.284 193.721 252.856C193.721 253.723 193.539 254.494 193.175 255.17C192.829 255.829 192.213 256.435 191.329 256.99C192.109 257.371 192.69 257.839 193.071 258.394C193.47 258.949 193.669 259.642 193.669 260.474C193.669 261.185 193.522 261.939 193.227 262.736C192.933 263.533 192.456 264.27 191.797 264.946C191.139 265.605 190.272 266.159 189.197 266.61C188.14 267.043 186.84 267.26 185.297 267.26C184.413 267.26 183.659 267.173 183.035 267C182.411 266.844 181.9 266.627 181.501 266.35C181.12 266.073 180.843 265.743 180.669 265.362C180.496 264.981 180.409 264.573 180.409 264.14C180.409 263.308 180.687 262.693 181.241 262.294C181.813 261.895 182.585 261.696 183.555 261.696C183.798 261.696 183.928 261.713 183.945 261.748C183.98 261.783 184.015 261.869 184.049 262.008C184.119 262.268 184.231 262.476 184.387 262.632C184.543 262.788 184.717 262.909 184.907 262.996C185.115 263.083 185.323 263.143 185.531 263.178C185.739 263.195 185.93 263.204 186.103 263.204C186.658 263.204 187.109 263.109 187.455 262.918C187.819 262.727 188.097 262.502 188.287 262.242C188.495 261.982 188.634 261.705 188.703 261.41C188.79 261.115 188.833 260.864 188.833 260.656C188.833 260.101 188.651 259.694 188.287 259.434C187.941 259.157 187.568 259.009 187.169 258.992L183.451 258.836C183.174 258.836 183.035 258.715 183.035 258.472L183.113 257.744C183.165 257.207 183.321 256.791 183.581 256.496C183.841 256.201 184.353 256.037 185.115 256.002L187.455 255.898C188.027 255.863 188.478 255.673 188.807 255.326C189.154 254.962 189.327 254.451 189.327 253.792C189.327 252.665 188.764 252.102 187.637 252.102Z" fill="url(#paint1_linear_5638_1138)"/>
<g clip-path="url(#clip0_5638_1138)">
<rect x="18" y="290" width="299" height="86" rx="20" fill="#E2DCC7"/>
<g opacity="0.2">
<path d="M69.5469 284.034L140.438 228.421C144.644 225.122 150.739 228.554 150.098 233.861L142.108 300.023C141.467 305.329 147.562 308.762 151.768 305.463L190.691 274.929C194.896 271.629 200.992 275.062 200.351 280.369L191.473 353.872C190.833 359.179 196.928 362.612 201.134 359.312L259.453 313.562C263.658 310.263 269.754 313.695 269.113 319.002L254.128 443.073" stroke="white" stroke-width="16"/>
<path d="M-37.709 310.667L33.1826 255.054C37.3883 251.754 43.4835 255.187 42.8426 260.494L34.8521 326.655C34.2112 331.962 40.3065 335.395 44.5122 332.096L83.4348 301.561C87.6405 298.262 93.7357 301.695 93.0948 307.002L84.2176 380.505C83.5767 385.812 89.6719 389.245 93.8776 385.945L152.197 340.195C156.403 336.896 162.498 340.328 161.857 345.635L146.873 469.706" stroke="white" stroke-width="16"/>
<path d="M117.832 217.224L188.724 161.61C192.929 158.311 199.025 161.744 198.384 167.051L190.393 233.212C189.752 238.519 195.847 241.951 200.053 238.652L238.976 208.118C243.181 204.819 249.277 208.251 248.636 213.558L239.759 287.062C239.118 292.369 245.213 295.801 249.419 292.502L307.738 246.752C311.944 243.452 318.039 246.885 317.398 252.192L302.414 376.262" stroke="white" stroke-width="16"/>
</g>
<g clip-path="url(#clip1_5638_1138)">
<path d="M149 317.562L142.5 327.312H127.875H123.812H105.125L98.625 317.562H104.312H121.375H126.25H143.312H149Z" fill="#1E1613"/>
<path d="M142.5 327.312H105.125L98.625 333.812H118.125V331.375C118.126 330.944 118.298 330.532 118.602 330.227C118.907 329.923 119.319 329.751 119.75 329.75H127.875C128.306 329.751 128.718 329.923 129.023 330.227C129.327 330.532 129.499 330.944 129.5 331.375V333.812H149L142.5 327.312Z" fill="#1E1613"/>
<path d="M134.375 333.812H129.5V331.375C129.499 330.944 129.327 330.532 129.023 330.227C128.718 329.923 128.306 329.751 127.875 329.75H119.75C119.319 329.751 118.907 329.923 118.602 330.227C118.298 330.532 118.126 330.944 118.125 331.375V333.812H108.375C108.238 333.81 108.101 333.791 107.969 333.756C107.836 333.791 107.7 333.81 107.562 333.812H104.312C103.882 333.812 103.468 333.641 103.163 333.337C102.859 333.032 102.688 332.618 102.688 332.188C102.688 331.757 102.859 331.343 103.163 331.038C103.468 330.734 103.882 330.562 104.312 330.562H105.938C105.507 330.562 105.093 330.391 104.788 330.087C104.484 329.782 104.312 329.368 104.312 328.938C104.312 328.507 104.484 328.093 104.788 327.788C105.093 327.484 105.507 327.312 105.938 327.312H110C109.569 327.312 109.156 327.141 108.851 326.837C108.546 326.532 108.375 326.118 108.375 325.688C108.375 325.257 108.546 324.843 108.851 324.538C109.156 324.234 109.569 324.062 110 324.062H111.625C111.194 324.062 110.781 323.891 110.476 323.587C110.171 323.282 110 322.868 110 322.438C110 322.007 110.171 321.593 110.476 321.288C110.781 320.984 111.194 320.812 111.625 320.812H114.875C115.306 320.812 115.719 320.984 116.024 321.288C116.329 321.593 116.5 322.007 116.5 322.438C116.5 322.868 116.329 323.282 116.024 323.587C115.719 323.891 115.306 324.062 114.875 324.062H116.5C116.824 324.064 117.14 324.16 117.41 324.339C117.52 324.021 117.726 323.745 118 323.55C118.274 323.355 118.601 323.25 118.938 323.25H120.562C120.132 323.25 119.718 323.079 119.413 322.774C119.109 322.469 118.938 322.056 118.938 321.625C118.938 321.194 119.109 320.781 119.413 320.476C119.718 320.171 120.132 320 120.562 320H123.812C124.243 320 124.657 320.171 124.962 320.476C125.266 320.781 125.438 321.194 125.438 321.625C125.438 322.056 125.266 322.469 124.962 322.774C124.657 323.079 124.243 323.25 123.812 323.25H130.312C130.743 323.251 131.156 323.423 131.46 323.727C131.765 324.032 131.936 324.444 131.938 324.875H132.165C132.305 324.628 132.508 324.422 132.754 324.279C132.999 324.136 133.278 324.062 133.562 324.062H140.062C140.493 324.062 140.907 324.234 141.212 324.538C141.516 324.843 141.688 325.257 141.688 325.688C141.688 326.118 141.516 326.532 141.212 326.837C140.907 327.141 140.493 327.312 140.062 327.312H144.938C145.368 327.312 145.782 327.484 146.087 327.788C146.391 328.093 146.562 328.507 146.562 328.938C146.562 329.368 146.391 329.782 146.087 330.087C145.782 330.391 145.368 330.562 144.938 330.562C145.368 330.562 145.782 330.734 146.087 331.038C146.391 331.343 146.562 331.757 146.562 332.188C146.562 332.618 146.391 333.032 146.087 333.337C145.782 333.641 145.368 333.812 144.938 333.812H134.375Z" fill="#FFC052"/>
<path d="M143.109 346L143.451 341.946L143.784 337.875L144.125 333.812H149L147.001 353.8C146.879 355.002 146.316 356.116 145.42 356.926C144.524 357.737 143.359 358.186 142.151 358.188H105.474C104.266 358.186 103.101 357.737 102.205 356.926C101.309 356.116 100.746 355.002 100.624 353.8L98.625 333.812H103.5L103.841 337.875L104.109 341.141L104.646 347.568L104.938 351.078C104.989 351.687 105.267 352.255 105.717 352.669C106.167 353.083 106.756 353.313 107.368 353.312H140.257C140.869 353.313 141.458 353.083 141.908 352.669C142.358 352.255 142.636 351.687 142.687 351.078L142.768 350.087L143.109 346Z" fill="#5B5A61"/>
<path d="M143.109 315.125C142.581 312.119 141.078 310.989 140.111 310.551C139.887 310.452 139.692 310.299 139.544 310.104C139.396 309.909 139.301 309.68 139.266 309.438C139.257 309.373 139.251 309.308 139.25 309.242C139.251 308.863 139.402 308.5 139.67 308.232C139.938 307.964 140.301 307.813 140.68 307.812H140.875C141.974 307.821 143.058 308.071 144.049 308.546C145.041 309.021 145.915 309.708 146.611 310.559C148.218 312.533 149.066 315.018 149 317.562H143.312C143.319 316.746 143.251 315.93 143.109 315.125Z" fill="#A8A5B3"/>
<path d="M144.125 333.812L143.784 337.875H129.5V333.812H134.375H138.438H140.875H144.125Z" fill="#C0BABA"/>
<path d="M143.312 317.562H126.25V312.688C129.5 312.688 134.375 312.688 137.528 312.696C137.832 312.677 138.138 312.696 138.438 312.752C138.722 312.826 138.966 313.004 138.941 313.199C138.925 313.338 138.779 313.459 138.624 313.557C138.08 313.914 137.341 314.117 136.747 314.442C136.626 314.507 136.496 314.605 136.552 314.711C136.61 314.769 136.683 314.809 136.764 314.824C137.252 314.949 137.755 315.012 138.259 315.011C140.501 315.109 140.859 315.125 143.109 315.125C143.251 315.93 143.319 316.746 143.312 317.562Z" fill="#D69250"/>
<path d="M140.111 310.551C141.078 310.989 142.581 312.119 143.109 315.125C140.859 315.125 140.501 315.109 138.259 315.011C137.755 315.012 137.252 314.949 136.764 314.824C136.683 314.809 136.61 314.769 136.552 314.711C136.496 314.605 136.626 314.507 136.747 314.443C137.341 314.117 138.08 313.914 138.624 313.557C138.779 313.459 138.925 313.338 138.941 313.199C138.966 313.004 138.722 312.826 138.438 312.753C138.138 312.696 137.832 312.677 137.528 312.696C134.375 312.688 129.5 312.688 126.25 312.688V309.438H139.266C139.301 309.68 139.396 309.909 139.544 310.104C139.692 310.299 139.887 310.452 140.111 310.551Z" fill="#9B6244"/>
<path d="M129.5 337.875V339.5C129.499 339.931 129.327 340.343 129.023 340.648C128.718 340.952 128.306 341.124 127.875 341.125H119.75C119.319 341.124 118.907 340.952 118.602 340.648C118.298 340.343 118.126 339.931 118.125 339.5V331.375C118.126 330.944 118.298 330.532 118.602 330.227C118.907 329.923 119.319 329.751 119.75 329.75H127.875C128.306 329.751 128.718 329.923 129.023 330.227C129.327 330.532 129.499 330.944 129.5 331.375V337.875ZM127.062 338.688V332.188H120.562V338.688H127.062Z" fill="#545359"/>
<path d="M120.562 332.188H127.062V338.688H120.562V332.188Z" fill="#443A38"/>
<path d="M121.375 311.875V309.438H126.25V312.688V317.562H121.375V311.875Z" fill="#C0BABA"/>
<path d="M121.375 311.875V317.563H104.313C104.307 316.746 104.375 315.93 104.516 315.125C106.856 315.125 108.749 315.101 110.992 314.979C111.5 314.974 112.005 314.889 112.487 314.727C112.573 314.697 112.647 314.64 112.698 314.565C112.755 314.435 112.625 314.305 112.503 314.215C111.91 313.777 111.17 313.509 110.626 313.037C110.463 312.924 110.35 312.752 110.309 312.558C110.318 312.417 110.372 312.283 110.463 312.175C110.553 312.067 110.676 311.99 110.813 311.957C111.11 311.883 111.418 311.858 111.723 311.884C114.615 311.875 118.28 311.875 121.375 311.875Z" fill="#9B6244"/>
<path d="M121.375 309.438V311.875C118.279 311.875 114.615 311.875 111.723 311.883C111.417 311.858 111.11 311.883 110.812 311.956C110.675 311.99 110.553 312.066 110.462 312.174C110.372 312.283 110.318 312.417 110.309 312.558C110.349 312.752 110.463 312.923 110.626 313.037C111.17 313.508 111.909 313.776 112.503 314.215C112.624 314.304 112.754 314.434 112.698 314.564C112.646 314.64 112.572 314.697 112.486 314.727C112.004 314.889 111.5 314.974 110.991 314.979C108.749 315.101 106.856 315.125 104.516 315.125C105.044 312.119 106.547 310.989 107.514 310.551C107.738 310.452 107.933 310.299 108.081 310.104C108.229 309.909 108.324 309.68 108.359 309.438H121.375Z" fill="#D69250"/>
<path d="M118.125 333.812V337.875H103.841L103.5 333.812H104.312H107.562H108.375H114.875H118.125Z" fill="#C0BABA"/>
<path d="M143.784 337.875L143.451 341.946L143.313 341.938C139.72 341.937 136.135 342.272 132.604 342.937C132.492 342.943 132.382 342.972 132.281 343.022C132.181 343.073 132.091 343.143 132.019 343.229C131.945 343.415 131.922 343.617 131.954 343.814C131.917 344.306 131.765 344.783 131.509 345.205C131.254 345.627 130.902 345.983 130.484 346.244C128.676 347.413 126.602 348.109 124.455 348.267C122.314 348.412 120.192 348.76 118.117 349.307C116.078 349.973 114.022 351.314 113.251 353.312H107.368C106.757 353.313 106.168 353.083 105.718 352.669C105.268 352.255 104.99 351.687 104.939 351.078L104.646 347.568C108.064 347.069 111.418 346.2 114.648 344.976C115.266 344.765 115.843 344.449 116.354 344.042C116.421 343.997 116.469 343.931 116.492 343.855C116.533 343.684 116.346 343.554 116.192 343.481C112.519 341.775 108.124 342.49 104.313 341.125L104.11 341.141L103.842 337.875H118.126V339.5C118.127 339.931 118.298 340.343 118.603 340.648C118.907 340.952 119.32 341.124 119.751 341.125H127.876C128.306 341.124 128.719 340.952 129.023 340.648C129.328 340.343 129.499 339.931 129.501 339.5V337.875H143.784Z" fill="#D69250"/>
<path d="M143.451 341.946L143.109 346C139.996 345.889 136.906 346.574 134.131 347.991C134.123 347.999 134.107 348.007 134.099 348.015C133.908 348.11 133.754 348.266 133.66 348.458C133.567 348.65 133.54 348.868 133.584 349.076C133.628 349.285 133.739 349.474 133.902 349.613C134.064 349.751 134.267 349.832 134.481 349.843H134.497C137.365 350.063 139.599 350.063 142.467 350.063L142.768 350.087L142.687 351.078C142.636 351.687 142.358 352.255 141.908 352.669C141.458 353.083 140.869 353.313 140.258 353.313H113.25C114.022 351.314 116.077 349.973 118.117 349.307C120.192 348.76 122.314 348.412 124.454 348.267C126.602 348.109 128.675 347.413 130.483 346.244C130.902 345.983 131.253 345.627 131.509 345.205C131.764 344.783 131.917 344.306 131.954 343.814C131.922 343.617 131.944 343.415 132.019 343.229C132.091 343.143 132.18 343.073 132.281 343.022C132.381 342.972 132.491 342.943 132.604 342.937C136.135 342.272 139.72 341.937 143.312 341.938L143.451 341.946Z" fill="#9B6244"/>
<path d="M143.108 346L142.767 350.087L142.466 350.062C139.598 350.062 137.364 350.062 134.496 349.843H134.479C134.266 349.832 134.063 349.751 133.9 349.613C133.738 349.474 133.627 349.285 133.583 349.076C133.539 348.867 133.566 348.65 133.659 348.458C133.752 348.266 133.906 348.11 134.098 348.015C134.106 348.007 134.122 347.999 134.13 347.991C136.905 346.574 139.995 345.889 143.108 346Z" fill="#D69250"/>
<path d="M116.191 343.481C116.346 343.554 116.533 343.684 116.492 343.855C116.469 343.931 116.42 343.997 116.354 344.042C115.843 344.449 115.265 344.765 114.647 344.976C111.417 346.2 108.064 347.069 104.646 347.568L104.109 341.141L104.312 341.125C108.123 342.49 112.519 341.775 116.191 343.481Z" fill="#9B6244"/>
<path d="M104.515 315.125C104.374 315.93 104.306 316.746 104.312 317.562H98.6247C98.5589 315.018 99.4063 312.533 101.013 310.559C101.709 309.708 102.584 309.021 103.575 308.546C104.567 308.071 105.651 307.821 106.75 307.812H106.945C107.324 307.813 107.687 307.964 107.955 308.232C108.223 308.5 108.374 308.863 108.375 309.242C108.373 309.308 108.368 309.373 108.358 309.438C108.324 309.68 108.228 309.909 108.08 310.104C107.933 310.299 107.737 310.452 107.513 310.551C106.547 310.989 105.043 312.119 104.515 315.125Z" fill="#A8A5B3"/>
<path d="M144.938 330.562C145.368 330.562 145.782 330.391 146.087 330.087C146.391 329.782 146.562 329.368 146.562 328.938C146.562 328.507 146.391 328.093 146.087 327.788C145.782 327.484 145.368 327.312 144.938 327.312H140.062C140.493 327.312 140.907 327.141 141.212 326.837C141.516 326.532 141.688 326.118 141.688 325.688C141.688 325.257 141.516 324.843 141.212 324.538C140.907 324.234 140.493 324.062 140.062 324.062H133.562C133.278 324.062 132.999 324.136 132.754 324.279C132.508 324.422 132.305 324.628 132.165 324.875H131.938C131.936 324.444 131.765 324.032 131.46 323.727C131.156 323.423 130.743 323.251 130.312 323.25H123.812C124.243 323.25 124.657 323.079 124.962 322.774C125.266 322.469 125.438 322.056 125.438 321.625C125.438 321.194 125.266 320.781 124.962 320.476C124.657 320.171 124.243 320 123.812 320H120.562C120.132 320 119.718 320.171 119.413 320.476C119.109 320.781 118.938 321.194 118.938 321.625C118.938 322.056 119.109 322.469 119.413 322.774C119.718 323.079 120.132 323.25 120.562 323.25H118.938C118.601 323.25 118.274 323.355 118 323.55C117.726 323.745 117.52 324.021 117.41 324.339C117.14 324.16 116.824 324.064 116.5 324.062H114.875C115.306 324.062 115.719 323.891 116.024 323.587C116.329 323.282 116.5 322.868 116.5 322.438C116.5 322.007 116.329 321.593 116.024 321.288C115.719 320.984 115.306 320.812 114.875 320.812H111.625C111.194 320.812 110.781 320.984 110.476 321.288C110.171 321.593 110 322.007 110 322.438C110 322.868 110.171 323.282 110.476 323.587C110.781 323.891 111.194 324.062 111.625 324.062H110C109.569 324.062 109.156 324.234 108.851 324.538C108.546 324.843 108.375 325.257 108.375 325.688C108.375 326.118 108.546 326.532 108.851 326.837C109.156 327.141 109.569 327.312 110 327.312H105.938C105.507 327.312 105.093 327.484 104.788 327.788C104.484 328.093 104.312 328.507 104.312 328.938C104.312 329.368 104.484 329.782 104.788 330.087C105.093 330.391 105.507 330.562 105.938 330.562H104.312C103.882 330.562 103.468 330.734 103.163 331.038C102.859 331.343 102.688 331.757 102.688 332.188C102.688 332.618 102.859 333.032 103.163 333.337C103.468 333.641 103.882 333.812 104.312 333.812H104.539C104.393 333.567 104.314 333.286 104.312 333C104.314 332.569 104.485 332.157 104.79 331.852C105.094 331.548 105.507 331.376 105.938 331.375H110C109.569 331.375 109.156 331.204 108.851 330.899C108.546 330.594 108.375 330.181 108.375 329.75C108.375 329.319 108.546 328.906 108.851 328.601C109.156 328.296 109.569 328.125 110 328.125H111.625C111.194 328.125 110.781 327.954 110.476 327.649C110.171 327.344 110 326.931 110 326.5C110 326.069 110.171 325.656 110.476 325.351C110.781 325.046 111.194 324.875 111.625 324.875H114.875C115.306 324.875 115.719 325.046 116.024 325.351C116.329 325.656 116.5 326.069 116.5 326.5C116.5 326.931 116.329 327.344 116.024 327.649C115.719 327.954 115.306 328.125 114.875 328.125H116.5C116.824 328.127 117.14 328.223 117.41 328.401C117.52 328.084 117.726 327.808 118 327.613C118.274 327.418 118.601 327.313 118.938 327.312H120.562C120.132 327.312 119.718 327.141 119.413 326.837C119.109 326.532 118.938 326.118 118.938 325.688C118.938 325.257 119.109 324.843 119.413 324.538C119.718 324.234 120.132 324.062 120.562 324.062H123.812C124.243 324.062 124.657 324.234 124.962 324.538C125.266 324.843 125.438 325.257 125.438 325.688C125.438 326.118 125.266 326.532 124.962 326.837C124.657 327.141 124.243 327.312 123.812 327.312H130.312C130.743 327.314 131.156 327.485 131.46 327.79C131.765 328.094 131.936 328.507 131.938 328.938H132.165C132.305 328.69 132.508 328.484 132.754 328.342C132.999 328.199 133.278 328.124 133.562 328.125H140.062C140.493 328.125 140.907 328.296 141.212 328.601C141.516 328.906 141.688 329.319 141.688 329.75C141.688 330.181 141.516 330.594 141.212 330.899C140.907 331.204 140.493 331.375 140.062 331.375H144.938C145.297 331.376 145.645 331.497 145.929 331.717C146.212 331.938 146.415 332.246 146.505 332.594C146.541 332.461 146.561 332.325 146.562 332.188C146.561 331.757 146.39 331.344 146.085 331.04C145.781 330.735 145.368 330.564 144.938 330.562Z" fill="#FFDF75"/>
<path d="M119.75 339.5H127.875V331.375H119.75V339.5ZM120.562 332.188H127.062V338.688H120.562V332.188Z" fill="#323236"/>
<path d="M131.125 334.625V333.812H129.5V337.875H143.784L143.92 336.25H132.75C132.319 336.25 131.906 336.079 131.601 335.774C131.296 335.469 131.125 335.056 131.125 334.625Z" fill="#7D7B85"/>
<path d="M114.875 336.25H103.705L103.842 337.875H118.125V333.812H116.5V334.625C116.5 335.056 116.329 335.469 116.024 335.774C115.72 336.079 115.306 336.25 114.875 336.25Z" fill="#7D7B85"/>
<path d="M102.061 337.673L103.19 351.212C103.274 352.228 103.737 353.174 104.487 353.864C105.237 354.554 106.219 354.937 107.238 354.938H140.388C141.407 354.938 142.389 354.555 143.138 353.865C143.888 353.174 144.352 352.228 144.436 351.212L145.565 337.673C145.615 337.064 145.893 336.496 146.343 336.082C146.793 335.668 147.381 335.438 147.993 335.438H148.837L149 333.812H144.125L143.784 337.875L143.451 341.946L143.109 346L142.768 350.087L142.687 351.078C142.636 351.687 142.358 352.255 141.908 352.669C141.458 353.083 140.869 353.313 140.257 353.312H107.368C106.756 353.313 106.167 353.083 105.717 352.669C105.267 352.255 104.989 351.687 104.938 351.078L104.646 347.568L104.109 341.141L103.841 337.875L103.5 333.812H98.625L98.7875 335.438H99.6325C100.244 335.438 100.833 335.667 101.283 336.082C101.732 336.496 102.01 337.063 102.061 337.673Z" fill="#3C3B40"/>
<path d="M106.079 341.612L105.938 339.5H118.126V337.875H103.842L104.11 341.141L104.313 341.125C104.89 341.327 105.48 341.49 106.079 341.612Z" fill="#BD722A"/>
<path d="M108.271 351.687C107.858 351.688 107.461 351.532 107.159 351.25C106.857 350.968 106.674 350.582 106.646 350.17L106.45 347.245C105.846 347.358 105.239 347.473 104.643 347.57L104.935 351.08C104.987 351.69 105.266 352.257 105.716 352.671C106.167 353.084 106.757 353.313 107.369 353.312H113.251C113.492 352.713 113.84 352.162 114.278 351.687H108.271Z" fill="#BD722A"/>
<path d="M119.75 342.75H127.875C128.306 342.75 128.719 342.579 129.024 342.274C129.329 341.969 129.5 341.556 129.5 341.125V339.5C129.499 339.931 129.327 340.343 129.023 340.648C128.718 340.952 128.306 341.124 127.875 341.125H119.75C119.319 341.124 118.907 340.952 118.602 340.648C118.298 340.343 118.126 339.931 118.125 339.5V341.125C118.125 341.556 118.296 341.969 118.601 342.274C118.906 342.579 119.319 342.75 119.75 342.75Z" fill="#BD722A"/>
<path d="M129.5 337.875V339.5H141.687L141.525 341.979C142.119 341.96 142.715 341.937 143.312 341.937L143.451 341.946L143.784 337.875H129.5Z" fill="#BD722A"/>
<path d="M140.983 350.062L140.976 350.172C140.948 350.584 140.765 350.97 140.463 351.252C140.161 351.534 139.764 351.69 139.351 351.689H114.277C113.839 352.164 113.491 352.714 113.25 353.312H140.258C140.869 353.313 141.458 353.083 141.908 352.669C142.358 352.255 142.636 351.687 142.687 351.078L142.768 350.087L142.467 350.062H140.983Z" fill="#734832"/>
<path d="M141.525 341.979L141.252 346.07C141.859 346.029 142.476 346.003 143.112 346L143.453 341.946L143.312 341.938C142.715 341.938 142.119 341.96 141.525 341.979Z" fill="#734832"/>
<path d="M140.982 350.062H142.467L142.767 350.087L143.109 346C142.473 346 141.856 346.029 141.249 346.07L140.982 350.062Z" fill="#BD722A"/>
<path d="M106.078 341.612C105.479 341.49 104.889 341.327 104.313 341.125L104.109 341.141L104.646 347.568C105.242 347.472 105.849 347.357 106.453 347.243L106.078 341.612Z" fill="#734832"/>
<path d="M141.449 315.118C141.614 315.922 141.694 316.742 141.687 317.563H143.312C143.319 316.746 143.251 315.93 143.109 315.125C142.407 315.125 141.897 315.125 141.449 315.118Z" fill="#BD722A"/>
<path d="M138.662 311.297C139.603 311.668 140.919 312.635 141.449 315.115C141.897 315.125 142.407 315.125 143.109 315.125C142.581 312.119 141.078 310.989 140.111 310.551C139.887 310.452 139.692 310.299 139.544 310.104C139.396 309.909 139.301 309.68 139.266 309.438H137.625V309.784C137.626 310.112 137.725 310.431 137.91 310.701C138.095 310.97 138.357 311.178 138.662 311.297Z" fill="#734832"/>
<path d="M104.516 315.125C104.375 315.929 104.307 316.745 104.313 317.562H105.938C105.931 316.742 106.011 315.923 106.176 315.119C105.641 315.125 105.093 315.125 104.516 315.125Z" fill="#734832"/>
<path d="M108.963 311.297C109.268 311.178 109.53 310.97 109.715 310.701C109.9 310.431 109.999 310.112 110 309.784V309.438H108.359C108.324 309.68 108.229 309.909 108.081 310.104C107.933 310.299 107.738 310.452 107.514 310.551C106.547 310.989 105.044 312.119 104.516 315.125C105.092 315.125 105.641 315.125 106.176 315.119C106.706 312.636 108.022 311.668 108.963 311.297Z" fill="#BD722A"/>
<path d="M146.562 315.938C146.132 315.938 145.718 315.766 145.413 315.462C145.109 315.157 144.938 314.744 144.938 314.313C144.938 313.02 144.424 311.78 143.51 310.865C142.595 309.951 141.355 309.438 140.062 309.438C139.893 309.437 139.729 309.382 139.592 309.283C139.456 309.183 139.354 309.043 139.302 308.882C139.269 308.999 139.252 309.121 139.25 309.243C139.251 309.308 139.257 309.373 139.266 309.438C139.301 309.68 139.396 309.909 139.544 310.104C139.692 310.299 139.887 310.453 140.111 310.551C141.078 310.989 142.581 312.119 143.109 315.125C143.251 315.93 143.319 316.746 143.312 317.563H149C148.998 317.019 148.96 316.476 148.887 315.938H146.562Z" fill="#7D7B85"/>
<path d="M107.562 309.438C106.27 309.438 105.03 309.951 104.115 310.865C103.201 311.78 102.688 313.02 102.688 314.313C102.688 314.744 102.516 315.157 102.212 315.462C101.907 315.766 101.493 315.938 101.062 315.938H98.7379C98.6652 316.476 98.6275 317.019 98.625 317.563H104.312C104.306 316.746 104.374 315.93 104.516 315.125C105.044 312.119 106.547 310.989 107.514 310.551C107.738 310.453 107.933 310.299 108.081 310.104C108.229 309.909 108.324 309.68 108.359 309.438C108.368 309.373 108.374 309.308 108.375 309.243C108.373 309.121 108.356 308.999 108.323 308.882C108.271 309.043 108.169 309.183 108.033 309.283C107.896 309.382 107.732 309.437 107.562 309.438Z" fill="#7D7B85"/>
<path d="M124.625 334.625C124.625 334.176 124.261 333.812 123.812 333.812C123.364 333.812 123 334.176 123 334.625V336.25C123 336.699 123.364 337.062 123.812 337.062C124.261 337.062 124.625 336.699 124.625 336.25V334.625Z" fill="#FFAF3F"/>
<path d="M128.688 354.938H110.812C109.915 354.938 109.188 355.665 109.188 356.562C109.188 357.46 109.915 358.188 110.812 358.188H128.688C129.585 358.188 130.312 357.46 130.312 356.562C130.312 355.665 129.585 354.938 128.688 354.938Z" fill="#67666E"/>
<path d="M136 354.938H134.375C133.478 354.938 132.75 355.665 132.75 356.562C132.75 357.46 133.478 358.188 134.375 358.188H136C136.897 358.188 137.625 357.46 137.625 356.562C137.625 355.665 136.897 354.938 136 354.938Z" fill="#67666E"/>
<path d="M146.562 337.062C147.011 337.062 147.375 336.699 147.375 336.25C147.375 335.801 147.011 335.438 146.562 335.438C146.114 335.438 145.75 335.801 145.75 336.25C145.75 336.699 146.114 337.062 146.562 337.062Z" fill="#FFAF3F"/>
<path d="M143.312 355.75C143.761 355.75 144.125 355.386 144.125 354.938C144.125 354.489 143.761 354.125 143.312 354.125C142.864 354.125 142.5 354.489 142.5 354.938C142.5 355.386 142.864 355.75 143.312 355.75Z" fill="#FFAF3F"/>
<path d="M104.312 355.75C104.761 355.75 105.125 355.386 105.125 354.938C105.125 354.489 104.761 354.125 104.312 354.125C103.864 354.125 103.5 354.489 103.5 354.938C103.5 355.386 103.864 355.75 104.312 355.75Z" fill="#FFAF3F"/>
<path d="M101.062 337.062C101.511 337.062 101.875 336.699 101.875 336.25C101.875 335.801 101.511 335.438 101.062 335.438C100.614 335.438 100.25 335.801 100.25 336.25C100.25 336.699 100.614 337.062 101.062 337.062Z" fill="#FFAF3F"/>
<path d="M142.094 333.812H138.031C137.358 333.812 136.812 334.358 136.812 335.031C136.812 335.704 137.358 336.25 138.031 336.25H142.094C142.767 336.25 143.312 335.704 143.312 335.031C143.312 334.358 142.767 333.812 142.094 333.812Z" fill="#D4CBCC"/>
<path d="M109.594 333.812H105.531C104.858 333.812 104.312 334.358 104.312 335.031C104.312 335.704 104.858 336.25 105.531 336.25H109.594C110.267 336.25 110.812 335.704 110.812 335.031C110.812 334.358 110.267 333.812 109.594 333.812Z" fill="#D4CBCC"/>
<path d="M134.781 333.812H133.156C132.483 333.812 131.938 334.358 131.938 335.031C131.938 335.704 132.483 336.25 133.156 336.25H134.781C135.454 336.25 136 335.704 136 335.031C136 334.358 135.454 333.812 134.781 333.812Z" fill="#D4CBCC"/>
<path d="M114.469 333.812H112.844C112.171 333.812 111.625 334.358 111.625 335.031C111.625 335.704 112.171 336.25 112.844 336.25H114.469C115.142 336.25 115.688 335.704 115.688 335.031C115.688 334.358 115.142 333.812 114.469 333.812Z" fill="#D4CBCC"/>
<path d="M121.375 309.438H126.25V311.875H121.375V309.438Z" fill="#E0D7D8"/>
</g>
<path d="M168.752 310.228V311.81H166.148V320H164.188V311.81H161.584V310.228H168.752ZM173.571 320.126C172.824 320.126 172.152 319.963 171.555 319.636C170.957 319.3 170.486 318.829 170.141 318.222C169.805 317.615 169.637 316.915 169.637 316.122C169.637 315.329 169.809 314.629 170.155 314.022C170.509 313.415 170.99 312.949 171.597 312.622C172.203 312.286 172.88 312.118 173.627 312.118C174.373 312.118 175.05 312.286 175.657 312.622C176.263 312.949 176.739 313.415 177.085 314.022C177.439 314.629 177.617 315.329 177.617 316.122C177.617 316.915 177.435 317.615 177.071 318.222C176.716 318.829 176.231 319.3 175.615 319.636C175.008 319.963 174.327 320.126 173.571 320.126ZM173.571 318.418C173.925 318.418 174.257 318.334 174.565 318.166C174.882 317.989 175.134 317.727 175.321 317.382C175.507 317.037 175.601 316.617 175.601 316.122C175.601 315.385 175.405 314.82 175.013 314.428C174.63 314.027 174.159 313.826 173.599 313.826C173.039 313.826 172.567 314.027 172.185 314.428C171.811 314.82 171.625 315.385 171.625 316.122C171.625 316.859 171.807 317.429 172.171 317.83C172.544 318.222 173.011 318.418 173.571 318.418ZM181.28 313.854V317.606C181.28 317.867 181.341 318.059 181.462 318.18C181.593 318.292 181.808 318.348 182.106 318.348H183.016V320H181.784C180.132 320 179.306 319.197 179.306 317.592V313.854H178.382V312.244H179.306V310.326H181.28V312.244H183.016V313.854H181.28ZM183.866 316.094C183.866 315.31 184.02 314.615 184.328 314.008C184.645 313.401 185.07 312.935 185.602 312.608C186.143 312.281 186.745 312.118 187.408 312.118C187.987 312.118 188.491 312.235 188.92 312.468C189.359 312.701 189.709 312.995 189.97 313.35V312.244H191.944V320H189.97V318.866C189.718 319.23 189.368 319.533 188.92 319.776C188.481 320.009 187.973 320.126 187.394 320.126C186.741 320.126 186.143 319.958 185.602 319.622C185.07 319.286 184.645 318.815 184.328 318.208C184.02 317.592 183.866 316.887 183.866 316.094ZM189.97 316.122C189.97 315.646 189.877 315.24 189.69 314.904C189.503 314.559 189.251 314.297 188.934 314.12C188.617 313.933 188.276 313.84 187.912 313.84C187.548 313.84 187.212 313.929 186.904 314.106C186.596 314.283 186.344 314.545 186.148 314.89C185.961 315.226 185.868 315.627 185.868 316.094C185.868 316.561 185.961 316.971 186.148 317.326C186.344 317.671 186.596 317.937 186.904 318.124C187.221 318.311 187.557 318.404 187.912 318.404C188.276 318.404 188.617 318.315 188.934 318.138C189.251 317.951 189.503 317.69 189.69 317.354C189.877 317.009 189.97 316.598 189.97 316.122ZM195.762 309.64V320H193.802V309.64H195.762ZM200.419 316.122C200.419 315.319 200.582 314.619 200.909 314.022C201.235 313.415 201.688 312.949 202.267 312.622C202.845 312.286 203.508 312.118 204.255 312.118C205.216 312.118 206.009 312.361 206.635 312.846C207.269 313.322 207.694 313.994 207.909 314.862H205.795C205.683 314.526 205.491 314.265 205.221 314.078C204.959 313.882 204.633 313.784 204.241 313.784C203.681 313.784 203.237 313.989 202.911 314.4C202.584 314.801 202.421 315.375 202.421 316.122C202.421 316.859 202.584 317.433 202.911 317.844C203.237 318.245 203.681 318.446 204.241 318.446C205.034 318.446 205.552 318.091 205.795 317.382H207.909C207.694 318.222 207.269 318.889 206.635 319.384C206 319.879 205.207 320.126 204.255 320.126C203.508 320.126 202.845 319.963 202.267 319.636C201.688 319.3 201.235 318.833 200.909 318.236C200.582 317.629 200.419 316.925 200.419 316.122ZM212.733 320.126C211.986 320.126 211.314 319.963 210.717 319.636C210.119 319.3 209.648 318.829 209.303 318.222C208.967 317.615 208.799 316.915 208.799 316.122C208.799 315.329 208.971 314.629 209.317 314.022C209.671 313.415 210.152 312.949 210.759 312.622C211.365 312.286 212.042 312.118 212.789 312.118C213.535 312.118 214.212 312.286 214.819 312.622C215.425 312.949 215.901 313.415 216.247 314.022C216.601 314.629 216.779 315.329 216.779 316.122C216.779 316.915 216.597 317.615 216.233 318.222C215.878 318.829 215.393 319.3 214.777 319.636C214.17 319.963 213.489 320.126 212.733 320.126ZM212.733 318.418C213.087 318.418 213.419 318.334 213.727 318.166C214.044 317.989 214.296 317.727 214.483 317.382C214.669 317.037 214.763 316.617 214.763 316.122C214.763 315.385 214.567 314.82 214.175 314.428C213.792 314.027 213.321 313.826 212.761 313.826C212.201 313.826 211.729 314.027 211.347 314.428C210.973 314.82 210.787 315.385 210.787 316.122C210.787 316.859 210.969 317.429 211.333 317.83C211.706 318.222 212.173 318.418 212.733 318.418ZM219.154 311.32C218.809 311.32 218.52 311.213 218.286 310.998C218.062 310.774 217.95 310.499 217.95 310.172C217.95 309.845 218.062 309.575 218.286 309.36C218.52 309.136 218.809 309.024 219.154 309.024C219.5 309.024 219.784 309.136 220.008 309.36C220.242 309.575 220.358 309.845 220.358 310.172C220.358 310.499 220.242 310.774 220.008 310.998C219.784 311.213 219.5 311.32 219.154 311.32ZM220.12 312.244V320H218.16V312.244H220.12ZM226.299 312.132C227.223 312.132 227.969 312.426 228.539 313.014C229.108 313.593 229.393 314.405 229.393 315.45V320H227.433V315.716C227.433 315.1 227.279 314.629 226.971 314.302C226.663 313.966 226.243 313.798 225.711 313.798C225.169 313.798 224.74 313.966 224.423 314.302C224.115 314.629 223.961 315.1 223.961 315.716V320H222.001V312.244H223.961V313.21C224.222 312.874 224.553 312.613 224.955 312.426C225.365 312.23 225.813 312.132 226.299 312.132ZM234.169 320.126C233.534 320.126 232.965 320.014 232.461 319.79C231.957 319.557 231.555 319.244 231.257 318.852C230.967 318.46 230.809 318.026 230.781 317.55H232.755C232.792 317.849 232.937 318.096 233.189 318.292C233.45 318.488 233.772 318.586 234.155 318.586C234.528 318.586 234.817 318.511 235.023 318.362C235.237 318.213 235.345 318.021 235.345 317.788C235.345 317.536 235.214 317.349 234.953 317.228C234.701 317.097 234.295 316.957 233.735 316.808C233.156 316.668 232.68 316.523 232.307 316.374C231.943 316.225 231.625 315.996 231.355 315.688C231.093 315.38 230.963 314.965 230.963 314.442C230.963 314.013 231.084 313.621 231.327 313.266C231.579 312.911 231.933 312.631 232.391 312.426C232.857 312.221 233.403 312.118 234.029 312.118C234.953 312.118 235.69 312.351 236.241 312.818C236.791 313.275 237.095 313.896 237.151 314.68H235.275C235.247 314.372 235.116 314.129 234.883 313.952C234.659 313.765 234.355 313.672 233.973 313.672C233.618 313.672 233.343 313.737 233.147 313.868C232.96 313.999 232.867 314.181 232.867 314.414C232.867 314.675 232.997 314.876 233.259 315.016C233.52 315.147 233.926 315.282 234.477 315.422C235.037 315.562 235.499 315.707 235.863 315.856C236.227 316.005 236.539 316.239 236.801 316.556C237.071 316.864 237.211 317.275 237.221 317.788C237.221 318.236 237.095 318.637 236.843 318.992C236.6 319.347 236.245 319.627 235.779 319.832C235.321 320.028 234.785 320.126 234.169 320.126Z" fill="#746F6F"/>
<path d="M162.422 339.424C162.486 337.712 163.046 336.392 164.102 335.464C165.158 334.536 166.59 334.072 168.398 334.072C169.598 334.072 170.622 334.28 171.47 334.696C172.334 335.112 172.982 335.68 173.414 336.4C173.862 337.12 174.086 337.928 174.086 338.824C174.086 339.88 173.822 340.744 173.294 341.416C172.766 342.072 172.15 342.52 171.446 342.76V342.856C172.358 343.16 173.078 343.664 173.606 344.368C174.134 345.072 174.398 345.976 174.398 347.08C174.398 348.072 174.166 348.952 173.702 349.72C173.254 350.472 172.59 351.064 171.71 351.496C170.846 351.928 169.814 352.144 168.614 352.144C166.694 352.144 165.158 351.672 164.006 350.728C162.87 349.784 162.27 348.36 162.206 346.456H166.19C166.206 347.16 166.406 347.72 166.79 348.136C167.174 348.536 167.734 348.736 168.47 348.736C169.094 348.736 169.574 348.56 169.91 348.208C170.262 347.84 170.438 347.36 170.438 346.768C170.438 346 170.19 345.448 169.694 345.112C169.214 344.76 168.438 344.584 167.366 344.584H166.598V341.248H167.366C168.182 341.248 168.838 341.112 169.334 340.84C169.846 340.552 170.102 340.048 170.102 339.328C170.102 338.752 169.942 338.304 169.622 337.984C169.302 337.664 168.862 337.504 168.302 337.504C167.694 337.504 167.238 337.688 166.934 338.056C166.646 338.424 166.478 338.88 166.43 339.424H162.422ZM176.713 343C176.713 340.248 177.241 338.08 178.297 336.496C179.369 334.912 181.089 334.12 183.457 334.12C185.825 334.12 187.537 334.912 188.593 336.496C189.665 338.08 190.201 340.248 190.201 343C190.201 345.784 189.665 347.968 188.593 349.552C187.537 351.136 185.825 351.928 183.457 351.928C181.089 351.928 179.369 351.136 178.297 349.552C177.241 347.968 176.713 345.784 176.713 343ZM186.169 343C186.169 341.384 185.993 340.144 185.641 339.28C185.289 338.4 184.561 337.96 183.457 337.96C182.353 337.96 181.625 338.4 181.273 339.28C180.921 340.144 180.745 341.384 180.745 343C180.745 344.088 180.809 344.992 180.937 345.712C181.065 346.416 181.321 346.992 181.705 347.44C182.105 347.872 182.689 348.088 183.457 348.088C184.225 348.088 184.801 347.872 185.185 347.44C185.585 346.992 185.849 346.416 185.977 345.712C186.105 344.992 186.169 344.088 186.169 343ZM204.609 338.056H197.121V341.368C197.441 341.016 197.889 340.728 198.465 340.504C199.041 340.28 199.665 340.168 200.337 340.168C201.537 340.168 202.529 340.44 203.313 340.984C204.113 341.528 204.697 342.232 205.065 343.096C205.433 343.96 205.617 344.896 205.617 345.904C205.617 347.776 205.089 349.264 204.033 350.368C202.977 351.456 201.489 352 199.569 352C198.289 352 197.177 351.784 196.233 351.352C195.289 350.904 194.561 350.288 194.049 349.504C193.537 348.72 193.257 347.816 193.209 346.792H197.217C197.313 347.288 197.545 347.704 197.913 348.04C198.281 348.36 198.785 348.52 199.425 348.52C200.177 348.52 200.737 348.28 201.105 347.8C201.473 347.32 201.657 346.68 201.657 345.88C201.657 345.096 201.465 344.496 201.081 344.08C200.697 343.664 200.137 343.456 199.401 343.456C198.857 343.456 198.409 343.592 198.057 343.864C197.705 344.12 197.473 344.464 197.361 344.896H193.401V334.456H204.609V338.056Z" fill="black"/>
</g>
<rect x="19.25" y="291.25" width="296.5" height="83.5" rx="18.75" stroke="#DCD2B5" stroke-width="2.5"/>
<circle cx="21.5" cy="59.5" r="1.5" fill="#D9D9D9"/>
<circle cx="21.5" cy="72.5" r="1.5" fill="#D9D9D9"/>
<circle cx="21.5" cy="85.5" r="1.5" fill="#D9D9D9"/>
<circle cx="21.5" cy="98.5" r="1.5" fill="#D9D9D9"/>
<circle cx="21.5" cy="111.5" r="1.5" fill="#D9D9D9"/>
<circle cx="21.5" cy="124.5" r="1.5" fill="#D9D9D9"/>
<circle cx="34.5" cy="59.5" r="1.5" fill="#D9D9D9"/>
<circle cx="34.5" cy="72.5" r="1.5" fill="#D9D9D9"/>
<circle cx="34.5" cy="85.5" r="1.5" fill="#D9D9D9"/>
<circle cx="34.5" cy="98.5" r="1.5" fill="#D9D9D9"/>
<circle cx="34.5" cy="111.5" r="1.5" fill="#D9D9D9"/>
<circle cx="34.5" cy="124.5" r="1.5" fill="#D9D9D9"/>
<circle cx="47.5" cy="59.5" r="1.5" fill="#D9D9D9"/>
<circle cx="47.5" cy="72.5" r="1.5" fill="#D9D9D9"/>
<circle cx="47.5" cy="85.5" r="1.5" fill="#D9D9D9"/>
<circle cx="47.5" cy="98.5" r="1.5" fill="#D9D9D9"/>
<circle cx="47.5" cy="111.5" r="1.5" fill="#D9D9D9"/>
<circle cx="47.5" cy="124.5" r="1.5" fill="#D9D9D9"/>
<circle cx="60.5" cy="59.5" r="1.5" fill="#D9D9D9"/>
<circle cx="60.5" cy="72.5" r="1.5" fill="#D9D9D9"/>
<circle cx="60.5" cy="85.5" r="1.5" fill="#D9D9D9"/>
<circle cx="60.5" cy="98.5" r="1.5" fill="#D9D9D9"/>
<circle cx="60.5" cy="111.5" r="1.5" fill="#D9D9D9"/>
<circle cx="60.5" cy="124.5" r="1.5" fill="#D9D9D9"/>
<circle cx="73.5" cy="59.5" r="1.5" fill="#D9D9D9"/>
<circle cx="73.5" cy="72.5" r="1.5" fill="#D9D9D9"/>
<circle cx="73.5" cy="85.5" r="1.5" fill="#D9D9D9"/>
<circle cx="73.5" cy="98.5" r="1.5" fill="#D9D9D9"/>
<circle cx="73.5" cy="111.5" r="1.5" fill="#D9D9D9"/>
<circle cx="73.5" cy="124.5" r="1.5" fill="#D9D9D9"/>
<circle cx="86.5" cy="59.5" r="1.5" fill="#D9D9D9"/>
<circle cx="86.5" cy="72.5" r="1.5" fill="#D9D9D9"/>
<circle cx="86.5" cy="85.5" r="1.5" fill="#D9D9D9"/>
<circle cx="86.5" cy="98.5" r="1.5" fill="#D9D9D9"/>
<circle cx="86.5" cy="111.5" r="1.5" fill="#D9D9D9"/>
<circle cx="86.5" cy="124.5" r="1.5" fill="#D9D9D9"/>
<circle cx="248.5" cy="174.5" r="1.5" fill="#D9D9D9"/>
<circle cx="248.5" cy="187.5" r="1.5" fill="#D9D9D9"/>
<circle cx="248.5" cy="200.5" r="1.5" fill="#D9D9D9"/>
<circle cx="248.5" cy="213.5" r="1.5" fill="#D9D9D9"/>
<circle cx="248.5" cy="226.5" r="1.5" fill="#D9D9D9"/>
<circle cx="248.5" cy="239.5" r="1.5" fill="#D9D9D9"/>
<circle cx="261.5" cy="174.5" r="1.5" fill="#D9D9D9"/>
<circle cx="261.5" cy="187.5" r="1.5" fill="#D9D9D9"/>
<circle cx="261.5" cy="200.5" r="1.5" fill="#D9D9D9"/>
<circle cx="261.5" cy="213.5" r="1.5" fill="#D9D9D9"/>
<circle cx="261.5" cy="226.5" r="1.5" fill="#D9D9D9"/>
<circle cx="261.5" cy="239.5" r="1.5" fill="#D9D9D9"/>
<circle cx="274.5" cy="174.5" r="1.5" fill="#D9D9D9"/>
<circle cx="274.5" cy="187.5" r="1.5" fill="#D9D9D9"/>
<circle cx="274.5" cy="200.5" r="1.5" fill="#D9D9D9"/>
<circle cx="274.5" cy="213.5" r="1.5" fill="#D9D9D9"/>
<circle cx="274.5" cy="226.5" r="1.5" fill="#D9D9D9"/>
<circle cx="274.5" cy="239.5" r="1.5" fill="#D9D9D9"/>
<circle cx="287.5" cy="174.5" r="1.5" fill="#D9D9D9"/>
<circle cx="287.5" cy="187.5" r="1.5" fill="#D9D9D9"/>
<circle cx="287.5" cy="200.5" r="1.5" fill="#D9D9D9"/>
<circle cx="287.5" cy="213.5" r="1.5" fill="#D9D9D9"/>
<circle cx="287.5" cy="226.5" r="1.5" fill="#D9D9D9"/>
<circle cx="287.5" cy="239.5" r="1.5" fill="#D9D9D9"/>
<circle cx="300.5" cy="174.5" r="1.5" fill="#D9D9D9"/>
<circle cx="300.5" cy="187.5" r="1.5" fill="#D9D9D9"/>
<circle cx="300.5" cy="200.5" r="1.5" fill="#D9D9D9"/>
<circle cx="300.5" cy="213.5" r="1.5" fill="#D9D9D9"/>
<circle cx="300.5" cy="226.5" r="1.5" fill="#D9D9D9"/>
<circle cx="300.5" cy="239.5" r="1.5" fill="#D9D9D9"/>
<circle cx="313.5" cy="174.5" r="1.5" fill="#D9D9D9"/>
<circle cx="313.5" cy="187.5" r="1.5" fill="#D9D9D9"/>
<circle cx="313.5" cy="200.5" r="1.5" fill="#D9D9D9"/>
<circle cx="313.5" cy="213.5" r="1.5" fill="#D9D9D9"/>
<circle cx="313.5" cy="226.5" r="1.5" fill="#D9D9D9"/>
<circle cx="313.5" cy="239.5" r="1.5" fill="#D9D9D9"/>
<defs>
<linearGradient id="paint0_linear_5638_1138" x1="159.072" y1="265.536" x2="168.928" y2="248.464" gradientUnits="userSpaceOnUse">
<stop stop-color="#FF6100"/>
<stop offset="1" stop-color="#FDB82E"/>
</linearGradient>
<linearGradient id="paint1_linear_5638_1138" x1="183.996" y1="270.759" x2="201.696" y2="257.233" gradientUnits="userSpaceOnUse">
<stop stop-color="#FF6100"/>
<stop offset="1" stop-color="#FDB82E"/>
</linearGradient>
<clipPath id="clip0_5638_1138">
<rect x="18" y="290" width="299" height="86" rx="20" fill="white"/>
</clipPath>
<clipPath id="clip1_5638_1138">
<rect width="52" height="52" fill="white" transform="translate(97 307)"/>
</clipPath>
</defs>
</svg>
