<svg width="335" height="150" viewBox="0 0 335 150" fill="none" xmlns="http://www.w3.org/2000/svg">
<g clip-path="url(#clip0_3003_657)">
<rect width="335" height="178" fill="#FCF1D3"/>
<path opacity="0.1" d="M-81.6455 34.001L46.0964 -66.2104C50.3021 -69.5097 56.3974 -66.0772 55.7564 -60.7703L39.8458 70.9704C39.2049 76.2773 45.3001 79.7099 49.5058 76.4106L131.066 12.4278C135.272 9.12849 141.367 12.5611 140.726 17.8679L123.316 162.023C122.675 167.33 128.771 170.763 132.976 167.463L247.334 77.7519C251.539 74.4526 257.635 77.8852 256.994 83.192L230.457 302.914" stroke="#D7A10B" stroke-width="29"/>
<path opacity="0.1" d="M-263 79.0332L-135.258 -21.1782C-131.052 -24.4775 -124.957 -21.0449 -125.598 -15.7381L-141.509 116.003C-142.15 121.31 -136.054 124.742 -131.849 121.443L-50.2883 57.46C-46.0826 54.1607 -39.9873 57.5933 -40.6282 62.9002L-58.0383 207.055C-58.6792 212.362 -52.5839 215.795 -48.3782 212.496L65.9791 122.784C70.1849 119.485 76.2801 122.917 75.6392 128.224L49.1028 347.946" stroke="#D7A10B" stroke-width="29"/>
<path opacity="0.1" d="M0 -78.9668L127.742 -179.178C131.948 -182.478 138.043 -179.045 137.402 -173.738L121.491 -41.9974C120.85 -36.6905 126.946 -33.2579 131.151 -36.5572L212.712 -100.54C216.917 -103.839 223.013 -100.407 222.372 -95.0998L204.962 49.0554C204.321 54.3623 210.416 57.7949 214.622 54.4955L328.979 -35.2159C333.185 -38.5152 339.28 -35.0826 338.639 -29.7758L312.103 189.946" stroke="#D7A10B" stroke-width="29"/>
<path d="M24.2392 56C23.2685 56 22.5752 55.8093 22.1592 55.428C21.7432 55.0467 21.5352 54.5007 21.5352 53.79C21.5352 53.4433 21.5612 52.854 21.6132 52.022C21.6652 51.1727 21.7345 50.2107 21.8212 49.136C21.9078 48.0613 21.9945 46.926 22.0812 45.73C22.1678 44.534 22.2545 43.4073 22.3412 42.35C22.4278 41.2927 22.4972 40.3653 22.5492 39.568C22.6012 38.7707 22.6272 38.2247 22.6272 37.93C22.6272 37.67 22.7658 37.54 23.0432 37.54H24.4732C25.5305 37.54 26.2412 37.7653 26.6052 38.216C26.9692 38.6667 27.1512 39.334 27.1512 40.218C27.1512 40.3047 27.1338 40.582 27.0992 41.05C27.0818 41.518 27.0472 42.1073 26.9952 42.818C26.9432 43.5287 26.8825 44.326 26.8132 45.21C26.7612 46.0767 26.7005 46.9693 26.6312 47.888C26.5792 48.8067 26.5185 49.708 26.4492 50.592C26.3972 51.4587 26.3452 52.2473 26.2932 52.958C26.2412 53.6687 26.1978 54.2667 26.1632 54.752C26.1285 55.22 26.1025 55.506 26.0852 55.61C26.0678 55.7487 26.0332 55.8527 25.9812 55.922C25.9292 55.974 25.8252 56 25.6692 56H24.2392ZM43.4609 52.776C43.5129 52.204 43.5649 51.606 43.6169 50.982C43.6862 50.358 43.7382 49.76 43.7729 49.188C43.8249 48.616 43.8682 48.1047 43.9029 47.654C43.9376 47.2033 43.9549 46.874 43.9549 46.666C43.9549 46.2153 43.8422 45.8167 43.6169 45.47C43.4089 45.106 42.9929 44.924 42.3689 44.924C41.5369 44.924 40.8609 45.314 40.3409 46.094C39.8382 46.874 39.5436 47.914 39.4569 49.214C39.4222 49.578 39.3789 50.0893 39.3269 50.748C39.2749 51.3893 39.2229 52.048 39.1709 52.724C39.1189 53.3827 39.0669 53.9807 39.0149 54.518C38.9802 55.038 38.9629 55.3587 38.9629 55.48C38.9629 55.688 38.9196 55.8267 38.8329 55.896C38.7636 55.9653 38.6162 56 38.3909 56H37.4549C36.9176 56 36.4756 55.948 36.1289 55.844C35.7996 55.7227 35.5309 55.558 35.3229 55.35C35.1322 55.142 34.9936 54.8907 34.9069 54.596C34.8376 54.284 34.8029 53.9287 34.8029 53.53C34.8029 53.1487 34.8289 52.62 34.8809 51.944C34.9502 51.2507 35.0369 50.306 35.1409 49.11C35.2449 47.8967 35.3662 46.354 35.5049 44.482C35.6436 42.61 35.7909 40.2873 35.9469 37.514C35.9642 37.1327 36.0076 36.9073 36.0769 36.838C36.1289 36.786 36.2676 36.76 36.4929 36.76H37.5069C38.0269 36.76 38.4602 36.8207 38.8069 36.942C39.1536 37.0633 39.4309 37.228 39.6389 37.436C39.8469 37.644 39.9942 37.8867 40.0809 38.164C40.1676 38.424 40.2109 38.7013 40.2109 38.996C40.2109 39.308 40.1762 39.8887 40.1069 40.738C40.0549 41.5873 39.9856 42.584 39.8989 43.728C40.4189 42.8613 40.9909 42.2633 41.6149 41.934C42.2562 41.6047 43.0622 41.44 44.0329 41.44C44.7609 41.44 45.3936 41.518 45.9309 41.674C46.4682 41.83 46.9102 42.0987 47.2569 42.48C47.6209 42.844 47.8896 43.3293 48.0629 43.936C48.2362 44.5253 48.3229 45.262 48.3229 46.146C48.3229 46.4233 48.2969 46.9 48.2449 47.576C48.1929 48.252 48.1236 49.0233 48.0369 49.89C47.9676 50.7567 47.8896 51.6667 47.8029 52.62C47.7336 53.556 47.6729 54.414 47.6209 55.194C47.6036 55.3847 47.5862 55.532 47.5689 55.636C47.5516 55.74 47.5169 55.818 47.4649 55.87C47.4302 55.922 47.3696 55.9567 47.2829 55.974C47.1962 55.9913 47.0749 56 46.9189 56H46.0869C45.5322 56 45.0816 55.948 44.7349 55.844C44.3882 55.74 44.1196 55.5927 43.9289 55.402C43.7382 55.2113 43.5996 54.9773 43.5129 54.7C43.4436 54.4053 43.4089 54.076 43.4089 53.712C43.4089 53.5387 43.4089 53.374 43.4089 53.218C43.4262 53.062 43.4436 52.9147 43.4609 52.776ZM49.7633 52.802C49.7633 51.242 50.4653 50.02 51.8693 49.136C53.2733 48.252 55.3446 47.7753 58.0833 47.706C58.1006 47.5153 58.1093 47.3593 58.1093 47.238C58.1266 47.0993 58.1353 46.9347 58.1353 46.744C58.1353 46.1893 58.0313 45.7473 57.8233 45.418C57.6153 45.0887 57.1819 44.924 56.5233 44.924C56.1593 44.924 55.8646 44.976 55.6393 45.08C55.4139 45.184 55.2319 45.3313 55.0933 45.522C54.9546 45.6953 54.8419 45.912 54.7553 46.172C54.6686 46.432 54.5906 46.718 54.5213 47.03C54.4866 47.186 54.4086 47.29 54.2873 47.342C54.1659 47.3767 53.9753 47.394 53.7153 47.394C51.9473 47.394 51.0633 46.7267 51.0633 45.392C51.0633 44.8547 51.1846 44.3433 51.4273 43.858C51.6873 43.3727 52.0599 42.9567 52.5453 42.61C53.0479 42.246 53.6719 41.96 54.4173 41.752C55.1626 41.544 56.0293 41.44 57.0173 41.44C58.9413 41.44 60.3366 41.8387 61.2033 42.636C62.0699 43.4333 62.5033 44.56 62.5033 46.016C62.5033 46.2067 62.4773 46.5533 62.4253 47.056C62.3906 47.5413 62.3386 48.0613 62.2693 48.616C62.2173 49.1533 62.1653 49.6647 62.1133 50.15C62.0786 50.6353 62.0613 50.9733 62.0613 51.164C62.0613 51.5973 62.1393 51.9093 62.2953 52.1C62.4513 52.2733 62.6246 52.3947 62.8153 52.464C63.0233 52.5333 63.2053 52.5853 63.3613 52.62C63.5173 52.6547 63.5953 52.7413 63.5953 52.88C63.5953 53.2613 63.5433 53.6513 63.4393 54.05C63.3353 54.4487 63.1619 54.8127 62.9193 55.142C62.6939 55.4713 62.3733 55.74 61.9573 55.948C61.5586 56.156 61.0646 56.26 60.4753 56.26C59.6433 56.26 59.0193 56.0607 58.6033 55.662C58.1873 55.2633 57.9099 54.7087 57.7713 53.998C57.3553 54.6047 56.8093 55.1333 56.1333 55.584C55.4746 56.0347 54.6079 56.26 53.5333 56.26C53.0133 56.26 52.5193 56.1993 52.0513 56.078C51.6006 55.9567 51.2019 55.7573 50.8553 55.48C50.5259 55.2027 50.2573 54.8473 50.0493 54.414C49.8586 53.9633 49.7633 53.426 49.7633 52.802ZM57.8493 49.838C57.3986 49.838 56.9566 49.8727 56.5233 49.942C56.0899 50.0113 55.6999 50.124 55.3533 50.28C55.0239 50.4187 54.7553 50.6093 54.5473 50.852C54.3393 51.0947 54.2353 51.3893 54.2353 51.736C54.2353 52.1347 54.3566 52.412 54.5993 52.568C54.8593 52.724 55.1366 52.802 55.4313 52.802C55.7086 52.802 55.9859 52.7413 56.2633 52.62C56.5406 52.4987 56.7833 52.3167 56.9913 52.074C57.2166 51.814 57.4073 51.502 57.5633 51.138C57.7193 50.774 57.8146 50.3407 57.8493 49.838ZM70.8405 52.698C71.0485 51.97 71.2392 51.2507 71.4125 50.54C71.6032 49.8293 71.7852 49.0753 71.9585 48.278C72.1492 47.4633 72.3485 46.5793 72.5565 45.626C72.7819 44.6553 73.0419 43.5547 73.3365 42.324C73.3885 42.0813 73.4665 41.9253 73.5705 41.856C73.6745 41.7693 73.8999 41.726 74.2465 41.726C74.5065 41.726 74.8532 41.7347 75.2865 41.752C75.7199 41.7693 76.1445 41.83 76.5605 41.934C76.9765 42.038 77.3319 42.194 77.6265 42.402C77.9385 42.61 78.0945 42.896 78.0945 43.26C78.0945 43.5547 77.9905 44.0313 77.7825 44.69C77.5745 45.3487 77.3059 46.1027 76.9765 46.952C76.6472 47.784 76.2745 48.6593 75.8585 49.578C75.4599 50.4967 75.0699 51.3633 74.6885 52.178C74.3072 52.9927 73.9519 53.712 73.6225 54.336C73.2932 54.9427 73.0505 55.3673 72.8945 55.61C72.7559 55.8007 72.6345 55.9133 72.5305 55.948C72.4265 55.9827 72.2532 56 72.0105 56H69.6965C69.3325 56 69.0292 55.9393 68.7865 55.818C68.5612 55.6793 68.3705 55.506 68.2145 55.298C68.0585 55.09 67.9285 54.856 67.8245 54.596C67.7205 54.3187 67.6252 54.0327 67.5385 53.738C67.0359 52.0047 66.5939 50.5227 66.2125 49.292C65.8485 48.044 65.5365 47.004 65.2765 46.172C65.0165 45.34 64.8085 44.6813 64.6525 44.196C64.4965 43.6933 64.3752 43.312 64.2885 43.052C64.2019 42.7747 64.1412 42.5927 64.1065 42.506C64.0719 42.402 64.0545 42.3327 64.0545 42.298C64.0719 42.1767 64.1585 42.0467 64.3145 41.908C64.4705 41.7693 64.6699 41.7 64.9125 41.7C65.7099 41.7 66.3859 41.7347 66.9405 41.804C67.5125 41.856 67.9805 41.96 68.3445 42.116C68.7259 42.272 69.0119 42.4887 69.2025 42.766C69.4105 43.0433 69.5579 43.4073 69.6445 43.858C69.6619 43.9793 69.6965 44.222 69.7485 44.586C69.8005 44.95 69.8525 45.392 69.9045 45.912C69.9739 46.4147 70.0519 46.978 70.1385 47.602C70.2252 48.2087 70.3032 48.824 70.3725 49.448C70.4592 50.0547 70.5372 50.644 70.6065 51.216C70.6932 51.788 70.7712 52.282 70.8405 52.698ZM85.1342 56.26C84.3716 56.26 83.6089 56.1647 82.8462 55.974C82.1009 55.7833 81.4249 55.454 80.8182 54.986C80.2289 54.518 79.7436 53.894 79.3622 53.114C78.9809 52.334 78.7902 51.3547 78.7902 50.176C78.7902 49.7427 78.8249 49.2227 78.8942 48.616C78.9636 48.0093 79.0936 47.3853 79.2842 46.744C79.4922 46.1027 79.7696 45.47 80.1162 44.846C80.4802 44.2047 80.9482 43.6327 81.5202 43.13C82.0922 42.6273 82.7856 42.22 83.6002 41.908C84.4149 41.596 85.3856 41.44 86.5122 41.44C87.4136 41.44 88.1762 41.544 88.8002 41.752C89.4242 41.96 89.9269 42.246 90.3082 42.61C90.6896 42.9567 90.9669 43.364 91.1402 43.832C91.3136 44.3 91.4002 44.8027 91.4002 45.34C91.4002 46.1373 91.2356 46.8133 90.9062 47.368C90.5942 47.9227 90.1782 48.3907 89.6582 48.772C89.1556 49.136 88.5922 49.422 87.9682 49.63C87.3442 49.838 86.7289 50.0027 86.1222 50.124C85.5156 50.228 84.9522 50.2973 84.4322 50.332C83.9296 50.3493 83.5396 50.358 83.2622 50.358C83.2622 50.6873 83.3056 51.0167 83.3922 51.346C83.4962 51.658 83.6436 51.9353 83.8342 52.178C84.0249 52.4207 84.2762 52.62 84.5882 52.776C84.9002 52.932 85.2816 53.01 85.7322 53.01C86.1829 53.01 86.5296 52.9407 86.7722 52.802C87.0322 52.646 87.2402 52.4813 87.3962 52.308C87.5522 52.1173 87.6822 51.9527 87.7862 51.814C87.9076 51.658 88.0636 51.58 88.2542 51.58C88.3409 51.58 88.4882 51.606 88.6962 51.658C88.9216 51.6927 89.1469 51.7793 89.3722 51.918C89.5976 52.0567 89.7969 52.2473 89.9702 52.49C90.1436 52.7327 90.2302 53.0447 90.2302 53.426C90.2302 53.9287 90.0742 54.362 89.7622 54.726C89.4502 55.09 89.0429 55.3847 88.5402 55.61C88.0549 55.8353 87.5089 56 86.9022 56.104C86.2956 56.208 85.7062 56.26 85.1342 56.26ZM85.6282 44.898C85.2469 44.898 84.9176 45.0107 84.6402 45.236C84.3802 45.444 84.1549 45.7127 83.9642 46.042C83.7909 46.3713 83.6522 46.7353 83.5482 47.134C83.4616 47.5327 83.3922 47.914 83.3402 48.278C84.4149 48.2607 85.2816 48.0787 85.9402 47.732C86.6162 47.3853 86.9542 46.8913 86.9542 46.25C86.9542 45.9033 86.8416 45.5913 86.6162 45.314C86.4082 45.0367 86.0789 44.898 85.6282 44.898ZM97.5641 52.802C97.5641 51.242 98.2661 50.02 99.6701 49.136C101.074 48.252 103.145 47.7753 105.884 47.706C105.901 47.5153 105.91 47.3593 105.91 47.238C105.927 47.0993 105.936 46.9347 105.936 46.744C105.936 46.1893 105.832 45.7473 105.624 45.418C105.416 45.0887 104.983 44.924 104.324 44.924C103.96 44.924 103.665 44.976 103.44 45.08C103.215 45.184 103.033 45.3313 102.894 45.522C102.755 45.6953 102.643 45.912 102.556 46.172C102.469 46.432 102.391 46.718 102.322 47.03C102.287 47.186 102.209 47.29 102.088 47.342C101.967 47.3767 101.776 47.394 101.516 47.394C99.7481 47.394 98.8641 46.7267 98.8641 45.392C98.8641 44.8547 98.9854 44.3433 99.2281 43.858C99.4881 43.3727 99.8607 42.9567 100.346 42.61C100.849 42.246 101.473 41.96 102.218 41.752C102.963 41.544 103.83 41.44 104.818 41.44C106.742 41.44 108.137 41.8387 109.004 42.636C109.871 43.4333 110.304 44.56 110.304 46.016C110.304 46.2067 110.278 46.5533 110.226 47.056C110.191 47.5413 110.139 48.0613 110.07 48.616C110.018 49.1533 109.966 49.6647 109.914 50.15C109.879 50.6353 109.862 50.9733 109.862 51.164C109.862 51.5973 109.94 51.9093 110.096 52.1C110.252 52.2733 110.425 52.3947 110.616 52.464C110.824 52.5333 111.006 52.5853 111.162 52.62C111.318 52.6547 111.396 52.7413 111.396 52.88C111.396 53.2613 111.344 53.6513 111.24 54.05C111.136 54.4487 110.963 54.8127 110.72 55.142C110.495 55.4713 110.174 55.74 109.758 55.948C109.359 56.156 108.865 56.26 108.276 56.26C107.444 56.26 106.82 56.0607 106.404 55.662C105.988 55.2633 105.711 54.7087 105.572 53.998C105.156 54.6047 104.61 55.1333 103.934 55.584C103.275 56.0347 102.409 56.26 101.334 56.26C100.814 56.26 100.32 56.1993 99.8521 56.078C99.4014 55.9567 99.0027 55.7573 98.6561 55.48C98.3267 55.2027 98.0581 54.8473 97.8501 54.414C97.6594 53.9633 97.5641 53.426 97.5641 52.802ZM105.65 49.838C105.199 49.838 104.757 49.8727 104.324 49.942C103.891 50.0113 103.501 50.124 103.154 50.28C102.825 50.4187 102.556 50.6093 102.348 50.852C102.14 51.0947 102.036 51.3893 102.036 51.736C102.036 52.1347 102.157 52.412 102.4 52.568C102.66 52.724 102.937 52.802 103.232 52.802C103.509 52.802 103.787 52.7413 104.064 52.62C104.341 52.4987 104.584 52.3167 104.792 52.074C105.017 51.814 105.208 51.502 105.364 51.138C105.52 50.774 105.615 50.3407 105.65 49.838ZM123.323 47.004C123.288 47.524 123.245 48.0873 123.193 48.694C123.141 49.3007 123.089 49.916 123.037 50.54C122.985 51.1467 122.933 51.7447 122.881 52.334C122.846 52.9233 122.811 53.4433 122.777 53.894C122.742 54.3447 122.707 54.7173 122.673 55.012C122.655 55.3067 122.647 55.4627 122.647 55.48C122.629 55.688 122.586 55.8267 122.517 55.896C122.447 55.9653 122.3 56 122.075 56H121.139C120.203 56 119.544 55.7833 119.163 55.35C118.799 54.8993 118.617 54.232 118.617 53.348C118.617 53.244 118.625 52.984 118.643 52.568C118.677 52.152 118.712 51.658 118.747 51.086C118.799 50.4967 118.851 49.8467 118.903 49.136C118.955 48.4253 119.007 47.7147 119.059 47.004H117.837C117.646 47.004 117.551 46.9087 117.551 46.718C117.551 46.5793 117.559 46.38 117.577 46.12C117.594 45.8427 117.611 45.574 117.629 45.314C117.646 45.106 117.672 44.898 117.707 44.69C117.759 44.4647 117.837 44.274 117.941 44.118C118.062 43.9447 118.235 43.806 118.461 43.702C118.686 43.5807 118.981 43.5113 119.345 43.494L119.449 42.454C119.553 41.3273 119.761 40.3827 120.073 39.62C120.402 38.8573 120.827 38.2507 121.347 37.8C121.867 37.332 122.482 37.0027 123.193 36.812C123.921 36.604 124.727 36.5 125.611 36.5C126.477 36.5 127.214 36.578 127.821 36.734C128.445 36.89 128.947 37.1067 129.329 37.384C129.71 37.6613 129.987 37.9907 130.161 38.372C130.334 38.7533 130.421 39.1607 130.421 39.594C130.421 40.4953 130.135 41.1367 129.563 41.518C129.008 41.8993 128.254 42.09 127.301 42.09C127.041 42.09 126.859 42.0727 126.755 42.038C126.668 41.986 126.625 41.882 126.625 41.726C126.625 41.154 126.573 40.7033 126.469 40.374C126.365 40.0447 126.079 39.88 125.611 39.88C125.264 39.88 124.969 39.984 124.727 40.192C124.484 40.4 124.285 40.6773 124.129 41.024C123.973 41.3533 123.851 41.7347 123.765 42.168C123.695 42.6013 123.635 43.0433 123.583 43.494H126.573C126.85 43.494 126.989 43.6153 126.989 43.858L126.885 45.262C126.85 45.782 126.703 46.2067 126.443 46.536C126.2 46.848 125.689 47.004 124.909 47.004H123.323ZM128.229 52.802C128.229 51.242 128.931 50.02 130.335 49.136C131.739 48.252 133.81 47.7753 136.549 47.706C136.566 47.5153 136.575 47.3593 136.575 47.238C136.592 47.0993 136.601 46.9347 136.601 46.744C136.601 46.1893 136.497 45.7473 136.289 45.418C136.081 45.0887 135.647 44.924 134.989 44.924C134.625 44.924 134.33 44.976 134.105 45.08C133.879 45.184 133.697 45.3313 133.559 45.522C133.42 45.6953 133.307 45.912 133.221 46.172C133.134 46.432 133.056 46.718 132.987 47.03C132.952 47.186 132.874 47.29 132.753 47.342C132.631 47.3767 132.441 47.394 132.181 47.394C130.413 47.394 129.529 46.7267 129.529 45.392C129.529 44.8547 129.65 44.3433 129.893 43.858C130.153 43.3727 130.525 42.9567 131.011 42.61C131.513 42.246 132.137 41.96 132.883 41.752C133.628 41.544 134.495 41.44 135.483 41.44C137.407 41.44 138.802 41.8387 139.669 42.636C140.535 43.4333 140.969 44.56 140.969 46.016C140.969 46.2067 140.943 46.5533 140.891 47.056C140.856 47.5413 140.804 48.0613 140.735 48.616C140.683 49.1533 140.631 49.6647 140.579 50.15C140.544 50.6353 140.527 50.9733 140.527 51.164C140.527 51.5973 140.605 51.9093 140.761 52.1C140.917 52.2733 141.09 52.3947 141.281 52.464C141.489 52.5333 141.671 52.5853 141.827 52.62C141.983 52.6547 142.061 52.7413 142.061 52.88C142.061 53.2613 142.009 53.6513 141.905 54.05C141.801 54.4487 141.627 54.8127 141.385 55.142C141.159 55.4713 140.839 55.74 140.423 55.948C140.024 56.156 139.53 56.26 138.941 56.26C138.109 56.26 137.485 56.0607 137.069 55.662C136.653 55.2633 136.375 54.7087 136.237 53.998C135.821 54.6047 135.275 55.1333 134.599 55.584C133.94 56.0347 133.073 56.26 131.999 56.26C131.479 56.26 130.985 56.1993 130.517 56.078C130.066 55.9567 129.667 55.7573 129.321 55.48C128.991 55.2027 128.723 54.8473 128.515 54.414C128.324 53.9633 128.229 53.426 128.229 52.802ZM136.315 49.838C135.864 49.838 135.422 49.8727 134.989 49.942C134.555 50.0113 134.165 50.124 133.819 50.28C133.489 50.4187 133.221 50.6093 133.013 50.852C132.805 51.0947 132.701 51.3893 132.701 51.736C132.701 52.1347 132.822 52.412 133.065 52.568C133.325 52.724 133.602 52.802 133.897 52.802C134.174 52.802 134.451 52.7413 134.729 52.62C135.006 52.4987 135.249 52.3167 135.457 52.074C135.682 51.814 135.873 51.502 136.029 51.138C136.185 50.774 136.28 50.3407 136.315 49.838ZM150.107 52.802C150.61 52.802 151.043 52.7327 151.407 52.594C151.788 52.4553 152.118 52.2993 152.395 52.126C152.672 51.9527 152.906 51.7967 153.097 51.658C153.288 51.5193 153.461 51.45 153.617 51.45C154.016 51.45 154.215 51.71 154.215 52.23C154.215 52.3513 154.189 52.5247 154.137 52.75C154.085 52.958 154.016 53.1833 153.929 53.426C153.842 53.6513 153.747 53.868 153.643 54.076C153.556 54.284 153.47 54.44 153.383 54.544C153.296 54.6307 153.14 54.7693 152.915 54.96C152.707 55.1507 152.421 55.3413 152.057 55.532C151.693 55.7227 151.268 55.8873 150.783 56.026C150.298 56.182 149.76 56.26 149.171 56.26C148.512 56.26 147.828 56.1647 147.117 55.974C146.424 55.766 145.791 55.4193 145.219 54.934C144.647 54.4313 144.17 53.764 143.789 52.932C143.425 52.0827 143.243 51.0253 143.243 49.76C143.243 49.3093 143.269 48.798 143.321 48.226C143.39 47.6367 143.52 47.0387 143.711 46.432C143.902 45.808 144.153 45.2013 144.465 44.612C144.794 44.0053 145.228 43.468 145.765 43C146.302 42.532 146.944 42.1593 147.689 41.882C148.452 41.5873 149.353 41.44 150.393 41.44C151.242 41.44 151.97 41.544 152.577 41.752C153.201 41.9427 153.712 42.2113 154.111 42.558C154.51 42.8873 154.804 43.2773 154.995 43.728C155.203 44.1787 155.307 44.664 155.307 45.184C155.307 46.12 155.012 46.8133 154.423 47.264C153.834 47.6973 153.002 47.914 151.927 47.914C151.667 47.914 151.485 47.8967 151.381 47.862C151.294 47.81 151.251 47.706 151.251 47.55C151.251 47.134 151.242 46.7613 151.225 46.432C151.208 46.1027 151.156 45.8253 151.069 45.6C151 45.3747 150.887 45.2013 150.731 45.08C150.575 44.9587 150.35 44.898 150.055 44.898C149.518 44.898 149.084 45.0713 148.755 45.418C148.443 45.7647 148.2 46.1893 148.027 46.692C147.871 47.1773 147.767 47.68 147.715 48.2C147.68 48.72 147.663 49.1533 147.663 49.5C147.663 50.7307 147.854 51.5887 148.235 52.074C148.634 52.5593 149.258 52.802 150.107 52.802ZM162.66 56.26C161.897 56.26 161.135 56.1647 160.372 55.974C159.627 55.7833 158.951 55.454 158.344 54.986C157.755 54.518 157.269 53.894 156.888 53.114C156.507 52.334 156.316 51.3547 156.316 50.176C156.316 49.7427 156.351 49.2227 156.42 48.616C156.489 48.0093 156.619 47.3853 156.81 46.744C157.018 46.1027 157.295 45.47 157.642 44.846C158.006 44.2047 158.474 43.6327 159.046 43.13C159.618 42.6273 160.311 42.22 161.126 41.908C161.941 41.596 162.911 41.44 164.038 41.44C164.939 41.44 165.702 41.544 166.326 41.752C166.95 41.96 167.453 42.246 167.834 42.61C168.215 42.9567 168.493 43.364 168.666 43.832C168.839 44.3 168.926 44.8027 168.926 45.34C168.926 46.1373 168.761 46.8133 168.432 47.368C168.12 47.9227 167.704 48.3907 167.184 48.772C166.681 49.136 166.118 49.422 165.494 49.63C164.87 49.838 164.255 50.0027 163.648 50.124C163.041 50.228 162.478 50.2973 161.958 50.332C161.455 50.3493 161.065 50.358 160.788 50.358C160.788 50.6873 160.831 51.0167 160.918 51.346C161.022 51.658 161.169 51.9353 161.36 52.178C161.551 52.4207 161.802 52.62 162.114 52.776C162.426 52.932 162.807 53.01 163.258 53.01C163.709 53.01 164.055 52.9407 164.298 52.802C164.558 52.646 164.766 52.4813 164.922 52.308C165.078 52.1173 165.208 51.9527 165.312 51.814C165.433 51.658 165.589 51.58 165.78 51.58C165.867 51.58 166.014 51.606 166.222 51.658C166.447 51.6927 166.673 51.7793 166.898 51.918C167.123 52.0567 167.323 52.2473 167.496 52.49C167.669 52.7327 167.756 53.0447 167.756 53.426C167.756 53.9287 167.6 54.362 167.288 54.726C166.976 55.09 166.569 55.3847 166.066 55.61C165.581 55.8353 165.035 56 164.428 56.104C163.821 56.208 163.232 56.26 162.66 56.26ZM163.154 44.898C162.773 44.898 162.443 45.0107 162.166 45.236C161.906 45.444 161.681 45.7127 161.49 46.042C161.317 46.3713 161.178 46.7353 161.074 47.134C160.987 47.5327 160.918 47.914 160.866 48.278C161.941 48.2607 162.807 48.0787 163.466 47.732C164.142 47.3853 164.48 46.8913 164.48 46.25C164.48 45.9033 164.367 45.5913 164.142 45.314C163.934 45.0367 163.605 44.898 163.154 44.898ZM181.824 56.26C180.489 56.26 179.432 56.0693 178.652 55.688C177.872 55.2893 177.283 54.7953 176.884 54.206C176.485 53.6167 176.234 52.984 176.13 52.308C176.026 51.6147 175.974 50.982 175.974 50.41C175.974 50.1847 175.991 49.7427 176.026 49.084C176.078 48.4253 176.139 47.6627 176.208 46.796C176.277 45.9293 176.347 45.0107 176.416 44.04C176.485 43.052 176.555 42.1247 176.624 41.258C176.693 40.374 176.745 39.594 176.78 38.918C176.832 38.242 176.858 37.774 176.858 37.514C176.858 37.1327 176.884 36.916 176.936 36.864C176.988 36.7947 177.144 36.76 177.404 36.76H178.418C178.938 36.76 179.371 36.8207 179.718 36.942C180.065 37.0633 180.342 37.228 180.55 37.436C180.758 37.644 180.905 37.8867 180.992 38.164C181.079 38.424 181.122 38.71 181.122 39.022C181.122 39.3167 181.087 39.8887 181.018 40.738C180.966 41.5873 180.897 42.584 180.81 43.728C181.261 42.948 181.772 42.376 182.344 42.012C182.916 41.6307 183.67 41.44 184.606 41.44C186.183 41.44 187.388 41.96 188.22 43C189.069 44.04 189.494 45.5913 189.494 47.654C189.494 48.1913 189.451 48.7807 189.364 49.422C189.295 50.0633 189.156 50.7047 188.948 51.346C188.757 51.97 188.48 52.5853 188.116 53.192C187.769 53.7813 187.31 54.3013 186.738 54.752C186.166 55.2027 185.473 55.5667 184.658 55.844C183.861 56.1213 182.916 56.26 181.824 56.26ZM182.994 44.898C182.37 44.898 181.876 45.0627 181.512 45.392C181.165 45.7213 180.897 46.12 180.706 46.588C180.515 47.056 180.394 47.5587 180.342 48.096C180.29 48.616 180.264 49.0753 180.264 49.474C180.264 50.67 180.429 51.528 180.758 52.048C181.087 52.5507 181.581 52.802 182.24 52.802C182.864 52.802 183.349 52.6113 183.696 52.23C184.06 51.8313 184.329 51.3633 184.502 50.826C184.693 50.2887 184.814 49.7427 184.866 49.188C184.918 48.6333 184.944 48.2 184.944 47.888C184.944 46.9173 184.797 46.1807 184.502 45.678C184.207 45.158 183.705 44.898 182.994 44.898ZM196.322 43.91C196.322 44.274 196.287 44.7853 196.218 45.444C196.166 46.1027 196.105 46.7873 196.036 47.498C195.984 48.2087 195.923 48.876 195.854 49.5C195.802 50.124 195.776 50.5747 195.776 50.852C195.776 51.4587 195.923 51.9353 196.218 52.282C196.53 52.6113 196.954 52.776 197.492 52.776C197.96 52.776 198.35 52.594 198.662 52.23C198.991 51.8487 199.251 51.3633 199.442 50.774C199.65 50.1673 199.814 49.4827 199.936 48.72C200.057 47.9573 200.144 47.186 200.196 46.406C200.265 45.626 200.317 44.872 200.352 44.144C200.404 43.3987 200.456 42.7573 200.508 42.22C200.525 42.0813 200.577 41.96 200.664 41.856C200.75 41.752 200.889 41.7 201.08 41.7H202.016C202.553 41.7 202.986 41.7607 203.316 41.882C203.662 41.986 203.931 42.142 204.122 42.35C204.33 42.558 204.468 42.818 204.538 43.13C204.624 43.4247 204.668 43.7713 204.668 44.17C204.668 44.43 204.65 44.8027 204.616 45.288C204.598 45.756 204.555 46.4147 204.486 47.264C204.416 48.096 204.33 49.162 204.226 50.462C204.139 51.7447 204.026 53.3393 203.888 55.246C203.853 55.61 203.81 55.8267 203.758 55.896C203.723 55.9653 203.584 56 203.342 56H202.328C201.808 56 201.374 55.9393 201.028 55.818C200.698 55.6967 200.43 55.5407 200.222 55.35C200.014 55.1593 199.866 54.934 199.78 54.674C199.693 54.414 199.641 54.1453 199.624 53.868C199.364 54.3187 199.069 54.7 198.74 55.012C198.428 55.324 198.098 55.5753 197.752 55.766C197.405 55.9393 197.05 56.0607 196.686 56.13C196.322 56.2167 195.966 56.26 195.62 56.26C194.961 56.26 194.372 56.156 193.852 55.948C193.332 55.7227 192.89 55.428 192.526 55.064C192.179 54.7 191.91 54.2667 191.72 53.764C191.529 53.2613 191.434 52.724 191.434 52.152C191.434 51.9267 191.442 51.5627 191.46 51.06C191.494 50.54 191.529 49.9593 191.564 49.318C191.616 48.6767 191.668 48.0007 191.72 47.29C191.772 46.562 191.815 45.8773 191.85 45.236C191.902 44.5947 191.945 44.0313 191.98 43.546C192.032 43.0607 192.066 42.714 192.084 42.506C192.118 42.194 192.188 41.986 192.292 41.882C192.396 41.7607 192.569 41.7 192.812 41.7H193.644C194.181 41.7 194.623 41.752 194.97 41.856C195.316 41.96 195.585 42.1073 195.776 42.298C195.984 42.4887 196.122 42.7227 196.192 43C196.278 43.26 196.322 43.5633 196.322 43.91ZM212.432 45.21C212.38 45.8687 212.319 46.5187 212.25 47.16C212.198 47.8013 212.146 48.408 212.094 48.98C212.042 49.552 211.998 50.0633 211.964 50.514C211.946 50.9647 211.938 51.3113 211.938 51.554C211.938 52.0047 211.99 52.308 212.094 52.464C212.198 52.6027 212.371 52.672 212.614 52.672C212.804 52.672 212.969 52.6373 213.108 52.568C213.246 52.4987 213.376 52.4207 213.498 52.334C213.619 52.2473 213.723 52.1693 213.81 52.1C213.914 52.0307 214.026 51.996 214.148 51.996C214.269 51.996 214.382 52.0653 214.486 52.204C214.59 52.3427 214.642 52.6633 214.642 53.166C214.642 54.1193 214.382 54.8733 213.862 55.428C213.342 55.9827 212.449 56.26 211.184 56.26C209.936 56.26 209.008 55.974 208.402 55.402C207.812 54.8127 207.518 53.92 207.518 52.724C207.518 52.464 207.526 52.1607 207.544 51.814C207.578 51.45 207.622 50.982 207.674 50.41C207.726 49.838 207.786 49.136 207.856 48.304C207.942 47.472 208.029 46.4407 208.116 45.21H206.738C206.599 45.21 206.512 45.184 206.478 45.132C206.46 45.0627 206.452 44.9673 206.452 44.846L206.53 43.52C206.547 43.2947 206.573 43.078 206.608 42.87C206.66 42.6447 206.746 42.4453 206.868 42.272C207.006 42.0987 207.197 41.96 207.44 41.856C207.682 41.752 208.003 41.7 208.402 41.7C208.523 41.388 208.662 41.0153 208.818 40.582C208.974 40.1487 209.13 39.7327 209.286 39.334C209.442 38.918 209.589 38.5713 209.728 38.294C209.884 38.0167 210.022 37.878 210.144 37.878H210.898C211.626 37.878 212.128 38.1033 212.406 38.554C212.683 39.0047 212.822 39.542 212.822 40.166C212.822 40.5127 212.796 41.024 212.744 41.7H215.474C215.751 41.7 215.89 41.8213 215.89 42.064L215.786 43.468C215.751 43.988 215.604 44.4127 215.344 44.742C215.101 45.054 214.59 45.21 213.81 45.21H212.432ZM231.47 53.712C231.47 53.3307 231.496 52.8367 231.548 52.23C231.618 51.606 231.678 50.956 231.73 50.28C231.8 49.5867 231.86 48.9193 231.912 48.278C231.982 47.6367 232.016 47.0993 232.016 46.666C232.016 46.2153 231.904 45.8167 231.678 45.47C231.47 45.106 231.054 44.924 230.43 44.924C229.824 44.924 229.321 45.0713 228.922 45.366C228.524 45.6607 228.186 46.198 227.908 46.978C227.648 47.758 227.432 48.8327 227.258 50.202C227.085 51.5713 226.92 53.3307 226.764 55.48C226.747 55.688 226.704 55.8267 226.634 55.896C226.565 55.9653 226.418 56 226.192 56H225.256C224.719 56 224.277 55.948 223.93 55.844C223.601 55.7227 223.332 55.558 223.124 55.35C222.934 55.142 222.795 54.8907 222.708 54.596C222.639 54.284 222.604 53.9287 222.604 53.53C222.604 53.27 222.613 52.906 222.63 52.438C222.665 51.9527 222.717 51.294 222.786 50.462C222.856 49.6127 222.934 48.5467 223.02 47.264C223.124 45.964 223.246 44.3607 223.384 42.454C223.402 42.0727 223.445 41.8473 223.514 41.778C223.566 41.726 223.705 41.7 223.93 41.7H224.944C225.464 41.7 225.889 41.7607 226.218 41.882C226.565 42.0033 226.842 42.168 227.05 42.376C227.258 42.5667 227.406 42.8007 227.492 43.078C227.579 43.338 227.631 43.6067 227.648 43.884C228.186 42.9653 228.801 42.3327 229.494 41.986C230.188 41.622 231.054 41.44 232.094 41.44C232.822 41.44 233.455 41.518 233.992 41.674C234.53 41.83 234.972 42.0987 235.318 42.48C235.682 42.844 235.951 43.3293 236.124 43.936C236.298 44.5253 236.384 45.262 236.384 46.146C236.384 46.4233 236.367 46.822 236.332 47.342C236.298 47.862 236.254 48.434 236.202 49.058C236.15 49.6647 236.09 50.306 236.02 50.982C235.968 51.6407 235.916 52.256 235.864 52.828C235.812 53.4 235.769 53.9027 235.734 54.336C235.7 54.7693 235.682 55.0553 235.682 55.194C235.682 55.5753 235.639 55.8093 235.552 55.896C235.466 55.9653 235.275 56 234.98 56H234.148C233.594 56 233.143 55.948 232.796 55.844C232.45 55.74 232.181 55.5927 231.99 55.402C231.8 55.2113 231.661 54.9773 231.574 54.7C231.505 54.4053 231.47 54.076 231.47 53.712ZM244.422 56.26C243.226 56.26 242.229 56.0953 241.432 55.766C240.652 55.4193 240.028 54.9513 239.56 54.362C239.092 53.7727 238.763 53.088 238.572 52.308C238.381 51.5107 238.286 50.6613 238.286 49.76C238.286 48.72 238.407 47.706 238.65 46.718C238.91 45.7127 239.343 44.82 239.95 44.04C240.557 43.26 241.354 42.636 242.342 42.168C243.347 41.6827 244.595 41.44 246.086 41.44C248.27 41.44 249.83 41.9773 250.766 43.052C251.719 44.1093 252.196 45.6 252.196 47.524C252.196 48.0613 252.153 48.6593 252.066 49.318C251.997 49.9593 251.849 50.6007 251.624 51.242C251.416 51.8833 251.121 52.5073 250.74 53.114C250.376 53.7207 249.908 54.258 249.336 54.726C248.764 55.194 248.071 55.5667 247.256 55.844C246.459 56.1213 245.514 56.26 244.422 56.26ZM245.644 44.898C244.985 44.898 244.457 45.0713 244.058 45.418C243.677 45.7473 243.382 46.1547 243.174 46.64C242.983 47.108 242.853 47.6107 242.784 48.148C242.732 48.668 242.706 49.11 242.706 49.474C242.706 50.618 242.888 51.4587 243.252 51.996C243.616 52.5333 244.136 52.802 244.812 52.802C245.419 52.802 245.913 52.6113 246.294 52.23C246.693 51.8487 246.996 51.3893 247.204 50.852C247.429 50.3147 247.577 49.7513 247.646 49.162C247.733 48.5727 247.776 48.0787 247.776 47.68C247.776 46.8133 247.611 46.1373 247.282 45.652C246.97 45.1493 246.424 44.898 245.644 44.898ZM265.521 56.26C264.758 56.26 263.996 56.1647 263.233 55.974C262.488 55.7833 261.812 55.454 261.205 54.986C260.616 54.518 260.13 53.894 259.749 53.114C259.368 52.334 259.177 51.3547 259.177 50.176C259.177 49.7427 259.212 49.2227 259.281 48.616C259.35 48.0093 259.48 47.3853 259.671 46.744C259.879 46.1027 260.156 45.47 260.503 44.846C260.867 44.2047 261.335 43.6327 261.907 43.13C262.479 42.6273 263.172 42.22 263.987 41.908C264.802 41.596 265.772 41.44 266.899 41.44C267.8 41.44 268.563 41.544 269.187 41.752C269.811 41.96 270.314 42.246 270.695 42.61C271.076 42.9567 271.354 43.364 271.527 43.832C271.7 44.3 271.787 44.8027 271.787 45.34C271.787 46.1373 271.622 46.8133 271.293 47.368C270.981 47.9227 270.565 48.3907 270.045 48.772C269.542 49.136 268.979 49.422 268.355 49.63C267.731 49.838 267.116 50.0027 266.509 50.124C265.902 50.228 265.339 50.2973 264.819 50.332C264.316 50.3493 263.926 50.358 263.649 50.358C263.649 50.6873 263.692 51.0167 263.779 51.346C263.883 51.658 264.03 51.9353 264.221 52.178C264.412 52.4207 264.663 52.62 264.975 52.776C265.287 52.932 265.668 53.01 266.119 53.01C266.57 53.01 266.916 52.9407 267.159 52.802C267.419 52.646 267.627 52.4813 267.783 52.308C267.939 52.1173 268.069 51.9527 268.173 51.814C268.294 51.658 268.45 51.58 268.641 51.58C268.728 51.58 268.875 51.606 269.083 51.658C269.308 51.6927 269.534 51.7793 269.759 51.918C269.984 52.0567 270.184 52.2473 270.357 52.49C270.53 52.7327 270.617 53.0447 270.617 53.426C270.617 53.9287 270.461 54.362 270.149 54.726C269.837 55.09 269.43 55.3847 268.927 55.61C268.442 55.8353 267.896 56 267.289 56.104C266.682 56.208 266.093 56.26 265.521 56.26ZM266.015 44.898C265.634 44.898 265.304 45.0107 265.027 45.236C264.767 45.444 264.542 45.7127 264.351 46.042C264.178 46.3713 264.039 46.7353 263.935 47.134C263.848 47.5327 263.779 47.914 263.727 48.278C264.802 48.2607 265.668 48.0787 266.327 47.732C267.003 47.3853 267.341 46.8913 267.341 46.25C267.341 45.9033 267.228 45.5913 267.003 45.314C266.795 45.0367 266.466 44.898 266.015 44.898ZM278.215 44.092C278.215 44.4907 278.189 44.9673 278.137 45.522C278.085 46.0593 278.024 46.6053 277.955 47.16C277.903 47.6973 277.851 48.2087 277.799 48.694C277.747 49.162 277.721 49.526 277.721 49.786C277.721 50.4447 277.877 50.9387 278.189 51.268C278.518 51.58 278.917 51.736 279.385 51.736C280.2 51.736 280.85 51.3113 281.335 50.462C281.82 49.6127 282.124 48.486 282.245 47.082L282.661 42.22C282.678 42.0293 282.739 41.8993 282.843 41.83C282.964 41.7433 283.094 41.7 283.233 41.7H284.169C284.533 41.7 284.871 41.7347 285.183 41.804C285.512 41.856 285.798 41.9687 286.041 42.142C286.284 42.298 286.474 42.5147 286.613 42.792C286.752 43.0693 286.821 43.4247 286.821 43.858C286.821 44.0313 286.804 44.3607 286.769 44.846C286.752 45.314 286.708 45.9987 286.639 46.9C286.587 47.784 286.509 48.9107 286.405 50.28C286.301 51.632 286.18 53.2873 286.041 55.246C285.954 56.39 285.694 57.3347 285.261 58.08C284.845 58.8427 284.316 59.4407 283.675 59.874C283.034 60.3247 282.314 60.6367 281.517 60.81C280.72 60.9833 279.905 61.07 279.073 61.07C278.189 61.07 277.374 60.992 276.629 60.836C275.901 60.68 275.268 60.4633 274.731 60.186C274.194 59.9087 273.769 59.588 273.457 59.224C273.162 58.86 273.015 58.47 273.015 58.054C273.015 57.7247 273.084 57.4387 273.223 57.196C273.379 56.9533 273.578 56.754 273.821 56.598C274.064 56.442 274.341 56.3207 274.653 56.234C274.982 56.1647 275.32 56.13 275.667 56.13C275.84 56.13 275.962 56.2167 276.031 56.39C276.118 56.5633 276.239 56.754 276.395 56.962C276.568 57.1873 276.837 57.3867 277.201 57.56C277.565 57.7333 278.111 57.82 278.839 57.82C279.48 57.82 280 57.664 280.399 57.352C280.798 57.04 281.101 56.6413 281.309 56.156C281.534 55.6707 281.682 55.142 281.751 54.57C281.82 53.998 281.855 53.452 281.855 52.932C281.578 53.4173 281.266 53.816 280.919 54.128C280.59 54.4227 280.243 54.6567 279.879 54.83C279.515 54.986 279.151 55.09 278.787 55.142C278.423 55.194 278.076 55.22 277.747 55.22C277.106 55.22 276.516 55.1333 275.979 54.96C275.459 54.7867 275.008 54.5093 274.627 54.128C274.246 53.7293 273.951 53.218 273.743 52.594C273.535 51.97 273.431 51.216 273.431 50.332C273.431 50.0027 273.448 49.5693 273.483 49.032C273.518 48.4773 273.561 47.862 273.613 47.186C273.665 46.4927 273.717 45.7473 273.769 44.95C273.838 44.1527 273.908 43.338 273.977 42.506C274.012 41.9687 274.254 41.7 274.705 41.7H275.537C276.092 41.7 276.542 41.752 276.889 41.856C277.236 41.96 277.504 42.116 277.695 42.324C277.903 42.5147 278.042 42.766 278.111 43.078C278.18 43.3727 278.215 43.7107 278.215 44.092ZM295.02 56.26C294.257 56.26 293.495 56.1647 292.732 55.974C291.987 55.7833 291.311 55.454 290.704 54.986C290.115 54.518 289.629 53.894 289.248 53.114C288.867 52.334 288.676 51.3547 288.676 50.176C288.676 49.7427 288.711 49.2227 288.78 48.616C288.849 48.0093 288.979 47.3853 289.17 46.744C289.378 46.1027 289.655 45.47 290.002 44.846C290.366 44.2047 290.834 43.6327 291.406 43.13C291.978 42.6273 292.671 42.22 293.486 41.908C294.301 41.596 295.271 41.44 296.398 41.44C297.299 41.44 298.062 41.544 298.686 41.752C299.31 41.96 299.813 42.246 300.194 42.61C300.575 42.9567 300.853 43.364 301.026 43.832C301.199 44.3 301.286 44.8027 301.286 45.34C301.286 46.1373 301.121 46.8133 300.792 47.368C300.48 47.9227 300.064 48.3907 299.544 48.772C299.041 49.136 298.478 49.422 297.854 49.63C297.23 49.838 296.615 50.0027 296.008 50.124C295.401 50.228 294.838 50.2973 294.318 50.332C293.815 50.3493 293.425 50.358 293.148 50.358C293.148 50.6873 293.191 51.0167 293.278 51.346C293.382 51.658 293.529 51.9353 293.72 52.178C293.911 52.4207 294.162 52.62 294.474 52.776C294.786 52.932 295.167 53.01 295.618 53.01C296.069 53.01 296.415 52.9407 296.658 52.802C296.918 52.646 297.126 52.4813 297.282 52.308C297.438 52.1173 297.568 51.9527 297.672 51.814C297.793 51.658 297.949 51.58 298.14 51.58C298.227 51.58 298.374 51.606 298.582 51.658C298.807 51.6927 299.033 51.7793 299.258 51.918C299.483 52.0567 299.683 52.2473 299.856 52.49C300.029 52.7327 300.116 53.0447 300.116 53.426C300.116 53.9287 299.96 54.362 299.648 54.726C299.336 55.09 298.929 55.3847 298.426 55.61C297.941 55.8353 297.395 56 296.788 56.104C296.181 56.208 295.592 56.26 295.02 56.26ZM295.514 44.898C295.133 44.898 294.803 45.0107 294.526 45.236C294.266 45.444 294.041 45.7127 293.85 46.042C293.677 46.3713 293.538 46.7353 293.434 47.134C293.347 47.5327 293.278 47.914 293.226 48.278C294.301 48.2607 295.167 48.0787 295.826 47.732C296.502 47.3853 296.84 46.8913 296.84 46.25C296.84 45.9033 296.727 45.5913 296.502 45.314C296.294 45.0367 295.965 44.898 295.514 44.898ZM308.806 41.44C310.279 41.44 311.363 41.7347 312.056 42.324C312.749 42.896 313.096 43.6327 313.096 44.534C313.096 45.2967 312.853 45.8773 312.368 46.276C311.9 46.6747 311.215 46.874 310.314 46.874C310.071 46.874 309.907 46.848 309.82 46.796C309.733 46.744 309.69 46.6487 309.69 46.51C309.69 46.354 309.673 46.1807 309.638 45.99C309.621 45.782 309.56 45.5913 309.456 45.418C309.369 45.2273 309.222 45.0713 309.014 44.95C308.823 44.8287 308.546 44.768 308.182 44.768C307.697 44.768 307.307 44.8893 307.012 45.132C306.717 45.3573 306.57 45.6433 306.57 45.99C306.57 46.354 306.717 46.6487 307.012 46.874C307.324 47.082 307.705 47.2813 308.156 47.472C308.624 47.6627 309.127 47.862 309.664 48.07C310.201 48.2607 310.695 48.5207 311.146 48.85C311.614 49.1793 311.995 49.5953 312.29 50.098C312.602 50.5833 312.758 51.216 312.758 51.996C312.758 53.244 312.316 54.2667 311.432 55.064C310.548 55.8613 309.222 56.26 307.454 56.26C306.969 56.26 306.405 56.2167 305.764 56.13C305.14 56.0607 304.542 55.948 303.97 55.792C303.398 55.6187 302.913 55.3933 302.514 55.116C302.133 54.8387 301.942 54.492 301.942 54.076C301.942 53.92 301.968 53.7293 302.02 53.504C302.089 53.2787 302.185 53.062 302.306 52.854C302.445 52.646 302.601 52.4727 302.774 52.334C302.965 52.178 303.19 52.1 303.45 52.1C303.658 52.1 303.849 52.152 304.022 52.256C304.195 52.36 304.395 52.4727 304.62 52.594C304.863 52.698 305.157 52.802 305.504 52.906C305.851 53.01 306.31 53.062 306.882 53.062C307.315 53.062 307.697 53.01 308.026 52.906C308.373 52.802 308.546 52.568 308.546 52.204C308.546 51.8747 308.407 51.6147 308.13 51.424C307.853 51.216 307.497 51.0253 307.064 50.852C306.648 50.6787 306.189 50.4967 305.686 50.306C305.201 50.098 304.741 49.8293 304.308 49.5C303.892 49.1707 303.545 48.7547 303.268 48.252C302.991 47.732 302.852 47.0647 302.852 46.25C302.852 45.366 303.025 44.6207 303.372 44.014C303.736 43.39 304.195 42.8873 304.75 42.506C305.322 42.1247 305.963 41.856 306.674 41.7C307.385 41.5267 308.095 41.44 308.806 41.44ZM25.378 86.802C25.378 85.242 26.08 84.02 27.484 83.136C28.888 82.252 30.9593 81.7753 33.698 81.706C33.7153 81.5153 33.724 81.3593 33.724 81.238C33.7413 81.0993 33.75 80.9347 33.75 80.744C33.75 80.1893 33.646 79.7473 33.438 79.418C33.23 79.0887 32.7967 78.924 32.138 78.924C31.774 78.924 31.4793 78.976 31.254 79.08C31.0287 79.184 30.8467 79.3313 30.708 79.522C30.5693 79.6953 30.4567 79.912 30.37 80.172C30.2833 80.432 30.2053 80.718 30.136 81.03C30.1013 81.186 30.0233 81.29 29.902 81.342C29.7807 81.3767 29.59 81.394 29.33 81.394C27.562 81.394 26.678 80.7267 26.678 79.392C26.678 78.8547 26.7993 78.3433 27.042 77.858C27.302 77.3727 27.6747 76.9567 28.16 76.61C28.6627 76.246 29.2867 75.96 30.032 75.752C30.7773 75.544 31.644 75.44 32.632 75.44C34.556 75.44 35.9513 75.8387 36.818 76.636C37.6847 77.4333 38.118 78.56 38.118 80.016C38.118 80.2067 38.092 80.5533 38.04 81.056C38.0053 81.5413 37.9533 82.0613 37.884 82.616C37.832 83.1533 37.78 83.6647 37.728 84.15C37.6933 84.6353 37.676 84.9733 37.676 85.164C37.676 85.5973 37.754 85.9093 37.91 86.1C38.066 86.2733 38.2393 86.3947 38.43 86.464C38.638 86.5333 38.82 86.5853 38.976 86.62C39.132 86.6547 39.21 86.7413 39.21 86.88C39.21 87.2613 39.158 87.6513 39.054 88.05C38.95 88.4487 38.7767 88.8127 38.534 89.142C38.3087 89.4713 37.988 89.74 37.572 89.948C37.1733 90.156 36.6793 90.26 36.09 90.26C35.258 90.26 34.634 90.0607 34.218 89.662C33.802 89.2633 33.5247 88.7087 33.386 87.998C32.97 88.6047 32.424 89.1333 31.748 89.584C31.0893 90.0347 30.2227 90.26 29.148 90.26C28.628 90.26 28.134 90.1993 27.666 90.078C27.2153 89.9567 26.8167 89.7573 26.47 89.48C26.1407 89.2027 25.872 88.8473 25.664 88.414C25.4733 87.9633 25.378 87.426 25.378 86.802ZM33.464 83.838C33.0133 83.838 32.5713 83.8727 32.138 83.942C31.7047 84.0113 31.3147 84.124 30.968 84.28C30.6387 84.4187 30.37 84.6093 30.162 84.852C29.954 85.0947 29.85 85.3893 29.85 85.736C29.85 86.1347 29.9713 86.412 30.214 86.568C30.474 86.724 30.7513 86.802 31.046 86.802C31.3233 86.802 31.6007 86.7413 31.878 86.62C32.1553 86.4987 32.398 86.3167 32.606 86.074C32.8313 85.814 33.022 85.502 33.178 85.138C33.334 84.774 33.4293 84.3407 33.464 83.838ZM49.5704 87.712C49.5704 87.3307 49.5964 86.8367 49.6484 86.23C49.7177 85.606 49.7784 84.956 49.8304 84.28C49.8997 83.5867 49.9604 82.9193 50.0124 82.278C50.0817 81.6367 50.1164 81.0993 50.1164 80.666C50.1164 80.2153 50.0037 79.8167 49.7784 79.47C49.5704 79.106 49.1544 78.924 48.5304 78.924C47.9237 78.924 47.4211 79.0713 47.0224 79.366C46.6237 79.6607 46.2857 80.198 46.0084 80.978C45.7484 81.758 45.5317 82.8327 45.3584 84.202C45.1851 85.5713 45.0204 87.3307 44.8644 89.48C44.8471 89.688 44.8037 89.8267 44.7344 89.896C44.6651 89.9653 44.5177 90 44.2924 90H43.3564C42.8191 90 42.3771 89.948 42.0304 89.844C41.7011 89.7227 41.4324 89.558 41.2244 89.35C41.0337 89.142 40.8951 88.8907 40.8084 88.596C40.7391 88.284 40.7044 87.9287 40.7044 87.53C40.7044 87.27 40.7131 86.906 40.7304 86.438C40.7651 85.9527 40.8171 85.294 40.8864 84.462C40.9557 83.6127 41.0337 82.5467 41.1204 81.264C41.2244 79.964 41.3457 78.3607 41.4844 76.454C41.5017 76.0727 41.5451 75.8473 41.6144 75.778C41.6664 75.726 41.8051 75.7 42.0304 75.7H43.0444C43.5644 75.7 43.9891 75.7607 44.3184 75.882C44.6651 76.0033 44.9424 76.168 45.1504 76.376C45.3584 76.5667 45.5057 76.8007 45.5924 77.078C45.6791 77.338 45.7311 77.6067 45.7484 77.884C46.2857 76.9653 46.9011 76.3327 47.5944 75.986C48.2877 75.622 49.1544 75.44 50.1944 75.44C50.9224 75.44 51.5551 75.518 52.0924 75.674C52.6297 75.83 53.0717 76.0987 53.4184 76.48C53.7824 76.844 54.0511 77.3293 54.2244 77.936C54.3977 78.5253 54.4844 79.262 54.4844 80.146C54.4844 80.4233 54.4671 80.822 54.4324 81.342C54.3977 81.862 54.3544 82.434 54.3024 83.058C54.2504 83.6647 54.1897 84.306 54.1204 84.982C54.0684 85.6407 54.0164 86.256 53.9644 86.828C53.9124 87.4 53.8691 87.9027 53.8344 88.336C53.7997 88.7693 53.7824 89.0553 53.7824 89.194C53.7824 89.5753 53.7391 89.8093 53.6524 89.896C53.5657 89.9653 53.3751 90 53.0804 90H52.2484C51.6937 90 51.2431 89.948 50.8964 89.844C50.5497 89.74 50.2811 89.5927 50.0904 89.402C49.8997 89.2113 49.7611 88.9773 49.6744 88.7C49.6051 88.4053 49.5704 88.076 49.5704 87.712ZM61.456 90.26C60.78 90.26 60.13 90.1387 59.506 89.896C58.8994 89.6533 58.362 89.272 57.894 88.752C57.4434 88.232 57.0794 87.5733 56.802 86.776C56.542 85.9787 56.412 85.0167 56.412 83.89C56.412 83.3873 56.4467 82.8327 56.516 82.226C56.5854 81.602 56.7067 80.978 56.88 80.354C57.0534 79.73 57.296 79.1233 57.608 78.534C57.92 77.9447 58.31 77.4247 58.778 76.974C59.2634 76.506 59.8354 76.1333 60.494 75.856C61.17 75.5787 61.9587 75.44 62.86 75.44C63.7267 75.44 64.42 75.596 64.94 75.908C65.4774 76.2027 65.8154 76.7227 65.954 77.468C65.9887 76.792 66.0234 76.2027 66.058 75.7C66.0927 75.1973 66.1187 74.7293 66.136 74.296C66.1707 73.8627 66.2054 73.4293 66.24 72.996C66.2747 72.5627 66.3094 72.0687 66.344 71.514C66.3614 71.1327 66.4047 70.9073 66.474 70.838C66.5087 70.8033 66.552 70.786 66.604 70.786C66.656 70.7687 66.7514 70.76 66.89 70.76H67.904C68.424 70.76 68.8574 70.8207 69.204 70.942C69.5507 71.0633 69.828 71.228 70.036 71.436C70.244 71.644 70.3914 71.8867 70.478 72.164C70.5647 72.424 70.608 72.7013 70.608 72.996C70.608 72.996 70.5907 73.2127 70.556 73.646C70.5214 74.0793 70.478 74.66 70.426 75.388C70.374 76.0987 70.3134 76.9133 70.244 77.832C70.1747 78.7507 70.1054 79.704 70.036 80.692C69.9667 81.6627 69.8974 82.6333 69.828 83.604C69.7587 84.5573 69.6894 85.4413 69.62 86.256C69.5507 87.0533 69.49 87.7467 69.438 88.336C69.4034 88.908 69.3774 89.2893 69.36 89.48C69.3254 89.688 69.282 89.8267 69.23 89.896C69.178 89.9653 69.0307 90 68.788 90H67.852C67.488 90 67.1414 89.974 66.812 89.922C66.5 89.8527 66.2227 89.7487 65.98 89.61C65.7547 89.454 65.5727 89.2547 65.434 89.012C65.3127 88.752 65.252 88.4227 65.252 88.024C64.94 88.6827 64.4634 89.22 63.822 89.636C63.198 90.052 62.4094 90.26 61.456 90.26ZM63.718 78.898C62.834 78.898 62.1754 79.288 61.742 80.068C61.326 80.8307 61.118 81.862 61.118 83.162C61.118 83.6127 61.144 84.0547 61.196 84.488C61.2654 84.9213 61.378 85.3113 61.534 85.658C61.69 86.0047 61.898 86.282 62.158 86.49C62.4354 86.698 62.782 86.802 63.198 86.802C63.9434 86.802 64.5674 86.438 65.07 85.71C65.5727 84.982 65.824 83.838 65.824 82.278C65.824 81.8447 65.798 81.4287 65.746 81.03C65.694 80.614 65.59 80.25 65.434 79.938C65.278 79.626 65.0614 79.3747 64.784 79.184C64.5067 78.9933 64.1514 78.898 63.718 78.898ZM86.5263 86.776C86.5783 86.204 86.6303 85.606 86.6823 84.982C86.7517 84.358 86.8037 83.76 86.8383 83.188C86.8903 82.616 86.9337 82.1047 86.9683 81.654C87.003 81.2033 87.0203 80.874 87.0203 80.666C87.0203 80.2153 86.9077 79.8167 86.6823 79.47C86.4743 79.106 86.0583 78.924 85.4343 78.924C84.6023 78.924 83.9263 79.314 83.4063 80.094C82.9037 80.874 82.609 81.914 82.5223 83.214C82.4877 83.578 82.4443 84.0893 82.3923 84.748C82.3403 85.3893 82.2883 86.048 82.2363 86.724C82.1843 87.3827 82.1323 87.9807 82.0803 88.518C82.0457 89.038 82.0283 89.3587 82.0283 89.48C82.0283 89.688 81.985 89.8267 81.8983 89.896C81.829 89.9653 81.6817 90 81.4563 90H80.5203C79.983 90 79.541 89.948 79.1943 89.844C78.865 89.7227 78.5963 89.558 78.3883 89.35C78.1977 89.142 78.059 88.8907 77.9723 88.596C77.903 88.284 77.8683 87.9287 77.8683 87.53C77.8683 87.1487 77.8943 86.62 77.9463 85.944C78.0157 85.2507 78.1023 84.306 78.2063 83.11C78.3103 81.8967 78.4317 80.354 78.5703 78.482C78.709 76.61 78.8563 74.2873 79.0123 71.514C79.0297 71.1327 79.073 70.9073 79.1423 70.838C79.1943 70.786 79.333 70.76 79.5583 70.76H80.5723C81.0923 70.76 81.5257 70.8207 81.8723 70.942C82.219 71.0633 82.4963 71.228 82.7043 71.436C82.9123 71.644 83.0597 71.8867 83.1463 72.164C83.233 72.424 83.2763 72.7013 83.2763 72.996C83.2763 73.308 83.2417 73.8887 83.1723 74.738C83.1203 75.5873 83.051 76.584 82.9643 77.728C83.4843 76.8613 84.0563 76.2633 84.6803 75.934C85.3217 75.6047 86.1277 75.44 87.0983 75.44C87.8263 75.44 88.459 75.518 88.9963 75.674C89.5337 75.83 89.9757 76.0987 90.3223 76.48C90.6863 76.844 90.955 77.3293 91.1283 77.936C91.3017 78.5253 91.3883 79.262 91.3883 80.146C91.3883 80.4233 91.3623 80.9 91.3103 81.576C91.2583 82.252 91.189 83.0233 91.1023 83.89C91.033 84.7567 90.955 85.6667 90.8683 86.62C90.799 87.556 90.7383 88.414 90.6863 89.194C90.669 89.3847 90.6517 89.532 90.6343 89.636C90.617 89.74 90.5823 89.818 90.5303 89.87C90.4957 89.922 90.435 89.9567 90.3483 89.974C90.2617 89.9913 90.1403 90 89.9843 90H89.1523C88.5977 90 88.147 89.948 87.8003 89.844C87.4537 89.74 87.185 89.5927 86.9943 89.402C86.8037 89.2113 86.665 88.9773 86.5783 88.7C86.509 88.4053 86.4743 88.076 86.4743 87.712C86.4743 87.5387 86.4743 87.374 86.4743 87.218C86.4917 87.062 86.509 86.9147 86.5263 86.776ZM92.8287 86.802C92.8287 85.242 93.5307 84.02 94.9347 83.136C96.3387 82.252 98.41 81.7753 101.149 81.706C101.166 81.5153 101.175 81.3593 101.175 81.238C101.192 81.0993 101.201 80.9347 101.201 80.744C101.201 80.1893 101.097 79.7473 100.889 79.418C100.681 79.0887 100.247 78.924 99.5887 78.924C99.2247 78.924 98.93 78.976 98.7047 79.08C98.4794 79.184 98.2974 79.3313 98.1587 79.522C98.02 79.6953 97.9074 79.912 97.8207 80.172C97.734 80.432 97.656 80.718 97.5867 81.03C97.552 81.186 97.474 81.29 97.3527 81.342C97.2314 81.3767 97.0407 81.394 96.7807 81.394C95.0127 81.394 94.1287 80.7267 94.1287 79.392C94.1287 78.8547 94.25 78.3433 94.4927 77.858C94.7527 77.3727 95.1254 76.9567 95.6107 76.61C96.1134 76.246 96.7374 75.96 97.4827 75.752C98.228 75.544 99.0947 75.44 100.083 75.44C102.007 75.44 103.402 75.8387 104.269 76.636C105.135 77.4333 105.569 78.56 105.569 80.016C105.569 80.2067 105.543 80.5533 105.491 81.056C105.456 81.5413 105.404 82.0613 105.335 82.616C105.283 83.1533 105.231 83.6647 105.179 84.15C105.144 84.6353 105.127 84.9733 105.127 85.164C105.127 85.5973 105.205 85.9093 105.361 86.1C105.517 86.2733 105.69 86.3947 105.881 86.464C106.089 86.5333 106.271 86.5853 106.427 86.62C106.583 86.6547 106.661 86.7413 106.661 86.88C106.661 87.2613 106.609 87.6513 106.505 88.05C106.401 88.4487 106.227 88.8127 105.985 89.142C105.759 89.4713 105.439 89.74 105.023 89.948C104.624 90.156 104.13 90.26 103.541 90.26C102.709 90.26 102.085 90.0607 101.669 89.662C101.253 89.2633 100.975 88.7087 100.837 87.998C100.421 88.6047 99.8747 89.1333 99.1987 89.584C98.54 90.0347 97.6734 90.26 96.5987 90.26C96.0787 90.26 95.5847 90.1993 95.1167 90.078C94.666 89.9567 94.2674 89.7573 93.9207 89.48C93.5914 89.2027 93.3227 88.8473 93.1147 88.414C92.924 87.9633 92.8287 87.426 92.8287 86.802ZM100.915 83.838C100.464 83.838 100.022 83.8727 99.5887 83.942C99.1554 84.0113 98.7654 84.124 98.4187 84.28C98.0894 84.4187 97.8207 84.6093 97.6127 84.852C97.4047 85.0947 97.3007 85.3893 97.3007 85.736C97.3007 86.1347 97.422 86.412 97.6647 86.568C97.9247 86.724 98.202 86.802 98.4967 86.802C98.774 86.802 99.0514 86.7413 99.3287 86.62C99.606 86.4987 99.8487 86.3167 100.057 86.074C100.282 85.814 100.473 85.502 100.629 85.138C100.785 84.774 100.88 84.3407 100.915 83.838ZM117.021 87.712C117.021 87.3307 117.047 86.8367 117.099 86.23C117.168 85.606 117.229 84.956 117.281 84.28C117.35 83.5867 117.411 82.9193 117.463 82.278C117.532 81.6367 117.567 81.0993 117.567 80.666C117.567 80.2153 117.454 79.8167 117.229 79.47C117.021 79.106 116.605 78.924 115.981 78.924C115.374 78.924 114.872 79.0713 114.473 79.366C114.074 79.6607 113.736 80.198 113.459 80.978C113.199 81.758 112.982 82.8327 112.809 84.202C112.636 85.5713 112.471 87.3307 112.315 89.48C112.298 89.688 112.254 89.8267 112.185 89.896C112.116 89.9653 111.968 90 111.743 90H110.807C110.27 90 109.828 89.948 109.481 89.844C109.152 89.7227 108.883 89.558 108.675 89.35C108.484 89.142 108.346 88.8907 108.259 88.596C108.19 88.284 108.155 87.9287 108.155 87.53C108.155 87.27 108.164 86.906 108.181 86.438C108.216 85.9527 108.268 85.294 108.337 84.462C108.406 83.6127 108.484 82.5467 108.571 81.264C108.675 79.964 108.796 78.3607 108.935 76.454C108.952 76.0727 108.996 75.8473 109.065 75.778C109.117 75.726 109.256 75.7 109.481 75.7H110.495C111.015 75.7 111.44 75.7607 111.769 75.882C112.116 76.0033 112.393 76.168 112.601 76.376C112.809 76.5667 112.956 76.8007 113.043 77.078C113.13 77.338 113.182 77.6067 113.199 77.884C113.736 76.9653 114.352 76.3327 115.045 75.986C115.738 75.622 116.605 75.44 117.645 75.44C118.373 75.44 119.006 75.518 119.543 75.674C120.08 75.83 120.522 76.0987 120.869 76.48C121.233 76.844 121.502 77.3293 121.675 77.936C121.848 78.5253 121.935 79.262 121.935 80.146C121.935 80.4233 121.918 80.822 121.883 81.342C121.848 81.862 121.805 82.434 121.753 83.058C121.701 83.6647 121.64 84.306 121.571 84.982C121.519 85.6407 121.467 86.256 121.415 86.828C121.363 87.4 121.32 87.9027 121.285 88.336C121.25 88.7693 121.233 89.0553 121.233 89.194C121.233 89.5753 121.19 89.8093 121.103 89.896C121.016 89.9653 120.826 90 120.531 90H119.699C119.144 90 118.694 89.948 118.347 89.844C118 89.74 117.732 89.5927 117.541 89.402C117.35 89.2113 117.212 88.9773 117.125 88.7C117.056 88.4053 117.021 88.076 117.021 87.712ZM128.907 90.26C128.231 90.26 127.581 90.1387 126.957 89.896C126.35 89.6533 125.813 89.272 125.345 88.752C124.894 88.232 124.53 87.5733 124.253 86.776C123.993 85.9787 123.863 85.0167 123.863 83.89C123.863 83.3873 123.897 82.8327 123.967 82.226C124.036 81.602 124.157 80.978 124.331 80.354C124.504 79.73 124.747 79.1233 125.059 78.534C125.371 77.9447 125.761 77.4247 126.229 76.974C126.714 76.506 127.286 76.1333 127.945 75.856C128.621 75.5787 129.409 75.44 130.311 75.44C131.177 75.44 131.871 75.596 132.391 75.908C132.928 76.2027 133.266 76.7227 133.405 77.468C133.439 76.792 133.474 76.2027 133.509 75.7C133.543 75.1973 133.569 74.7293 133.587 74.296C133.621 73.8627 133.656 73.4293 133.691 72.996C133.725 72.5627 133.76 72.0687 133.795 71.514C133.812 71.1327 133.855 70.9073 133.925 70.838C133.959 70.8033 134.003 70.786 134.055 70.786C134.107 70.7687 134.202 70.76 134.341 70.76H135.355C135.875 70.76 136.308 70.8207 136.655 70.942C137.001 71.0633 137.279 71.228 137.487 71.436C137.695 71.644 137.842 71.8867 137.929 72.164C138.015 72.424 138.059 72.7013 138.059 72.996C138.059 72.996 138.041 73.2127 138.007 73.646C137.972 74.0793 137.929 74.66 137.877 75.388C137.825 76.0987 137.764 76.9133 137.695 77.832C137.625 78.7507 137.556 79.704 137.487 80.692C137.417 81.6627 137.348 82.6333 137.279 83.604C137.209 84.5573 137.14 85.4413 137.071 86.256C137.001 87.0533 136.941 87.7467 136.889 88.336C136.854 88.908 136.828 89.2893 136.811 89.48C136.776 89.688 136.733 89.8267 136.681 89.896C136.629 89.9653 136.481 90 136.239 90H135.303C134.939 90 134.592 89.974 134.263 89.922C133.951 89.8527 133.673 89.7487 133.431 89.61C133.205 89.454 133.023 89.2547 132.885 89.012C132.763 88.752 132.703 88.4227 132.703 88.024C132.391 88.6827 131.914 89.22 131.273 89.636C130.649 90.052 129.86 90.26 128.907 90.26ZM131.169 78.898C130.285 78.898 129.626 79.288 129.193 80.068C128.777 80.8307 128.569 81.862 128.569 83.162C128.569 83.6127 128.595 84.0547 128.647 84.488C128.716 84.9213 128.829 85.3113 128.985 85.658C129.141 86.0047 129.349 86.282 129.609 86.49C129.886 86.698 130.233 86.802 130.649 86.802C131.394 86.802 132.018 86.438 132.521 85.71C133.023 84.982 133.275 83.838 133.275 82.278C133.275 81.8447 133.249 81.4287 133.197 81.03C133.145 80.614 133.041 80.25 132.885 79.938C132.729 79.626 132.512 79.3747 132.235 79.184C131.957 78.9933 131.602 78.898 131.169 78.898ZM145.921 75.44C147.394 75.44 148.478 75.7347 149.171 76.324C149.864 76.896 150.211 77.6327 150.211 78.534C150.211 79.2967 149.968 79.8773 149.483 80.276C149.015 80.6747 148.33 80.874 147.429 80.874C147.186 80.874 147.022 80.848 146.935 80.796C146.848 80.744 146.805 80.6487 146.805 80.51C146.805 80.354 146.788 80.1807 146.753 79.99C146.736 79.782 146.675 79.5913 146.571 79.418C146.484 79.2273 146.337 79.0713 146.129 78.95C145.938 78.8287 145.661 78.768 145.297 78.768C144.812 78.768 144.422 78.8893 144.127 79.132C143.832 79.3573 143.685 79.6433 143.685 79.99C143.685 80.354 143.832 80.6487 144.127 80.874C144.439 81.082 144.82 81.2813 145.271 81.472C145.739 81.6627 146.242 81.862 146.779 82.07C147.316 82.2607 147.81 82.5207 148.261 82.85C148.729 83.1793 149.11 83.5953 149.405 84.098C149.717 84.5833 149.873 85.216 149.873 85.996C149.873 87.244 149.431 88.2667 148.547 89.064C147.663 89.8613 146.337 90.26 144.569 90.26C144.084 90.26 143.52 90.2167 142.879 90.13C142.255 90.0607 141.657 89.948 141.085 89.792C140.513 89.6187 140.028 89.3933 139.629 89.116C139.248 88.8387 139.057 88.492 139.057 88.076C139.057 87.92 139.083 87.7293 139.135 87.504C139.204 87.2787 139.3 87.062 139.421 86.854C139.56 86.646 139.716 86.4727 139.889 86.334C140.08 86.178 140.305 86.1 140.565 86.1C140.773 86.1 140.964 86.152 141.137 86.256C141.31 86.36 141.51 86.4727 141.735 86.594C141.978 86.698 142.272 86.802 142.619 86.906C142.966 87.01 143.425 87.062 143.997 87.062C144.43 87.062 144.812 87.01 145.141 86.906C145.488 86.802 145.661 86.568 145.661 86.204C145.661 85.8747 145.522 85.6147 145.245 85.424C144.968 85.216 144.612 85.0253 144.179 84.852C143.763 84.6787 143.304 84.4967 142.801 84.306C142.316 84.098 141.856 83.8293 141.423 83.5C141.007 83.1707 140.66 82.7547 140.383 82.252C140.106 81.732 139.967 81.0647 139.967 80.25C139.967 79.366 140.14 78.6207 140.487 78.014C140.851 77.39 141.31 76.8873 141.865 76.506C142.437 76.1247 143.078 75.856 143.789 75.7C144.5 75.5267 145.21 75.44 145.921 75.44ZM163.408 90.26C162.073 90.26 161.016 90.0693 160.236 89.688C159.456 89.2893 158.867 88.7953 158.468 88.206C158.069 87.6167 157.818 86.984 157.714 86.308C157.61 85.6147 157.558 84.982 157.558 84.41C157.558 84.1847 157.575 83.7427 157.61 83.084C157.662 82.4253 157.723 81.6627 157.792 80.796C157.861 79.9293 157.931 79.0107 158 78.04C158.069 77.052 158.139 76.1247 158.208 75.258C158.277 74.374 158.329 73.594 158.364 72.918C158.416 72.242 158.442 71.774 158.442 71.514C158.442 71.1327 158.468 70.916 158.52 70.864C158.572 70.7947 158.728 70.76 158.988 70.76H160.002C160.522 70.76 160.955 70.8207 161.302 70.942C161.649 71.0633 161.926 71.228 162.134 71.436C162.342 71.644 162.489 71.8867 162.576 72.164C162.663 72.424 162.706 72.71 162.706 73.022C162.706 73.3167 162.671 73.8887 162.602 74.738C162.55 75.5873 162.481 76.584 162.394 77.728C162.845 76.948 163.356 76.376 163.928 76.012C164.5 75.6307 165.254 75.44 166.19 75.44C167.767 75.44 168.972 75.96 169.804 77C170.653 78.04 171.078 79.5913 171.078 81.654C171.078 82.1913 171.035 82.7807 170.948 83.422C170.879 84.0633 170.74 84.7047 170.532 85.346C170.341 85.97 170.064 86.5853 169.7 87.192C169.353 87.7813 168.894 88.3013 168.322 88.752C167.75 89.2027 167.057 89.5667 166.242 89.844C165.445 90.1213 164.5 90.26 163.408 90.26ZM164.578 78.898C163.954 78.898 163.46 79.0627 163.096 79.392C162.749 79.7213 162.481 80.12 162.29 80.588C162.099 81.056 161.978 81.5587 161.926 82.096C161.874 82.616 161.848 83.0753 161.848 83.474C161.848 84.67 162.013 85.528 162.342 86.048C162.671 86.5507 163.165 86.802 163.824 86.802C164.448 86.802 164.933 86.6113 165.28 86.23C165.644 85.8313 165.913 85.3633 166.086 84.826C166.277 84.2887 166.398 83.7427 166.45 83.188C166.502 82.6333 166.528 82.2 166.528 81.888C166.528 80.9173 166.381 80.1807 166.086 79.678C165.791 79.158 165.289 78.898 164.578 78.898ZM177.906 77.91C177.906 78.274 177.871 78.7853 177.802 79.444C177.75 80.1027 177.689 80.7873 177.62 81.498C177.568 82.2087 177.507 82.876 177.438 83.5C177.386 84.124 177.36 84.5747 177.36 84.852C177.36 85.4587 177.507 85.9353 177.802 86.282C178.114 86.6113 178.538 86.776 179.076 86.776C179.544 86.776 179.934 86.594 180.246 86.23C180.575 85.8487 180.835 85.3633 181.026 84.774C181.234 84.1673 181.398 83.4827 181.52 82.72C181.641 81.9573 181.728 81.186 181.78 80.406C181.849 79.626 181.901 78.872 181.936 78.144C181.988 77.3987 182.04 76.7573 182.092 76.22C182.109 76.0813 182.161 75.96 182.248 75.856C182.334 75.752 182.473 75.7 182.664 75.7H183.6C184.137 75.7 184.57 75.7607 184.9 75.882C185.246 75.986 185.515 76.142 185.706 76.35C185.914 76.558 186.052 76.818 186.122 77.13C186.208 77.4247 186.252 77.7713 186.252 78.17C186.252 78.43 186.234 78.8027 186.2 79.288C186.182 79.756 186.139 80.4147 186.07 81.264C186 82.096 185.914 83.162 185.81 84.462C185.723 85.7447 185.61 87.3393 185.472 89.246C185.437 89.61 185.394 89.8267 185.342 89.896C185.307 89.9653 185.168 90 184.926 90H183.912C183.392 90 182.958 89.9393 182.612 89.818C182.282 89.6967 182.014 89.5407 181.806 89.35C181.598 89.1593 181.45 88.934 181.364 88.674C181.277 88.414 181.225 88.1453 181.208 87.868C180.948 88.3187 180.653 88.7 180.324 89.012C180.012 89.324 179.682 89.5753 179.336 89.766C178.989 89.9393 178.634 90.0607 178.27 90.13C177.906 90.2167 177.55 90.26 177.204 90.26C176.545 90.26 175.956 90.156 175.436 89.948C174.916 89.7227 174.474 89.428 174.11 89.064C173.763 88.7 173.494 88.2667 173.304 87.764C173.113 87.2613 173.018 86.724 173.018 86.152C173.018 85.9267 173.026 85.5627 173.044 85.06C173.078 84.54 173.113 83.9593 173.148 83.318C173.2 82.6767 173.252 82.0007 173.304 81.29C173.356 80.562 173.399 79.8773 173.434 79.236C173.486 78.5947 173.529 78.0313 173.564 77.546C173.616 77.0607 173.65 76.714 173.668 76.506C173.702 76.194 173.772 75.986 173.876 75.882C173.98 75.7607 174.153 75.7 174.396 75.7H175.228C175.765 75.7 176.207 75.752 176.554 75.856C176.9 75.96 177.169 76.1073 177.36 76.298C177.568 76.4887 177.706 76.7227 177.776 77C177.862 77.26 177.906 77.5633 177.906 77.91ZM194.016 79.21C193.964 79.8687 193.903 80.5187 193.834 81.16C193.782 81.8013 193.73 82.408 193.678 82.98C193.626 83.552 193.582 84.0633 193.548 84.514C193.53 84.9647 193.522 85.3113 193.522 85.554C193.522 86.0047 193.574 86.308 193.678 86.464C193.782 86.6027 193.955 86.672 194.198 86.672C194.388 86.672 194.553 86.6373 194.692 86.568C194.83 86.4987 194.96 86.4207 195.082 86.334C195.203 86.2473 195.307 86.1693 195.394 86.1C195.498 86.0307 195.61 85.996 195.732 85.996C195.853 85.996 195.966 86.0653 196.07 86.204C196.174 86.3427 196.226 86.6633 196.226 87.166C196.226 88.1193 195.966 88.8733 195.446 89.428C194.926 89.9827 194.033 90.26 192.768 90.26C191.52 90.26 190.592 89.974 189.986 89.402C189.396 88.8127 189.102 87.92 189.102 86.724C189.102 86.464 189.11 86.1607 189.128 85.814C189.162 85.45 189.206 84.982 189.258 84.41C189.31 83.838 189.37 83.136 189.44 82.304C189.526 81.472 189.613 80.4407 189.7 79.21H188.322C188.183 79.21 188.096 79.184 188.062 79.132C188.044 79.0627 188.036 78.9673 188.036 78.846L188.114 77.52C188.131 77.2947 188.157 77.078 188.192 76.87C188.244 76.6447 188.33 76.4453 188.452 76.272C188.59 76.0987 188.781 75.96 189.024 75.856C189.266 75.752 189.587 75.7 189.986 75.7C190.107 75.388 190.246 75.0153 190.402 74.582C190.558 74.1487 190.714 73.7327 190.87 73.334C191.026 72.918 191.173 72.5713 191.312 72.294C191.468 72.0167 191.606 71.878 191.728 71.878H192.482C193.21 71.878 193.712 72.1033 193.99 72.554C194.267 73.0047 194.406 73.542 194.406 74.166C194.406 74.5127 194.38 75.024 194.328 75.7H197.058C197.335 75.7 197.474 75.8213 197.474 76.064L197.37 77.468C197.335 77.988 197.188 78.4127 196.928 78.742C196.685 79.054 196.174 79.21 195.394 79.21H194.016ZM213.054 87.712C213.054 87.3307 213.08 86.8367 213.132 86.23C213.202 85.606 213.262 84.956 213.314 84.28C213.384 83.5867 213.444 82.9193 213.496 82.278C213.566 81.6367 213.6 81.0993 213.6 80.666C213.6 80.2153 213.488 79.8167 213.262 79.47C213.054 79.106 212.638 78.924 212.014 78.924C211.408 78.924 210.905 79.0713 210.506 79.366C210.108 79.6607 209.77 80.198 209.492 80.978C209.232 81.758 209.016 82.8327 208.842 84.202C208.669 85.5713 208.504 87.3307 208.348 89.48C208.331 89.688 208.288 89.8267 208.218 89.896C208.149 89.9653 208.002 90 207.776 90H206.84C206.303 90 205.861 89.948 205.514 89.844C205.185 89.7227 204.916 89.558 204.708 89.35C204.518 89.142 204.379 88.8907 204.292 88.596C204.223 88.284 204.188 87.9287 204.188 87.53C204.188 87.27 204.197 86.906 204.214 86.438C204.249 85.9527 204.301 85.294 204.37 84.462C204.44 83.6127 204.518 82.5467 204.604 81.264C204.708 79.964 204.83 78.3607 204.968 76.454C204.986 76.0727 205.029 75.8473 205.098 75.778C205.15 75.726 205.289 75.7 205.514 75.7H206.528C207.048 75.7 207.473 75.7607 207.802 75.882C208.149 76.0033 208.426 76.168 208.634 76.376C208.842 76.5667 208.99 76.8007 209.076 77.078C209.163 77.338 209.215 77.6067 209.232 77.884C209.77 76.9653 210.385 76.3327 211.078 75.986C211.772 75.622 212.638 75.44 213.678 75.44C214.406 75.44 215.039 75.518 215.576 75.674C216.114 75.83 216.556 76.0987 216.902 76.48C217.266 76.844 217.535 77.3293 217.708 77.936C217.882 78.5253 217.968 79.262 217.968 80.146C217.968 80.4233 217.951 80.822 217.916 81.342C217.882 81.862 217.838 82.434 217.786 83.058C217.734 83.6647 217.674 84.306 217.604 84.982C217.552 85.6407 217.5 86.256 217.448 86.828C217.396 87.4 217.353 87.9027 217.318 88.336C217.284 88.7693 217.266 89.0553 217.266 89.194C217.266 89.5753 217.223 89.8093 217.136 89.896C217.05 89.9653 216.859 90 216.564 90H215.732C215.178 90 214.727 89.948 214.38 89.844C214.034 89.74 213.765 89.5927 213.574 89.402C213.384 89.2113 213.245 88.9773 213.158 88.7C213.089 88.4053 213.054 88.076 213.054 87.712ZM226.006 90.26C224.81 90.26 223.813 90.0953 223.016 89.766C222.236 89.4193 221.612 88.9513 221.144 88.362C220.676 87.7727 220.347 87.088 220.156 86.308C219.965 85.5107 219.87 84.6613 219.87 83.76C219.87 82.72 219.991 81.706 220.234 80.718C220.494 79.7127 220.927 78.82 221.534 78.04C222.141 77.26 222.938 76.636 223.926 76.168C224.931 75.6827 226.179 75.44 227.67 75.44C229.854 75.44 231.414 75.9773 232.35 77.052C233.303 78.1093 233.78 79.6 233.78 81.524C233.78 82.0613 233.737 82.6593 233.65 83.318C233.581 83.9593 233.433 84.6007 233.208 85.242C233 85.8833 232.705 86.5073 232.324 87.114C231.96 87.7207 231.492 88.258 230.92 88.726C230.348 89.194 229.655 89.5667 228.84 89.844C228.043 90.1213 227.098 90.26 226.006 90.26ZM227.228 78.898C226.569 78.898 226.041 79.0713 225.642 79.418C225.261 79.7473 224.966 80.1547 224.758 80.64C224.567 81.108 224.437 81.6107 224.368 82.148C224.316 82.668 224.29 83.11 224.29 83.474C224.29 84.618 224.472 85.4587 224.836 85.996C225.2 86.5333 225.72 86.802 226.396 86.802C227.003 86.802 227.497 86.6113 227.878 86.23C228.277 85.8487 228.58 85.3893 228.788 84.852C229.013 84.3147 229.161 83.7513 229.23 83.162C229.317 82.5727 229.36 82.0787 229.36 81.68C229.36 80.8133 229.195 80.1373 228.866 79.652C228.554 79.1493 228.008 78.898 227.228 78.898ZM240.319 86.802C240.319 85.242 241.021 84.02 242.425 83.136C243.829 82.252 245.9 81.7753 248.639 81.706C248.656 81.5153 248.665 81.3593 248.665 81.238C248.682 81.0993 248.691 80.9347 248.691 80.744C248.691 80.1893 248.587 79.7473 248.379 79.418C248.171 79.0887 247.738 78.924 247.079 78.924C246.715 78.924 246.42 78.976 246.195 79.08C245.97 79.184 245.788 79.3313 245.649 79.522C245.51 79.6953 245.398 79.912 245.311 80.172C245.224 80.432 245.146 80.718 245.077 81.03C245.042 81.186 244.964 81.29 244.843 81.342C244.722 81.3767 244.531 81.394 244.271 81.394C242.503 81.394 241.619 80.7267 241.619 79.392C241.619 78.8547 241.74 78.3433 241.983 77.858C242.243 77.3727 242.616 76.9567 243.101 76.61C243.604 76.246 244.228 75.96 244.973 75.752C245.718 75.544 246.585 75.44 247.573 75.44C249.497 75.44 250.892 75.8387 251.759 76.636C252.626 77.4333 253.059 78.56 253.059 80.016C253.059 80.2067 253.033 80.5533 252.981 81.056C252.946 81.5413 252.894 82.0613 252.825 82.616C252.773 83.1533 252.721 83.6647 252.669 84.15C252.634 84.6353 252.617 84.9733 252.617 85.164C252.617 85.5973 252.695 85.9093 252.851 86.1C253.007 86.2733 253.18 86.3947 253.371 86.464C253.579 86.5333 253.761 86.5853 253.917 86.62C254.073 86.6547 254.151 86.7413 254.151 86.88C254.151 87.2613 254.099 87.6513 253.995 88.05C253.891 88.4487 253.718 88.8127 253.475 89.142C253.25 89.4713 252.929 89.74 252.513 89.948C252.114 90.156 251.62 90.26 251.031 90.26C250.199 90.26 249.575 90.0607 249.159 89.662C248.743 89.2633 248.466 88.7087 248.327 87.998C247.911 88.6047 247.365 89.1333 246.689 89.584C246.03 90.0347 245.164 90.26 244.089 90.26C243.569 90.26 243.075 90.1993 242.607 90.078C242.156 89.9567 241.758 89.7573 241.411 89.48C241.082 89.2027 240.813 88.8473 240.605 88.414C240.414 87.9633 240.319 87.426 240.319 86.802ZM248.405 83.838C247.954 83.838 247.512 83.8727 247.079 83.942C246.646 84.0113 246.256 84.124 245.909 84.28C245.58 84.4187 245.311 84.6093 245.103 84.852C244.895 85.0947 244.791 85.3893 244.791 85.736C244.791 86.1347 244.912 86.412 245.155 86.568C245.415 86.724 245.692 86.802 245.987 86.802C246.264 86.802 246.542 86.7413 246.819 86.62C247.096 86.4987 247.339 86.3167 247.547 86.074C247.772 85.814 247.963 85.502 248.119 85.138C248.275 84.774 248.37 84.3407 248.405 83.838ZM264.043 81.914C263.939 81.914 263.818 81.914 263.679 81.914C263.558 81.8967 263.437 81.8793 263.315 81.862C263.194 81.8273 263.09 81.7927 263.003 81.758C262.917 81.706 262.873 81.6453 262.873 81.576C262.873 81.3507 262.882 81.1427 262.899 80.952C262.917 80.7613 262.925 80.562 262.925 80.354C262.925 79.9727 262.873 79.6607 262.769 79.418C262.665 79.1753 262.457 79.054 262.145 79.054C261.66 79.054 261.253 79.3747 260.923 80.016C260.611 80.64 260.412 81.5847 260.325 82.85C260.291 83.4047 260.239 84.0373 260.169 84.748C260.117 85.4413 260.065 86.1173 260.013 86.776C259.961 87.4173 259.918 87.9893 259.883 88.492C259.849 88.9947 259.831 89.324 259.831 89.48C259.831 89.6533 259.771 89.7833 259.649 89.87C259.528 89.9567 259.398 90 259.259 90H258.323C257.786 90 257.344 89.948 256.997 89.844C256.668 89.7227 256.399 89.558 256.191 89.35C256.001 89.142 255.862 88.8907 255.775 88.596C255.706 88.284 255.671 87.9287 255.671 87.53C255.671 87.27 255.68 86.906 255.697 86.438C255.732 85.9527 255.784 85.294 255.853 84.462C255.923 83.6127 256.001 82.5467 256.087 81.264C256.191 79.964 256.313 78.3607 256.451 76.454C256.486 75.9513 256.668 75.7 256.997 75.7H258.011C258.497 75.7 258.904 75.752 259.233 75.856C259.563 75.96 259.831 76.1073 260.039 76.298C260.247 76.4713 260.395 76.6793 260.481 76.922C260.585 77.1647 260.655 77.416 260.689 77.676C260.897 77.2773 261.14 76.9393 261.417 76.662C261.712 76.3673 262.015 76.1333 262.327 75.96C262.639 75.7693 262.96 75.6393 263.289 75.57C263.619 75.4833 263.922 75.44 264.199 75.44C264.529 75.44 264.858 75.5007 265.187 75.622C265.534 75.7433 265.846 75.9253 266.123 76.168C266.401 76.4107 266.617 76.7227 266.773 77.104C266.947 77.4853 267.033 77.936 267.033 78.456C267.033 78.924 266.964 79.366 266.825 79.782C266.687 80.198 266.487 80.5707 266.227 80.9C265.967 81.212 265.647 81.4633 265.265 81.654C264.901 81.8273 264.494 81.914 264.043 81.914ZM272.481 85.32C272.429 86.1173 272.368 86.88 272.299 87.608C272.229 88.3187 272.177 88.9427 272.143 89.48C272.125 89.688 272.082 89.8267 272.013 89.896C271.943 89.9653 271.796 90 271.571 90H270.635C270.097 90 269.655 89.948 269.309 89.844C268.979 89.7227 268.711 89.558 268.503 89.35C268.312 89.142 268.173 88.8907 268.087 88.596C268.017 88.284 267.983 87.9287 267.983 87.53C267.983 87.27 267.991 86.906 268.009 86.438C268.043 85.9527 268.095 85.294 268.165 84.462C268.234 83.6127 268.312 82.5467 268.399 81.264C268.503 79.964 268.624 78.3607 268.763 76.454C268.78 76.0727 268.823 75.8473 268.893 75.778C268.945 75.726 269.083 75.7 269.309 75.7H270.323C270.843 75.7 271.267 75.7607 271.597 75.882C271.926 76.0033 272.195 76.1593 272.403 76.35C272.611 76.5407 272.758 76.766 272.845 77.026C272.931 77.286 272.983 77.5547 273.001 77.832C273.503 76.896 274.075 76.2633 274.717 75.934C275.358 75.6047 276.112 75.44 276.979 75.44C277.447 75.44 277.897 75.4833 278.331 75.57C278.764 75.6567 279.154 75.804 279.501 76.012C279.847 76.22 280.142 76.4973 280.385 76.844C280.627 77.1733 280.801 77.598 280.905 78.118C281.442 77.1127 282.031 76.4193 282.673 76.038C283.314 75.6393 284.12 75.44 285.091 75.44C285.628 75.44 286.139 75.5007 286.625 75.622C287.127 75.726 287.561 75.9167 287.925 76.194C288.289 76.4713 288.575 76.8527 288.783 77.338C289.008 77.806 289.121 78.3953 289.121 79.106C289.121 79.6433 289.095 80.302 289.043 81.082C288.991 81.862 288.93 82.7113 288.861 83.63C288.791 84.5313 288.713 85.4673 288.627 86.438C288.54 87.3913 288.471 88.31 288.419 89.194C288.401 89.3847 288.384 89.532 288.367 89.636C288.349 89.74 288.315 89.818 288.263 89.87C288.228 89.922 288.167 89.9567 288.081 89.974C287.994 89.9913 287.873 90 287.717 90H286.885C286.33 90 285.879 89.948 285.533 89.844C285.186 89.74 284.917 89.5927 284.727 89.402C284.536 89.2113 284.397 88.9773 284.311 88.7C284.241 88.4053 284.207 88.076 284.207 87.712C284.207 87.4867 284.215 87.166 284.233 86.75C284.267 86.334 284.302 85.8833 284.337 85.398C284.389 84.9127 284.432 84.41 284.467 83.89C284.519 83.37 284.562 82.8933 284.597 82.46C284.649 82.0093 284.683 81.6193 284.701 81.29C284.735 80.9607 284.753 80.744 284.753 80.64C284.753 80.1893 284.657 79.7907 284.467 79.444C284.293 79.0973 283.947 78.924 283.427 78.924C282.976 78.924 282.586 79.0713 282.257 79.366C281.927 79.6607 281.65 80.068 281.425 80.588C281.199 81.108 281.017 81.7233 280.879 82.434C280.74 83.1447 280.645 83.916 280.593 84.748C280.558 85.2853 280.515 85.9007 280.463 86.594C280.411 87.2873 280.35 88.154 280.281 89.194C280.263 89.3847 280.246 89.532 280.229 89.636C280.211 89.74 280.177 89.818 280.125 89.87C280.09 89.922 280.029 89.9567 279.943 89.974C279.856 89.9913 279.735 90 279.579 90H278.747C278.192 90 277.741 89.948 277.395 89.844C277.048 89.74 276.779 89.5927 276.589 89.402C276.398 89.2113 276.259 88.9773 276.173 88.7C276.103 88.4053 276.069 88.076 276.069 87.712C276.069 87.3653 276.095 86.8627 276.147 86.204C276.216 85.528 276.277 84.8347 276.329 84.124C276.398 83.396 276.459 82.7113 276.511 82.07C276.58 81.4113 276.615 80.9347 276.615 80.64C276.615 80.1893 276.519 79.7907 276.329 79.444C276.155 79.0973 275.809 78.924 275.289 78.924C274.821 78.924 274.422 79.0973 274.093 79.444C273.763 79.7907 273.486 80.2587 273.261 80.848C273.053 81.42 272.879 82.096 272.741 82.876C272.619 83.656 272.533 84.4707 272.481 85.32ZM297.398 75.44C298.871 75.44 299.954 75.7347 300.648 76.324C301.341 76.896 301.688 77.6327 301.688 78.534C301.688 79.2967 301.445 79.8773 300.96 80.276C300.492 80.6747 299.807 80.874 298.906 80.874C298.663 80.874 298.498 80.848 298.412 80.796C298.325 80.744 298.282 80.6487 298.282 80.51C298.282 80.354 298.264 80.1807 298.23 79.99C298.212 79.782 298.152 79.5913 298.048 79.418C297.961 79.2273 297.814 79.0713 297.606 78.95C297.415 78.8287 297.138 78.768 296.774 78.768C296.288 78.768 295.898 78.8893 295.604 79.132C295.309 79.3573 295.162 79.6433 295.162 79.99C295.162 80.354 295.309 80.6487 295.604 80.874C295.916 81.082 296.297 81.2813 296.748 81.472C297.216 81.6627 297.718 81.862 298.256 82.07C298.793 82.2607 299.287 82.5207 299.738 82.85C300.206 83.1793 300.587 83.5953 300.882 84.098C301.194 84.5833 301.35 85.216 301.35 85.996C301.35 87.244 300.908 88.2667 300.024 89.064C299.14 89.8613 297.814 90.26 296.046 90.26C295.56 90.26 294.997 90.2167 294.356 90.13C293.732 90.0607 293.134 89.948 292.562 89.792C291.99 89.6187 291.504 89.3933 291.106 89.116C290.724 88.8387 290.534 88.492 290.534 88.076C290.534 87.92 290.56 87.7293 290.612 87.504C290.681 87.2787 290.776 87.062 290.898 86.854C291.036 86.646 291.192 86.4727 291.366 86.334C291.556 86.178 291.782 86.1 292.042 86.1C292.25 86.1 292.44 86.152 292.614 86.256C292.787 86.36 292.986 86.4727 293.212 86.594C293.454 86.698 293.749 86.802 294.096 86.906C294.442 87.01 294.902 87.062 295.474 87.062C295.907 87.062 296.288 87.01 296.618 86.906C296.964 86.802 297.138 86.568 297.138 86.204C297.138 85.8747 296.999 85.6147 296.722 85.424C296.444 85.216 296.089 85.0253 295.656 84.852C295.24 84.6787 294.78 84.4967 294.278 84.306C293.792 84.098 293.333 83.8293 292.9 83.5C292.484 83.1707 292.137 82.7547 291.86 82.252C291.582 81.732 291.444 81.0647 291.444 80.25C291.444 79.366 291.617 78.6207 291.964 78.014C292.328 77.39 292.787 76.8873 293.342 76.506C293.914 76.1247 294.555 75.856 295.266 75.7C295.976 75.5267 296.687 75.44 297.398 75.44ZM305.503 85.372C306.231 85.372 306.751 85.554 307.063 85.918C307.375 86.2647 307.531 86.7587 307.531 87.4C307.531 87.66 307.496 87.9633 307.427 88.31C307.357 88.6393 307.227 88.9513 307.037 89.246C306.863 89.5233 306.612 89.766 306.283 89.974C305.953 90.1647 305.52 90.26 304.983 90.26C304.185 90.26 303.648 90.0607 303.371 89.662C303.093 89.246 302.955 88.7347 302.955 88.128C302.955 87.7813 302.998 87.4433 303.085 87.114C303.171 86.7847 303.31 86.49 303.501 86.23C303.691 85.97 303.951 85.762 304.281 85.606C304.61 85.45 305.017 85.372 305.503 85.372ZM116.51 120.126C116.683 119.207 116.839 118.41 116.978 117.734C117.116 117.041 117.238 116.399 117.342 115.81C117.446 115.221 117.541 114.64 117.628 114.068C117.732 113.479 117.836 112.829 117.94 112.118C118.061 111.39 118.191 110.567 118.33 109.648C118.486 108.712 118.668 107.594 118.876 106.294C118.928 105.965 119.014 105.757 119.136 105.67C119.257 105.566 119.56 105.514 120.046 105.514C120.236 105.514 120.522 105.531 120.904 105.566C121.285 105.583 121.666 105.661 122.048 105.8C122.429 105.921 122.758 106.121 123.036 106.398C123.33 106.658 123.478 107.031 123.478 107.516C123.478 107.793 123.426 108.227 123.322 108.816C123.218 109.388 123.07 110.055 122.88 110.818C122.706 111.563 122.498 112.378 122.256 113.262C122.03 114.146 121.796 115.039 121.554 115.94C121.311 116.841 121.06 117.717 120.8 118.566C120.557 119.415 120.323 120.187 120.098 120.88C119.89 121.556 119.699 122.128 119.526 122.596C119.352 123.064 119.231 123.367 119.162 123.506C119.058 123.697 118.91 123.827 118.72 123.896C118.529 123.965 118.338 124 118.148 124H115.678C115.227 124 114.846 123.913 114.534 123.74C114.239 123.567 113.988 123.341 113.78 123.064C113.589 122.787 113.433 122.475 113.312 122.128C113.208 121.781 113.138 121.426 113.104 121.062L111.804 109.388C111.7 110.151 111.578 111.009 111.44 111.962C111.318 112.915 111.18 113.886 111.024 114.874C110.885 115.862 110.746 116.833 110.608 117.786C110.469 118.739 110.33 119.615 110.192 120.412C110.053 121.192 109.923 121.859 109.802 122.414C109.68 122.969 109.576 123.333 109.49 123.506C109.403 123.697 109.264 123.827 109.074 123.896C108.883 123.965 108.684 124 108.476 124H106.006C105.572 124 105.208 123.922 104.914 123.766C104.636 123.593 104.402 123.367 104.212 123.09C104.021 122.813 103.865 122.501 103.744 122.154C103.622 121.79 103.518 121.426 103.432 121.062C102.721 118.237 102.14 115.914 101.69 114.094C101.256 112.274 100.91 110.818 100.65 109.726C100.39 108.617 100.208 107.811 100.104 107.308C100.017 106.788 99.9738 106.415 99.9738 106.19C99.9738 105.895 100.06 105.705 100.234 105.618C100.424 105.531 100.814 105.488 101.404 105.488C102.132 105.488 102.738 105.54 103.224 105.644C103.726 105.748 104.134 105.913 104.446 106.138C104.758 106.346 104.992 106.632 105.148 106.996C105.321 107.343 105.434 107.767 105.486 108.27C105.486 108.339 105.494 108.443 105.512 108.582C105.529 108.703 105.546 108.911 105.564 109.206C105.598 109.501 105.642 109.908 105.694 110.428C105.763 110.931 105.841 111.607 105.928 112.456C106.032 113.305 106.153 114.363 106.292 115.628C106.448 116.876 106.63 118.375 106.838 120.126C107.028 119.069 107.176 118.219 107.28 117.578C107.401 116.919 107.505 116.347 107.592 115.862C107.678 115.359 107.756 114.883 107.826 114.432C107.895 113.964 107.973 113.392 108.06 112.716C108.164 112.023 108.276 111.156 108.398 110.116C108.536 109.076 108.71 107.724 108.918 106.06C108.935 105.939 109.004 105.843 109.126 105.774C109.264 105.705 109.429 105.653 109.62 105.618C109.81 105.583 110.018 105.566 110.244 105.566C110.486 105.549 110.712 105.54 110.92 105.54C111.613 105.54 112.202 105.583 112.688 105.67C113.173 105.739 113.572 105.869 113.884 106.06C114.213 106.251 114.473 106.511 114.664 106.84C114.854 107.152 115.01 107.542 115.132 108.01C115.184 108.235 115.244 108.547 115.314 108.946C115.383 109.327 115.461 109.943 115.548 110.792C115.652 111.641 115.773 112.811 115.912 114.302C116.068 115.775 116.267 117.717 116.51 120.126ZM133.339 120.776C133.391 120.204 133.443 119.606 133.495 118.982C133.565 118.358 133.617 117.76 133.651 117.188C133.703 116.616 133.747 116.105 133.781 115.654C133.816 115.203 133.833 114.874 133.833 114.666C133.833 114.215 133.721 113.817 133.495 113.47C133.287 113.106 132.871 112.924 132.247 112.924C131.415 112.924 130.739 113.314 130.219 114.094C129.717 114.874 129.422 115.914 129.335 117.214C129.301 117.578 129.257 118.089 129.205 118.748C129.153 119.389 129.101 120.048 129.049 120.724C128.997 121.383 128.945 121.981 128.893 122.518C128.859 123.038 128.841 123.359 128.841 123.48C128.841 123.688 128.798 123.827 128.711 123.896C128.642 123.965 128.495 124 128.269 124H127.333C126.796 124 126.354 123.948 126.007 123.844C125.678 123.723 125.409 123.558 125.201 123.35C125.011 123.142 124.872 122.891 124.785 122.596C124.716 122.284 124.681 121.929 124.681 121.53C124.681 121.149 124.707 120.62 124.759 119.944C124.829 119.251 124.915 118.306 125.019 117.11C125.123 115.897 125.245 114.354 125.383 112.482C125.522 110.61 125.669 108.287 125.825 105.514C125.843 105.133 125.886 104.907 125.955 104.838C126.007 104.786 126.146 104.76 126.371 104.76H127.385C127.905 104.76 128.339 104.821 128.685 104.942C129.032 105.063 129.309 105.228 129.517 105.436C129.725 105.644 129.873 105.887 129.959 106.164C130.046 106.424 130.089 106.701 130.089 106.996C130.089 107.308 130.055 107.889 129.985 108.738C129.933 109.587 129.864 110.584 129.777 111.728C130.297 110.861 130.869 110.263 131.493 109.934C132.135 109.605 132.941 109.44 133.911 109.44C134.639 109.44 135.272 109.518 135.809 109.674C136.347 109.83 136.789 110.099 137.135 110.48C137.499 110.844 137.768 111.329 137.941 111.936C138.115 112.525 138.201 113.262 138.201 114.146C138.201 114.423 138.175 114.9 138.123 115.576C138.071 116.252 138.002 117.023 137.915 117.89C137.846 118.757 137.768 119.667 137.681 120.62C137.612 121.556 137.551 122.414 137.499 123.194C137.482 123.385 137.465 123.532 137.447 123.636C137.43 123.74 137.395 123.818 137.343 123.87C137.309 123.922 137.248 123.957 137.161 123.974C137.075 123.991 136.953 124 136.797 124H135.965C135.411 124 134.96 123.948 134.613 123.844C134.267 123.74 133.998 123.593 133.807 123.402C133.617 123.211 133.478 122.977 133.391 122.7C133.322 122.405 133.287 122.076 133.287 121.712C133.287 121.539 133.287 121.374 133.287 121.218C133.305 121.062 133.322 120.915 133.339 120.776ZM139.642 120.802C139.642 119.242 140.344 118.02 141.748 117.136C143.152 116.252 145.223 115.775 147.962 115.706C147.979 115.515 147.988 115.359 147.988 115.238C148.005 115.099 148.014 114.935 148.014 114.744C148.014 114.189 147.91 113.747 147.702 113.418C147.494 113.089 147.06 112.924 146.402 112.924C146.038 112.924 145.743 112.976 145.518 113.08C145.292 113.184 145.11 113.331 144.972 113.522C144.833 113.695 144.72 113.912 144.634 114.172C144.547 114.432 144.469 114.718 144.4 115.03C144.365 115.186 144.287 115.29 144.166 115.342C144.044 115.377 143.854 115.394 143.594 115.394C141.826 115.394 140.942 114.727 140.942 113.392C140.942 112.855 141.063 112.343 141.306 111.858C141.566 111.373 141.938 110.957 142.424 110.61C142.926 110.246 143.55 109.96 144.296 109.752C145.041 109.544 145.908 109.44 146.896 109.44C148.82 109.44 150.215 109.839 151.082 110.636C151.948 111.433 152.382 112.56 152.382 114.016C152.382 114.207 152.356 114.553 152.304 115.056C152.269 115.541 152.217 116.061 152.148 116.616C152.096 117.153 152.044 117.665 151.992 118.15C151.957 118.635 151.94 118.973 151.94 119.164C151.94 119.597 152.018 119.909 152.174 120.1C152.33 120.273 152.503 120.395 152.694 120.464C152.902 120.533 153.084 120.585 153.24 120.62C153.396 120.655 153.474 120.741 153.474 120.88C153.474 121.261 153.422 121.651 153.318 122.05C153.214 122.449 153.04 122.813 152.798 123.142C152.572 123.471 152.252 123.74 151.836 123.948C151.437 124.156 150.943 124.26 150.354 124.26C149.522 124.26 148.898 124.061 148.482 123.662C148.066 123.263 147.788 122.709 147.65 121.998C147.234 122.605 146.688 123.133 146.012 123.584C145.353 124.035 144.486 124.26 143.412 124.26C142.892 124.26 142.398 124.199 141.93 124.078C141.479 123.957 141.08 123.757 140.734 123.48C140.404 123.203 140.136 122.847 139.928 122.414C139.737 121.963 139.642 121.426 139.642 120.802ZM147.728 117.838C147.277 117.838 146.835 117.873 146.402 117.942C145.968 118.011 145.578 118.124 145.232 118.28C144.902 118.419 144.634 118.609 144.426 118.852C144.218 119.095 144.114 119.389 144.114 119.736C144.114 120.135 144.235 120.412 144.478 120.568C144.738 120.724 145.015 120.802 145.31 120.802C145.587 120.802 145.864 120.741 146.142 120.62C146.419 120.499 146.662 120.317 146.87 120.074C147.095 119.814 147.286 119.502 147.442 119.138C147.598 118.774 147.693 118.341 147.728 117.838ZM160.558 113.21C160.506 113.869 160.445 114.519 160.376 115.16C160.324 115.801 160.272 116.408 160.22 116.98C160.168 117.552 160.125 118.063 160.09 118.514C160.073 118.965 160.064 119.311 160.064 119.554C160.064 120.005 160.116 120.308 160.22 120.464C160.324 120.603 160.497 120.672 160.74 120.672C160.931 120.672 161.095 120.637 161.234 120.568C161.373 120.499 161.503 120.421 161.624 120.334C161.745 120.247 161.849 120.169 161.936 120.1C162.04 120.031 162.153 119.996 162.274 119.996C162.395 119.996 162.508 120.065 162.612 120.204C162.716 120.343 162.768 120.663 162.768 121.166C162.768 122.119 162.508 122.873 161.988 123.428C161.468 123.983 160.575 124.26 159.31 124.26C158.062 124.26 157.135 123.974 156.528 123.402C155.939 122.813 155.644 121.92 155.644 120.724C155.644 120.464 155.653 120.161 155.67 119.814C155.705 119.45 155.748 118.982 155.8 118.41C155.852 117.838 155.913 117.136 155.982 116.304C156.069 115.472 156.155 114.441 156.242 113.21H154.864C154.725 113.21 154.639 113.184 154.604 113.132C154.587 113.063 154.578 112.967 154.578 112.846L154.656 111.52C154.673 111.295 154.699 111.078 154.734 110.87C154.786 110.645 154.873 110.445 154.994 110.272C155.133 110.099 155.323 109.96 155.566 109.856C155.809 109.752 156.129 109.7 156.528 109.7C156.649 109.388 156.788 109.015 156.944 108.582C157.1 108.149 157.256 107.733 157.412 107.334C157.568 106.918 157.715 106.571 157.854 106.294C158.01 106.017 158.149 105.878 158.27 105.878H159.024C159.752 105.878 160.255 106.103 160.532 106.554C160.809 107.005 160.948 107.542 160.948 108.166C160.948 108.513 160.922 109.024 160.87 109.7H163.6C163.877 109.7 164.016 109.821 164.016 110.064L163.912 111.468C163.877 111.988 163.73 112.413 163.47 112.742C163.227 113.054 162.716 113.21 161.936 113.21H160.558ZM169.951 120.802C169.951 119.242 170.653 118.02 172.057 117.136C173.461 116.252 175.532 115.775 178.271 115.706C178.288 115.515 178.297 115.359 178.297 115.238C178.314 115.099 178.323 114.935 178.323 114.744C178.323 114.189 178.219 113.747 178.011 113.418C177.803 113.089 177.369 112.924 176.711 112.924C176.347 112.924 176.052 112.976 175.827 113.08C175.601 113.184 175.419 113.331 175.281 113.522C175.142 113.695 175.029 113.912 174.943 114.172C174.856 114.432 174.778 114.718 174.709 115.03C174.674 115.186 174.596 115.29 174.475 115.342C174.353 115.377 174.163 115.394 173.903 115.394C172.135 115.394 171.251 114.727 171.251 113.392C171.251 112.855 171.372 112.343 171.615 111.858C171.875 111.373 172.247 110.957 172.733 110.61C173.235 110.246 173.859 109.96 174.605 109.752C175.35 109.544 176.217 109.44 177.205 109.44C179.129 109.44 180.524 109.839 181.391 110.636C182.257 111.433 182.691 112.56 182.691 114.016C182.691 114.207 182.665 114.553 182.613 115.056C182.578 115.541 182.526 116.061 182.457 116.616C182.405 117.153 182.353 117.665 182.301 118.15C182.266 118.635 182.249 118.973 182.249 119.164C182.249 119.597 182.327 119.909 182.483 120.1C182.639 120.273 182.812 120.395 183.003 120.464C183.211 120.533 183.393 120.585 183.549 120.62C183.705 120.655 183.783 120.741 183.783 120.88C183.783 121.261 183.731 121.651 183.627 122.05C183.523 122.449 183.349 122.813 183.107 123.142C182.881 123.471 182.561 123.74 182.145 123.948C181.746 124.156 181.252 124.26 180.663 124.26C179.831 124.26 179.207 124.061 178.791 123.662C178.375 123.263 178.097 122.709 177.959 121.998C177.543 122.605 176.997 123.133 176.321 123.584C175.662 124.035 174.795 124.26 173.721 124.26C173.201 124.26 172.707 124.199 172.239 124.078C171.788 123.957 171.389 123.757 171.043 123.48C170.713 123.203 170.445 122.847 170.237 122.414C170.046 121.963 169.951 121.426 169.951 120.802ZM178.037 117.838C177.586 117.838 177.144 117.873 176.711 117.942C176.277 118.011 175.887 118.124 175.541 118.28C175.211 118.419 174.943 118.609 174.735 118.852C174.527 119.095 174.423 119.389 174.423 119.736C174.423 120.135 174.544 120.412 174.787 120.568C175.047 120.724 175.324 120.802 175.619 120.802C175.896 120.802 176.173 120.741 176.451 120.62C176.728 120.499 176.971 120.317 177.179 120.074C177.404 119.814 177.595 119.502 177.751 119.138C177.907 118.774 178.002 118.341 178.037 117.838ZM189.775 119.32C189.723 120.117 189.663 120.88 189.593 121.608C189.524 122.319 189.472 122.943 189.437 123.48C189.42 123.688 189.377 123.827 189.307 123.896C189.238 123.965 189.091 124 188.865 124H187.929C187.392 124 186.95 123.948 186.603 123.844C186.274 123.723 186.005 123.558 185.797 123.35C185.607 123.142 185.468 122.891 185.381 122.596C185.312 122.284 185.277 121.929 185.277 121.53C185.277 121.27 185.286 120.906 185.303 120.438C185.338 119.953 185.39 119.294 185.459 118.462C185.529 117.613 185.607 116.547 185.693 115.264C185.797 113.964 185.919 112.361 186.057 110.454C186.075 110.073 186.118 109.847 186.187 109.778C186.239 109.726 186.378 109.7 186.603 109.7H187.617C188.137 109.7 188.562 109.761 188.891 109.882C189.221 110.003 189.489 110.159 189.697 110.35C189.905 110.541 190.053 110.766 190.139 111.026C190.226 111.286 190.278 111.555 190.295 111.832C190.798 110.896 191.37 110.263 192.011 109.934C192.653 109.605 193.407 109.44 194.273 109.44C194.741 109.44 195.192 109.483 195.625 109.57C196.059 109.657 196.449 109.804 196.795 110.012C197.142 110.22 197.437 110.497 197.679 110.844C197.922 111.173 198.095 111.598 198.199 112.118C198.737 111.113 199.326 110.419 199.967 110.038C200.609 109.639 201.415 109.44 202.385 109.44C202.923 109.44 203.434 109.501 203.919 109.622C204.422 109.726 204.855 109.917 205.219 110.194C205.583 110.471 205.869 110.853 206.077 111.338C206.303 111.806 206.415 112.395 206.415 113.106C206.415 113.643 206.389 114.302 206.337 115.082C206.285 115.862 206.225 116.711 206.155 117.63C206.086 118.531 206.008 119.467 205.921 120.438C205.835 121.391 205.765 122.31 205.713 123.194C205.696 123.385 205.679 123.532 205.661 123.636C205.644 123.74 205.609 123.818 205.557 123.87C205.523 123.922 205.462 123.957 205.375 123.974C205.289 123.991 205.167 124 205.011 124H204.179C203.625 124 203.174 123.948 202.827 123.844C202.481 123.74 202.212 123.593 202.021 123.402C201.831 123.211 201.692 122.977 201.605 122.7C201.536 122.405 201.501 122.076 201.501 121.712C201.501 121.487 201.51 121.166 201.527 120.75C201.562 120.334 201.597 119.883 201.631 119.398C201.683 118.913 201.727 118.41 201.761 117.89C201.813 117.37 201.857 116.893 201.891 116.46C201.943 116.009 201.978 115.619 201.995 115.29C202.03 114.961 202.047 114.744 202.047 114.64C202.047 114.189 201.952 113.791 201.761 113.444C201.588 113.097 201.241 112.924 200.721 112.924C200.271 112.924 199.881 113.071 199.551 113.366C199.222 113.661 198.945 114.068 198.719 114.588C198.494 115.108 198.312 115.723 198.173 116.434C198.035 117.145 197.939 117.916 197.887 118.748C197.853 119.285 197.809 119.901 197.757 120.594C197.705 121.287 197.645 122.154 197.575 123.194C197.558 123.385 197.541 123.532 197.523 123.636C197.506 123.74 197.471 123.818 197.419 123.87C197.385 123.922 197.324 123.957 197.237 123.974C197.151 123.991 197.029 124 196.873 124H196.041C195.487 124 195.036 123.948 194.689 123.844C194.343 123.74 194.074 123.593 193.883 123.402C193.693 123.211 193.554 122.977 193.467 122.7C193.398 122.405 193.363 122.076 193.363 121.712C193.363 121.365 193.389 120.863 193.441 120.204C193.511 119.528 193.571 118.835 193.623 118.124C193.693 117.396 193.753 116.711 193.805 116.07C193.875 115.411 193.909 114.935 193.909 114.64C193.909 114.189 193.814 113.791 193.623 113.444C193.45 113.097 193.103 112.924 192.583 112.924C192.115 112.924 191.717 113.097 191.387 113.444C191.058 113.791 190.781 114.259 190.555 114.848C190.347 115.42 190.174 116.096 190.035 116.876C189.914 117.656 189.827 118.471 189.775 119.32ZM217.08 124C216.109 124 215.416 123.809 215 123.428C214.584 123.047 214.376 122.501 214.376 121.79C214.376 121.443 214.402 120.854 214.454 120.022C214.506 119.173 214.575 118.211 214.662 117.136C214.749 116.061 214.835 114.926 214.922 113.73C215.009 112.534 215.095 111.407 215.182 110.35C215.269 109.293 215.338 108.365 215.39 107.568C215.442 106.771 215.468 106.225 215.468 105.93C215.468 105.67 215.607 105.54 215.884 105.54H217.314C218.371 105.54 219.082 105.765 219.446 106.216C219.81 106.667 219.992 107.334 219.992 108.218C219.992 108.305 219.975 108.582 219.94 109.05C219.923 109.518 219.888 110.107 219.836 110.818C219.784 111.529 219.723 112.326 219.654 113.21C219.602 114.077 219.541 114.969 219.472 115.888C219.42 116.807 219.359 117.708 219.29 118.592C219.238 119.459 219.186 120.247 219.134 120.958C219.082 121.669 219.039 122.267 219.004 122.752C218.969 123.22 218.943 123.506 218.926 123.61C218.909 123.749 218.874 123.853 218.822 123.922C218.77 123.974 218.666 124 218.51 124H217.08ZM227.232 119.372C227.96 119.372 228.48 119.554 228.792 119.918C229.104 120.265 229.26 120.759 229.26 121.4C229.26 121.677 229.225 121.981 229.156 122.31C229.087 122.639 228.957 122.951 228.766 123.246C228.593 123.523 228.333 123.766 227.986 123.974C227.657 124.165 227.223 124.26 226.686 124.26C225.906 124.26 225.377 124.061 225.1 123.662C224.823 123.246 224.684 122.735 224.684 122.128C224.684 121.781 224.727 121.443 224.814 121.114C224.901 120.785 225.039 120.49 225.23 120.23C225.421 119.97 225.681 119.762 226.01 119.606C226.339 119.45 226.747 119.372 227.232 119.372ZM229.182 117.032C229.061 117.275 228.957 117.422 228.87 117.474C228.783 117.526 228.671 117.552 228.532 117.552H227.596C226.92 117.552 226.435 117.413 226.14 117.136C225.845 116.841 225.698 116.486 225.698 116.07C225.698 115.671 225.802 115.29 226.01 114.926C226.235 114.545 226.513 114.181 226.842 113.834C227.171 113.487 227.518 113.149 227.882 112.82C228.263 112.473 228.619 112.135 228.948 111.806C229.277 111.459 229.546 111.113 229.754 110.766C229.979 110.402 230.092 110.021 230.092 109.622C230.092 109.206 229.953 108.825 229.676 108.478C229.416 108.114 228.983 107.932 228.376 107.932C227.908 107.932 227.527 108.027 227.232 108.218C226.955 108.409 226.729 108.651 226.556 108.946C226.383 109.241 226.253 109.57 226.166 109.934C226.079 110.281 226.001 110.627 225.932 110.974C225.897 111.165 225.837 111.295 225.75 111.364C225.681 111.416 225.49 111.442 225.178 111.442C224.121 111.442 223.367 111.26 222.916 110.896C222.483 110.515 222.266 109.934 222.266 109.154C222.266 108.339 222.457 107.637 222.838 107.048C223.237 106.459 223.748 105.973 224.372 105.592C225.013 105.211 225.733 104.933 226.53 104.76C227.345 104.569 228.168 104.474 229 104.474C229.988 104.474 230.829 104.604 231.522 104.864C232.233 105.107 232.813 105.445 233.264 105.878C233.715 106.294 234.044 106.788 234.252 107.36C234.477 107.915 234.59 108.495 234.59 109.102C234.59 110.021 234.365 110.835 233.914 111.546C233.463 112.257 232.935 112.915 232.328 113.522C231.721 114.129 231.115 114.709 230.508 115.264C229.919 115.819 229.477 116.408 229.182 117.032Z" fill="black"/>
</g>
<rect x="1" y="1" width="333" height="148" rx="31" stroke="#FEC880" stroke-width="2"/>
<defs>
<clipPath id="clip0_3003_657">
<rect width="335" height="150" rx="32" fill="white"/>
</clipPath>
</defs>
</svg>
